%TF.GenerationSoftware,KiCad,Pcbnew,9.0.5*%
%TF.CreationDate,2026-05-29T00:56:18+05:30*%
%TF.ProjectId,adapter,61646170-7465-4722-9e6b-696361645f70,rev?*%
%TF.SameCoordinates,Original*%
%TF.FileFunction,Copper,L1,Top*%
%TF.FilePolarity,Positive*%
%FSLAX46Y46*%
G04 Gerber Fmt 4.6, Leading zero omitted, Abs format (unit mm)*
G04 Created by KiCad (PCBNEW 9.0.5) date 2026-05-29 00:56:18*
%MOMM*%
%LPD*%
G01*
G04 APERTURE LIST*
G04 Aperture macros list*
%AMRoundRect*
0 Rectangle with rounded corners*
0 $1 Rounding radius*
0 $2 $3 $4 $5 $6 $7 $8 $9 X,Y pos of 4 corners*
0 Add a 4 corners polygon primitive as box body*
4,1,4,$2,$3,$4,$5,$6,$7,$8,$9,$2,$3,0*
0 Add four circle primitives for the rounded corners*
1,1,$1+$1,$2,$3*
1,1,$1+$1,$4,$5*
1,1,$1+$1,$6,$7*
1,1,$1+$1,$8,$9*
0 Add four rect primitives between the rounded corners*
20,1,$1+$1,$2,$3,$4,$5,0*
20,1,$1+$1,$4,$5,$6,$7,0*
20,1,$1+$1,$6,$7,$8,$9,0*
20,1,$1+$1,$8,$9,$2,$3,0*%
G04 Aperture macros list end*
%TA.AperFunction,SMDPad,CuDef*%
%ADD10RoundRect,0.250000X-0.625000X0.400000X-0.625000X-0.400000X0.625000X-0.400000X0.625000X0.400000X0*%
%TD*%
%TA.AperFunction,SMDPad,CuDef*%
%ADD11RoundRect,0.250000X-0.412500X-0.650000X0.412500X-0.650000X0.412500X0.650000X-0.412500X0.650000X0*%
%TD*%
%TA.AperFunction,SMDPad,CuDef*%
%ADD12RoundRect,0.250000X0.625000X-0.400000X0.625000X0.400000X-0.625000X0.400000X-0.625000X-0.400000X0*%
%TD*%
%TA.AperFunction,SMDPad,CuDef*%
%ADD13RoundRect,0.150000X-0.150000X0.875000X-0.150000X-0.875000X0.150000X-0.875000X0.150000X0.875000X0*%
%TD*%
%TA.AperFunction,ComponentPad*%
%ADD14C,4.000000*%
%TD*%
%TA.AperFunction,ComponentPad*%
%ADD15R,1.600000X1.600000*%
%TD*%
%TA.AperFunction,ComponentPad*%
%ADD16C,1.600000*%
%TD*%
%TA.AperFunction,ComponentPad*%
%ADD17R,1.700000X1.700000*%
%TD*%
%TA.AperFunction,ComponentPad*%
%ADD18C,1.700000*%
%TD*%
%TA.AperFunction,ViaPad*%
%ADD19C,0.600000*%
%TD*%
%TA.AperFunction,Conductor*%
%ADD20C,0.500000*%
%TD*%
%TA.AperFunction,Conductor*%
%ADD21C,0.250000*%
%TD*%
G04 APERTURE END LIST*
D10*
%TO.P,R17,1*%
%TO.N,Net-(R17-Pad1)*%
X135128000Y-84328000D03*
%TO.P,R17,2*%
%TO.N,Net-(R15-Pad1)*%
X135128000Y-87428000D03*
%TD*%
D11*
%TO.P,C1,1*%
%TO.N,VCC33*%
X138684000Y-68326000D03*
%TO.P,C1,2*%
%TO.N,GND*%
X141809000Y-68326000D03*
%TD*%
D12*
%TO.P,R24,1*%
%TO.N,Net-(R24-Pad1)*%
X151384000Y-80316000D03*
%TO.P,R24,2*%
%TO.N,Bb0*%
X151384000Y-77216000D03*
%TD*%
D10*
%TO.P,R7,1*%
%TO.N,AnalogR*%
X126492000Y-84328000D03*
%TO.P,R7,2*%
%TO.N,Net-(R3-Pad1)*%
X126492000Y-87428000D03*
%TD*%
D12*
%TO.P,R20,1*%
%TO.N,Net-(R19-Pad1)*%
X141514286Y-80316000D03*
%TO.P,R20,2*%
%TO.N,Gb2*%
X141514286Y-77216000D03*
%TD*%
%TO.P,R15,1*%
%TO.N,Net-(R15-Pad1)*%
X132950857Y-80316000D03*
%TO.P,R15,2*%
%TO.N,Gb0*%
X132950857Y-77216000D03*
%TD*%
D13*
%TO.P,U2,1,DIR*%
%TO.N,VCC33*%
X166370000Y-58928000D03*
%TO.P,U2,2,A1*%
%TO.N,VSync*%
X165100000Y-58928000D03*
%TO.P,U2,3,A2*%
%TO.N,HSync*%
X163830000Y-58928000D03*
%TO.P,U2,4,A3*%
%TO.N,B3*%
X162560000Y-58928000D03*
%TO.P,U2,5,A4*%
%TO.N,B2*%
X161290000Y-58928000D03*
%TO.P,U2,6,A5*%
%TO.N,B1*%
X160020000Y-58928000D03*
%TO.P,U2,7,A6*%
%TO.N,B0*%
X158750000Y-58928000D03*
%TO.P,U2,8,A7*%
%TO.N,GND*%
X157480000Y-58928000D03*
%TO.P,U2,9,A8*%
X156210000Y-58928000D03*
%TO.P,U2,10,GND*%
X154940000Y-58928000D03*
%TO.P,U2,11,B8*%
%TO.N,unconnected-(U2-B8-Pad11)*%
X154940000Y-68228000D03*
%TO.P,U2,12,B7*%
%TO.N,unconnected-(U2-B7-Pad12)*%
X156210000Y-68228000D03*
%TO.P,U2,13,B6*%
%TO.N,Bb0*%
X157480000Y-68228000D03*
%TO.P,U2,14,B5*%
%TO.N,Bb1*%
X158750000Y-68228000D03*
%TO.P,U2,15,B4*%
%TO.N,Bb2*%
X160020000Y-68228000D03*
%TO.P,U2,16,B3*%
%TO.N,Bb3*%
X161290000Y-68228000D03*
%TO.P,U2,17,B2*%
%TO.N,HSyncb*%
X162560000Y-68228000D03*
%TO.P,U2,18,B1*%
%TO.N,VSyncb*%
X163830000Y-68228000D03*
%TO.P,U2,19,~{OE}*%
%TO.N,GND*%
X165100000Y-68228000D03*
%TO.P,U2,20,VCC*%
%TO.N,VCC33*%
X166370000Y-68228000D03*
%TD*%
D12*
%TO.P,R25,1*%
%TO.N,GND*%
X155956000Y-94540000D03*
%TO.P,R25,2*%
%TO.N,Net-(R24-Pad1)*%
X155956000Y-91440000D03*
%TD*%
%TO.P,R32,1*%
%TO.N,GND*%
X160020000Y-94540000D03*
%TO.P,R32,2*%
%TO.N,AnalogB*%
X160020000Y-91440000D03*
%TD*%
D10*
%TO.P,R14,1*%
%TO.N,VSyncb*%
X172974000Y-84328000D03*
%TO.P,R14,2*%
%TO.N,Net-(J2-Pad14)*%
X172974000Y-87428000D03*
%TD*%
D12*
%TO.P,R8,1*%
%TO.N,GND*%
X120396000Y-94540000D03*
%TO.P,R8,2*%
%TO.N,Net-(R1-Pad1)*%
X120396000Y-91440000D03*
%TD*%
%TO.P,R22,1*%
%TO.N,AnalogG*%
X145796000Y-80316000D03*
%TO.P,R22,2*%
%TO.N,Gb3*%
X145796000Y-77216000D03*
%TD*%
%TO.P,R9,1*%
%TO.N,GND*%
X124460000Y-94540000D03*
%TO.P,R9,2*%
%TO.N,AnalogR*%
X124460000Y-91440000D03*
%TD*%
D10*
%TO.P,R6,1*%
%TO.N,Net-(R3-Pad1)*%
X122428000Y-84328000D03*
%TO.P,R6,2*%
%TO.N,Net-(R2-Pad1)*%
X122428000Y-87428000D03*
%TD*%
D14*
%TO.P,J2,0*%
%TO.N,GND*%
X132285000Y-101958669D03*
X157285000Y-101958669D03*
D15*
%TO.P,J2,1*%
%TO.N,AnalogR*%
X149100000Y-99418669D03*
D16*
%TO.P,J2,2*%
%TO.N,AnalogG*%
X146810000Y-99418669D03*
%TO.P,J2,3*%
%TO.N,AnalogB*%
X144520000Y-99418669D03*
%TO.P,J2,4*%
%TO.N,unconnected-(J2-Pad4)*%
X142230000Y-99418669D03*
%TO.P,J2,5*%
%TO.N,GND*%
X139940000Y-99418669D03*
%TO.P,J2,6*%
X150245000Y-101958669D03*
%TO.P,J2,7*%
X147955000Y-101958669D03*
%TO.P,J2,8*%
X145665000Y-101958669D03*
%TO.P,J2,9*%
%TO.N,unconnected-(J2-Pad9)*%
X143375000Y-101958669D03*
%TO.P,J2,10*%
%TO.N,GND*%
X141085000Y-101958669D03*
%TO.P,J2,11*%
%TO.N,unconnected-(J2-Pad11)*%
X149100000Y-104498669D03*
%TO.P,J2,12*%
%TO.N,unconnected-(J2-Pad12)*%
X146810000Y-104498669D03*
%TO.P,J2,13*%
%TO.N,Net-(J2-Pad13)*%
X144520000Y-104498669D03*
%TO.P,J2,14*%
%TO.N,Net-(J2-Pad14)*%
X142230000Y-104498669D03*
%TO.P,J2,15*%
%TO.N,unconnected-(J2-Pad15)*%
X139940000Y-104498669D03*
%TD*%
D12*
%TO.P,R29,1*%
%TO.N,Net-(R28-Pad1)*%
X159512000Y-80316000D03*
%TO.P,R29,2*%
%TO.N,Bb2*%
X159512000Y-77216000D03*
%TD*%
D13*
%TO.P,U1,1,DIR*%
%TO.N,VCC33*%
X135775000Y-58864000D03*
%TO.P,U1,2,A1*%
%TO.N,G3*%
X134505000Y-58864000D03*
%TO.P,U1,3,A2*%
%TO.N,G2*%
X133235000Y-58864000D03*
%TO.P,U1,4,A3*%
%TO.N,G1*%
X131965000Y-58864000D03*
%TO.P,U1,5,A4*%
%TO.N,G0*%
X130695000Y-58864000D03*
%TO.P,U1,6,A5*%
%TO.N,R3*%
X129425000Y-58864000D03*
%TO.P,U1,7,A6*%
%TO.N,R2*%
X128155000Y-58864000D03*
%TO.P,U1,8,A7*%
%TO.N,R1*%
X126885000Y-58864000D03*
%TO.P,U1,9,A8*%
%TO.N,R0*%
X125615000Y-58864000D03*
%TO.P,U1,10,GND*%
%TO.N,GND*%
X124345000Y-58864000D03*
%TO.P,U1,11,B8*%
%TO.N,Rb0*%
X124345000Y-68164000D03*
%TO.P,U1,12,B7*%
%TO.N,Rb1*%
X125615000Y-68164000D03*
%TO.P,U1,13,B6*%
%TO.N,Rb2*%
X126885000Y-68164000D03*
%TO.P,U1,14,B5*%
%TO.N,Rb3*%
X128155000Y-68164000D03*
%TO.P,U1,15,B4*%
%TO.N,Gb0*%
X129425000Y-68164000D03*
%TO.P,U1,16,B3*%
%TO.N,Gb1*%
X130695000Y-68164000D03*
%TO.P,U1,17,B2*%
%TO.N,Gb2*%
X131965000Y-68164000D03*
%TO.P,U1,18,B1*%
%TO.N,Gb3*%
X133235000Y-68164000D03*
%TO.P,U1,19,~{OE}*%
%TO.N,GND*%
X134505000Y-68164000D03*
%TO.P,U1,20,VCC*%
%TO.N,VCC33*%
X135775000Y-68164000D03*
%TD*%
D12*
%TO.P,R23,1*%
%TO.N,GND*%
X141224000Y-94540000D03*
%TO.P,R23,2*%
%TO.N,AnalogG*%
X141224000Y-91440000D03*
%TD*%
D10*
%TO.P,R5,1*%
%TO.N,Net-(R2-Pad1)*%
X118364000Y-84328000D03*
%TO.P,R5,2*%
%TO.N,Net-(R1-Pad1)*%
X118364000Y-87428000D03*
%TD*%
%TO.P,R26,1*%
%TO.N,Net-(R26-Pad1)*%
X153670000Y-84328000D03*
%TO.P,R26,2*%
%TO.N,Net-(R24-Pad1)*%
X153670000Y-87428000D03*
%TD*%
D12*
%TO.P,R31,1*%
%TO.N,AnalogB*%
X163576000Y-80316000D03*
%TO.P,R31,2*%
%TO.N,Bb3*%
X163576000Y-77216000D03*
%TD*%
%TO.P,R3,1*%
%TO.N,Net-(R3-Pad1)*%
X124387429Y-80316000D03*
%TO.P,R3,2*%
%TO.N,Rb2*%
X124387429Y-77216000D03*
%TD*%
D10*
%TO.P,R13,1*%
%TO.N,HSyncb*%
X169164000Y-84328000D03*
%TO.P,R13,2*%
%TO.N,Net-(J2-Pad13)*%
X169164000Y-87428000D03*
%TD*%
D12*
%TO.P,R1,1*%
%TO.N,Net-(R1-Pad1)*%
X115824000Y-80316000D03*
%TO.P,R1,2*%
%TO.N,Rb0*%
X115824000Y-77216000D03*
%TD*%
D10*
%TO.P,R19,1*%
%TO.N,Net-(R19-Pad1)*%
X139192000Y-84328000D03*
%TO.P,R19,2*%
%TO.N,Net-(R17-Pad1)*%
X139192000Y-87428000D03*
%TD*%
D12*
%TO.P,R18,1*%
%TO.N,Net-(R17-Pad1)*%
X137232571Y-80316000D03*
%TO.P,R18,2*%
%TO.N,Gb1*%
X137232571Y-77216000D03*
%TD*%
%TO.P,R16,1*%
%TO.N,GND*%
X137160000Y-94540000D03*
%TO.P,R16,2*%
%TO.N,Net-(R15-Pad1)*%
X137160000Y-91440000D03*
%TD*%
D17*
%TO.P,PMOD-B1,1,Pin_1*%
%TO.N,VCC33*%
X127762000Y-52040000D03*
D18*
%TO.P,PMOD-B1,2,Pin_2*%
X127762000Y-49500000D03*
%TO.P,PMOD-B1,3,Pin_3*%
%TO.N,GND*%
X130302000Y-52040000D03*
%TO.P,PMOD-B1,4,Pin_4*%
X130302000Y-49500000D03*
%TO.P,PMOD-B1,5,Pin_5*%
%TO.N,R0*%
X132842000Y-52040000D03*
%TO.P,PMOD-B1,6,Pin_6*%
%TO.N,R1*%
X132842000Y-49500000D03*
%TO.P,PMOD-B1,7,Pin_7*%
%TO.N,R2*%
X135382000Y-52040000D03*
%TO.P,PMOD-B1,8,Pin_8*%
%TO.N,R3*%
X135382000Y-49500000D03*
%TO.P,PMOD-B1,9,Pin_9*%
%TO.N,G0*%
X137922000Y-52040000D03*
%TO.P,PMOD-B1,10,Pin_10*%
%TO.N,G1*%
X137922000Y-49500000D03*
%TO.P,PMOD-B1,11,Pin_11*%
%TO.N,G2*%
X140462000Y-52040000D03*
%TO.P,PMOD-B1,12,Pin_12*%
%TO.N,G3*%
X140462000Y-49500000D03*
%TD*%
D12*
%TO.P,R4,1*%
%TO.N,AnalogR*%
X128669143Y-80316000D03*
%TO.P,R4,2*%
%TO.N,Rb3*%
X128669143Y-77216000D03*
%TD*%
D10*
%TO.P,R30,1*%
%TO.N,AnalogB*%
X162052000Y-84328000D03*
%TO.P,R30,2*%
%TO.N,Net-(R28-Pad1)*%
X162052000Y-87428000D03*
%TD*%
%TO.P,R21,1*%
%TO.N,AnalogG*%
X143256000Y-84328000D03*
%TO.P,R21,2*%
%TO.N,Net-(R19-Pad1)*%
X143256000Y-87428000D03*
%TD*%
D12*
%TO.P,R2,1*%
%TO.N,Net-(R2-Pad1)*%
X120105714Y-80316000D03*
%TO.P,R2,2*%
%TO.N,Rb1*%
X120105714Y-77216000D03*
%TD*%
D11*
%TO.P,C2,1*%
%TO.N,VCC33*%
X169291000Y-68453000D03*
%TO.P,C2,2*%
%TO.N,GND*%
X172416000Y-68453000D03*
%TD*%
D17*
%TO.P,PMOD-A1,1,Pin_1*%
%TO.N,VCC33*%
X150620000Y-52040000D03*
D18*
%TO.P,PMOD-A1,2,Pin_2*%
X150620000Y-49500000D03*
%TO.P,PMOD-A1,3,Pin_3*%
%TO.N,GND*%
X153160000Y-52040000D03*
%TO.P,PMOD-A1,4,Pin_4*%
X153160000Y-49500000D03*
%TO.P,PMOD-A1,5,Pin_5*%
%TO.N,B0*%
X155700000Y-52040000D03*
%TO.P,PMOD-A1,6,Pin_6*%
%TO.N,B1*%
X155700000Y-49500000D03*
%TO.P,PMOD-A1,7,Pin_7*%
%TO.N,B2*%
X158240000Y-52040000D03*
%TO.P,PMOD-A1,8,Pin_8*%
%TO.N,B3*%
X158240000Y-49500000D03*
%TO.P,PMOD-A1,9,Pin_9*%
%TO.N,HSync*%
X160780000Y-52040000D03*
%TO.P,PMOD-A1,10,Pin_10*%
%TO.N,VSync*%
X160780000Y-49500000D03*
%TO.P,PMOD-A1,11,Pin_11*%
%TO.N,unconnected-(PMOD-A1-Pin_11-Pad11)*%
X163320000Y-52040000D03*
%TO.P,PMOD-A1,12,Pin_12*%
%TO.N,unconnected-(PMOD-A1-Pin_12-Pad12)*%
X163320000Y-49500000D03*
%TD*%
D10*
%TO.P,R28,1*%
%TO.N,Net-(R28-Pad1)*%
X157988000Y-84328000D03*
%TO.P,R28,2*%
%TO.N,Net-(R26-Pad1)*%
X157988000Y-87428000D03*
%TD*%
D12*
%TO.P,R27,1*%
%TO.N,Net-(R26-Pad1)*%
X155448000Y-80316000D03*
%TO.P,R27,2*%
%TO.N,Bb1*%
X155448000Y-77216000D03*
%TD*%
D19*
%TO.N,VCC33*%
X169291000Y-70485000D03*
X138684000Y-70485000D03*
%TO.N,GND*%
X135147001Y-69830999D03*
X129133600Y-50546000D03*
%TO.N,AnalogB*%
X144520000Y-96774000D03*
%TO.N,AnalogG*%
X143002000Y-92202000D03*
%TO.N,G1*%
X132191742Y-57160142D03*
%TO.N,G3*%
X139192000Y-50800000D03*
X135213481Y-57337081D03*
%TO.N,R3*%
X129413000Y-57132116D03*
%TO.N,R1*%
X126885000Y-57200800D03*
%TO.N,B1*%
X159639000Y-56769000D03*
%TO.N,B3*%
X162052000Y-56896000D03*
%TO.N,VSync*%
X164782500Y-56959500D03*
%TD*%
D20*
%TO.N,VCC33*%
X150620000Y-49500000D02*
X150620000Y-47498000D01*
D21*
X150590000Y-49500000D02*
X150592000Y-49500000D01*
D20*
X166370000Y-68228000D02*
X166370000Y-58928000D01*
D21*
X135902000Y-68037000D02*
X135775000Y-68164000D01*
X150620000Y-52040000D02*
X150846000Y-52040000D01*
D20*
X127762000Y-49500000D02*
X127762000Y-52040000D01*
X150620000Y-47498000D02*
X166370000Y-47498000D01*
D21*
X135636000Y-59003000D02*
X135775000Y-58864000D01*
D20*
X169291000Y-70485000D02*
X169291000Y-68453000D01*
X135775000Y-68164000D02*
X138522000Y-68164000D01*
D21*
X150590000Y-52040000D02*
X150590000Y-52546000D01*
D20*
X135775000Y-68164000D02*
X135775000Y-58864000D01*
X138684000Y-68326000D02*
X138684000Y-70485000D01*
X138522000Y-68164000D02*
X138684000Y-68326000D01*
D21*
X150620000Y-49500000D02*
X151100000Y-49500000D01*
D20*
X166370000Y-47498000D02*
X166370000Y-58928000D01*
D21*
X150700000Y-49500000D02*
X150700000Y-49608000D01*
X150620000Y-49500000D02*
X150642800Y-49500000D01*
X150700000Y-49500000D02*
X151100000Y-49500000D01*
D20*
X166370000Y-68228000D02*
X169066000Y-68228000D01*
X169066000Y-68228000D02*
X169291000Y-68453000D01*
D21*
%TO.N,GND*%
X135147001Y-69830999D02*
X134505000Y-69188999D01*
X134505000Y-69188999D02*
X134505000Y-68164000D01*
X129133600Y-50546000D02*
X129489200Y-50546000D01*
X153160000Y-49500000D02*
X153160000Y-49528000D01*
X130302000Y-49733200D02*
X130302000Y-49500000D01*
X130302000Y-52040000D02*
X130302000Y-51968400D01*
X130302000Y-52040000D02*
X130302000Y-51765200D01*
X153240000Y-49500000D02*
X153240000Y-49608000D01*
X129489200Y-50546000D02*
X130302000Y-49733200D01*
X130302000Y-52040000D02*
X130302000Y-52273200D01*
%TO.N,AnalogR*%
X126746000Y-91440000D02*
X124460000Y-91440000D01*
X128524000Y-85090000D02*
X128524000Y-89662000D01*
X128524000Y-89662000D02*
X126746000Y-91440000D01*
X124460000Y-91440000D02*
X124460000Y-91948000D01*
X124460000Y-91567000D02*
X130683000Y-97790000D01*
X147471331Y-97790000D02*
X149100000Y-99418669D01*
X127000000Y-84328000D02*
X128669143Y-82658857D01*
X126492000Y-84328000D02*
X127762000Y-84328000D01*
X130683000Y-97790000D02*
X147471331Y-97790000D01*
X127762000Y-84328000D02*
X128524000Y-85090000D01*
X128669143Y-82658857D02*
X128669143Y-80316000D01*
X124460000Y-91440000D02*
X124460000Y-91567000D01*
X126492000Y-84328000D02*
X127000000Y-84328000D01*
%TO.N,Net-(J2-Pad13)*%
X158038800Y-106121200D02*
X146142531Y-106121200D01*
X169164000Y-94996000D02*
X158038800Y-106121200D01*
X146142531Y-106121200D02*
X144520000Y-104498669D01*
X169164000Y-87428000D02*
X169164000Y-94996000D01*
%TO.N,Net-(J2-Pad14)*%
X172974000Y-94234000D02*
X172974000Y-87428000D01*
X144462131Y-106730800D02*
X160477200Y-106730800D01*
X160477200Y-106730800D02*
X172974000Y-94234000D01*
X142230000Y-104498669D02*
X144462131Y-106730800D01*
%TO.N,AnalogB*%
X163322000Y-84328000D02*
X164084000Y-85090000D01*
X158750000Y-92710000D02*
X160020000Y-91440000D01*
X164084000Y-85090000D02*
X164084000Y-89662000D01*
X144520000Y-96774000D02*
X144520000Y-96272000D01*
X163576000Y-80316000D02*
X163576000Y-82804000D01*
X163576000Y-82804000D02*
X162052000Y-84328000D01*
X164084000Y-89662000D02*
X162306000Y-91440000D01*
X162052000Y-84328000D02*
X163322000Y-84328000D01*
X162306000Y-91440000D02*
X160020000Y-91440000D01*
X148082000Y-92710000D02*
X158750000Y-92710000D01*
X144520000Y-96272000D02*
X148082000Y-92710000D01*
%TO.N,AnalogG*%
X144272000Y-84328000D02*
X145796000Y-82804000D01*
X143002000Y-92202000D02*
X141986000Y-92202000D01*
X144526000Y-84328000D02*
X145288000Y-85090000D01*
X145288000Y-85090000D02*
X145288000Y-89662000D01*
X143256000Y-84328000D02*
X144272000Y-84328000D01*
X143510000Y-91440000D02*
X141224000Y-91440000D01*
X145796000Y-82804000D02*
X145796000Y-80316000D01*
X145288000Y-89662000D02*
X143510000Y-91440000D01*
X141986000Y-92202000D02*
X141224000Y-91440000D01*
X143256000Y-84328000D02*
X144526000Y-84328000D01*
%TO.N,R2*%
X135382000Y-52040000D02*
X134523000Y-52040000D01*
X128155000Y-56249000D02*
X128155000Y-58864000D01*
X129032000Y-55372000D02*
X128155000Y-56249000D01*
X131191000Y-55372000D02*
X129032000Y-55372000D01*
X128282000Y-58737000D02*
X128155000Y-58864000D01*
X134523000Y-52040000D02*
X131191000Y-55372000D01*
%TO.N,G1*%
X132191742Y-57160142D02*
X131927600Y-57424284D01*
X137922000Y-49500000D02*
X137922000Y-49530000D01*
X131927600Y-57424284D02*
X131927600Y-58826600D01*
X131927600Y-58826600D02*
X131965000Y-58864000D01*
%TO.N,G3*%
X140462000Y-49530000D02*
X139192000Y-50800000D01*
X134505000Y-58045562D02*
X134505000Y-58864000D01*
X135213481Y-57337081D02*
X134505000Y-58045562D01*
X140462000Y-49500000D02*
X140462000Y-49530000D01*
%TO.N,R3*%
X129413000Y-57132116D02*
X129413000Y-58033562D01*
X135382000Y-49530000D02*
X135382000Y-49500000D01*
X129425000Y-58045562D02*
X129425000Y-58864000D01*
X129413000Y-58033562D02*
X129425000Y-58045562D01*
%TO.N,R1*%
X132842000Y-49500000D02*
X132842000Y-49530000D01*
X126885000Y-57200800D02*
X126885000Y-58864000D01*
X127000000Y-58749000D02*
X126885000Y-58864000D01*
X132842000Y-49022000D02*
X132842000Y-49500000D01*
%TO.N,G2*%
X140462000Y-52040000D02*
X140462000Y-53594000D01*
X133235000Y-58027000D02*
X133235000Y-58864000D01*
X140462000Y-53594000D02*
X139192000Y-54864000D01*
X133235000Y-59479000D02*
X133235000Y-58864000D01*
X136398000Y-54864000D02*
X133235000Y-58027000D01*
X139192000Y-54864000D02*
X136398000Y-54864000D01*
%TO.N,R0*%
X125742000Y-58737000D02*
X125615000Y-58864000D01*
X130399000Y-54483000D02*
X126873000Y-54483000D01*
X132842000Y-52040000D02*
X130399000Y-54483000D01*
X125615000Y-55741000D02*
X125615000Y-58864000D01*
X126873000Y-54483000D02*
X125615000Y-55741000D01*
%TO.N,G0*%
X130695000Y-56909400D02*
X130695000Y-58864000D01*
X137922000Y-53048032D02*
X137122032Y-53848000D01*
X137122032Y-53848000D02*
X133756400Y-53848000D01*
X137922000Y-52040000D02*
X137922000Y-53048032D01*
X133756400Y-53848000D02*
X130695000Y-56909400D01*
%TO.N,B2*%
X158240000Y-52040000D02*
X158763972Y-52040000D01*
X158210000Y-52040000D02*
X158210000Y-52546000D01*
X161290000Y-55090000D02*
X161290000Y-58928000D01*
X161302000Y-58082000D02*
X161302000Y-58942000D01*
X158240000Y-52040000D02*
X161290000Y-55090000D01*
%TO.N,B1*%
X160020000Y-57150000D02*
X160020000Y-58928000D01*
X159639000Y-56769000D02*
X160020000Y-57150000D01*
%TO.N,B3*%
X158240000Y-49500000D02*
X158240000Y-49528000D01*
X162560000Y-57404000D02*
X162560000Y-58928000D01*
X162052000Y-56896000D02*
X162560000Y-57404000D01*
X158210000Y-49500000D02*
X158212000Y-49500000D01*
X158320000Y-49500000D02*
X158320000Y-49608000D01*
%TO.N,HSync*%
X160780000Y-52040000D02*
X163830000Y-55090000D01*
X163830000Y-55090000D02*
X163830000Y-58928000D01*
%TO.N,B0*%
X158750000Y-55090000D02*
X158750000Y-58928000D01*
X155700000Y-52040000D02*
X158750000Y-55090000D01*
%TO.N,VSync*%
X164782500Y-56959500D02*
X165100000Y-57277000D01*
X165100000Y-57277000D02*
X165100000Y-58928000D01*
%TO.N,Rb3*%
X128155000Y-76701857D02*
X128669143Y-77216000D01*
X128155000Y-68164000D02*
X128155000Y-76701857D01*
%TO.N,Rb2*%
X124387429Y-74240571D02*
X124387429Y-77216000D01*
X126885000Y-71743000D02*
X124387429Y-74240571D01*
X124460000Y-77143429D02*
X124387429Y-77216000D01*
X126885000Y-68164000D02*
X126885000Y-71743000D01*
%TO.N,Rb1*%
X125615000Y-69457000D02*
X120105714Y-74966286D01*
X120105714Y-74966286D02*
X120105714Y-77216000D01*
X125615000Y-68164000D02*
X125615000Y-69457000D01*
%TO.N,Rb0*%
X115824000Y-76685000D02*
X115824000Y-77216000D01*
X124345000Y-68164000D02*
X115824000Y-76685000D01*
%TO.N,Bb3*%
X161290000Y-74930000D02*
X163576000Y-77216000D01*
X161290000Y-68228000D02*
X161290000Y-74930000D01*
%TO.N,Bb2*%
X160020000Y-68228000D02*
X160020000Y-76708000D01*
X160020000Y-76708000D02*
X159512000Y-77216000D01*
%TO.N,Bb1*%
X158750000Y-68228000D02*
X158750000Y-73914000D01*
X158750000Y-73914000D02*
X155448000Y-77216000D01*
%TO.N,Bb0*%
X157480000Y-71120000D02*
X151384000Y-77216000D01*
X157480000Y-68228000D02*
X157480000Y-71120000D01*
%TO.N,Gb3*%
X138982400Y-74676000D02*
X144272000Y-74676000D01*
X133235000Y-68164000D02*
X133235000Y-68928600D01*
X145796000Y-76200000D02*
X145796000Y-77216000D01*
X133235000Y-68928600D02*
X138982400Y-74676000D01*
X144272000Y-74676000D02*
X145796000Y-76200000D01*
%TO.N,Gb2*%
X131965000Y-68164000D02*
X131965000Y-69531800D01*
X131965000Y-69531800D02*
X139649200Y-77216000D01*
X139649200Y-77216000D02*
X141514286Y-77216000D01*
%TO.N,Gb1*%
X136144000Y-77216000D02*
X137232571Y-77216000D01*
X130695000Y-71767000D02*
X136144000Y-77216000D01*
X130695000Y-68164000D02*
X130695000Y-71767000D01*
%TO.N,Gb0*%
X131978400Y-77216000D02*
X132950857Y-77216000D01*
X129425000Y-68164000D02*
X129425000Y-74662600D01*
X129425000Y-74662600D02*
X131978400Y-77216000D01*
%TO.N,HSyncb*%
X162560000Y-72644000D02*
X169164000Y-79248000D01*
X169164000Y-79248000D02*
X169164000Y-84328000D01*
X162560000Y-68228000D02*
X162560000Y-72644000D01*
%TO.N,VSyncb*%
X172974000Y-84328000D02*
X172974000Y-81026000D01*
X172974000Y-81026000D02*
X163830000Y-71882000D01*
X163830000Y-71882000D02*
X163830000Y-68228000D01*
%TO.N,Net-(R1-Pad1)*%
X115824000Y-80316000D02*
X115824000Y-85852000D01*
X118364000Y-87428000D02*
X118364000Y-89408000D01*
X115824000Y-85852000D02*
X117400000Y-87428000D01*
X117400000Y-87428000D02*
X118364000Y-87428000D01*
X118364000Y-89408000D02*
X120396000Y-91440000D01*
%TO.N,Net-(R2-Pad1)*%
X120105714Y-82586286D02*
X118364000Y-84328000D01*
X120105714Y-80316000D02*
X120105714Y-82586286D01*
X122428000Y-87376000D02*
X122428000Y-87428000D01*
X119380000Y-84328000D02*
X122428000Y-87376000D01*
X118364000Y-84328000D02*
X119380000Y-84328000D01*
%TO.N,Net-(R3-Pad1)*%
X124387429Y-80316000D02*
X124387429Y-82368571D01*
X124387429Y-82368571D02*
X122428000Y-84328000D01*
X123444000Y-84328000D02*
X126492000Y-87376000D01*
X122428000Y-84328000D02*
X123444000Y-84328000D01*
X126492000Y-87376000D02*
X126492000Y-87428000D01*
%TO.N,Net-(R15-Pad1)*%
X135128000Y-89408000D02*
X137160000Y-91440000D01*
X132950857Y-80316000D02*
X132950857Y-86214857D01*
X132950857Y-86214857D02*
X134164000Y-87428000D01*
X134164000Y-87428000D02*
X135128000Y-87428000D01*
X135128000Y-87428000D02*
X135128000Y-89408000D01*
%TO.N,Net-(R17-Pad1)*%
X135128000Y-84328000D02*
X136092000Y-84328000D01*
X135128000Y-84328000D02*
X137232571Y-82223429D01*
X136092000Y-84328000D02*
X139192000Y-87428000D01*
X137232571Y-82223429D02*
X137232571Y-80316000D01*
%TO.N,Net-(R19-Pad1)*%
X139192000Y-84328000D02*
X139446000Y-84328000D01*
X141514286Y-82259714D02*
X141514286Y-80316000D01*
X139446000Y-84328000D02*
X141514286Y-82259714D01*
X139192000Y-84328000D02*
X140156000Y-84328000D01*
X140156000Y-84328000D02*
X143256000Y-87428000D01*
%TO.N,Net-(R24-Pad1)*%
X151384000Y-80316000D02*
X151384000Y-86106000D01*
X153670000Y-89154000D02*
X155956000Y-91440000D01*
X152960000Y-87428000D02*
X153416000Y-87428000D01*
X151384000Y-86106000D02*
X152706000Y-87428000D01*
X152706000Y-87428000D02*
X153670000Y-87428000D01*
X153670000Y-87428000D02*
X153670000Y-89154000D01*
%TO.N,Net-(R26-Pad1)*%
X155448000Y-80316000D02*
X155448000Y-82550000D01*
X154888000Y-84328000D02*
X157988000Y-87428000D01*
X153670000Y-84328000D02*
X154888000Y-84328000D01*
X155448000Y-82550000D02*
X153670000Y-84328000D01*
%TO.N,Net-(R28-Pad1)*%
X159004000Y-84328000D02*
X159004000Y-84380000D01*
X159512000Y-80316000D02*
X159512000Y-82804000D01*
X159004000Y-84380000D02*
X162052000Y-87428000D01*
X159512000Y-82804000D02*
X157988000Y-84328000D01*
X157988000Y-84328000D02*
X159004000Y-84328000D01*
%TD*%
%TA.AperFunction,Conductor*%
%TO.N,GND*%
G36*
X145199075Y-102151662D02*
G01*
X145264901Y-102265676D01*
X145357993Y-102358768D01*
X145472007Y-102424594D01*
X145535590Y-102441631D01*
X144939076Y-103038143D01*
X144943486Y-103094179D01*
X144929121Y-103162556D01*
X144880069Y-103212313D01*
X144811904Y-103227651D01*
X144800470Y-103226380D01*
X144660803Y-103204259D01*
X144622352Y-103198169D01*
X144417648Y-103198169D01*
X144242197Y-103225957D01*
X144172904Y-103217002D01*
X144119452Y-103172006D01*
X144098813Y-103105254D01*
X144117538Y-103037941D01*
X144149913Y-103003167D01*
X144222219Y-102950635D01*
X144366966Y-102805888D01*
X144421330Y-102731061D01*
X144476657Y-102688397D01*
X144531376Y-102680329D01*
X144585525Y-102684590D01*
X145182037Y-102088078D01*
X145199075Y-102151662D01*
G37*
%TD.AperFunction*%
%TA.AperFunction,Conductor*%
G36*
X147489075Y-102151662D02*
G01*
X147554901Y-102265676D01*
X147647993Y-102358768D01*
X147762007Y-102424594D01*
X147825590Y-102441631D01*
X147229076Y-103038143D01*
X147233486Y-103094179D01*
X147219121Y-103162556D01*
X147170069Y-103212313D01*
X147101904Y-103227651D01*
X147090470Y-103226380D01*
X146950803Y-103204259D01*
X146912352Y-103198169D01*
X146707648Y-103198169D01*
X146529526Y-103226380D01*
X146460233Y-103217425D01*
X146406781Y-103172429D01*
X146386142Y-103105677D01*
X146386511Y-103094177D01*
X146390921Y-103038142D01*
X145794409Y-102441631D01*
X145857993Y-102424594D01*
X145972007Y-102358768D01*
X146065099Y-102265676D01*
X146130925Y-102151662D01*
X146147962Y-102088079D01*
X146744473Y-102684590D01*
X146800268Y-102680199D01*
X146819728Y-102680199D01*
X146875525Y-102684590D01*
X147472037Y-102088078D01*
X147489075Y-102151662D01*
G37*
%TD.AperFunction*%
%TA.AperFunction,Conductor*%
G36*
X149779075Y-102151662D02*
G01*
X149844901Y-102265676D01*
X149937993Y-102358768D01*
X150052007Y-102424594D01*
X150115590Y-102441631D01*
X149519076Y-103038143D01*
X149523486Y-103094179D01*
X149509121Y-103162556D01*
X149460069Y-103212313D01*
X149391904Y-103227651D01*
X149380470Y-103226380D01*
X149240803Y-103204259D01*
X149202352Y-103198169D01*
X148997648Y-103198169D01*
X148819526Y-103226380D01*
X148750233Y-103217425D01*
X148696781Y-103172429D01*
X148676142Y-103105677D01*
X148676511Y-103094177D01*
X148680921Y-103038142D01*
X148084409Y-102441631D01*
X148147993Y-102424594D01*
X148262007Y-102358768D01*
X148355099Y-102265676D01*
X148420925Y-102151662D01*
X148437962Y-102088079D01*
X149034473Y-102684590D01*
X149090268Y-102680199D01*
X149109728Y-102680199D01*
X149165525Y-102684590D01*
X149762037Y-102088078D01*
X149779075Y-102151662D01*
G37*
%TD.AperFunction*%
%TA.AperFunction,Conductor*%
G36*
X142164473Y-102684590D02*
G01*
X142218622Y-102680329D01*
X142286999Y-102694693D01*
X142328669Y-102731062D01*
X142383028Y-102805881D01*
X142383032Y-102805886D01*
X142527784Y-102950638D01*
X142600083Y-103003165D01*
X142642750Y-103058495D01*
X142648729Y-103128108D01*
X142616124Y-103189903D01*
X142555286Y-103224261D01*
X142507801Y-103225957D01*
X142360174Y-103202575D01*
X142332352Y-103198169D01*
X142127648Y-103198169D01*
X141949526Y-103226380D01*
X141880233Y-103217425D01*
X141826781Y-103172429D01*
X141806142Y-103105677D01*
X141806511Y-103094177D01*
X141810921Y-103038142D01*
X141214409Y-102441631D01*
X141277993Y-102424594D01*
X141392007Y-102358768D01*
X141485099Y-102265676D01*
X141550925Y-102151662D01*
X141567962Y-102088078D01*
X142164473Y-102684590D01*
G37*
%TD.AperFunction*%
%TA.AperFunction,Conductor*%
G36*
X144869764Y-100699911D02*
G01*
X144923216Y-100744907D01*
X144943856Y-100811659D01*
X144943487Y-100823159D01*
X144939077Y-100879192D01*
X145535591Y-101475706D01*
X145472007Y-101492744D01*
X145357993Y-101558570D01*
X145264901Y-101651662D01*
X145199075Y-101765676D01*
X145182037Y-101829259D01*
X144585524Y-101232746D01*
X144531377Y-101237008D01*
X144463000Y-101222644D01*
X144421330Y-101186275D01*
X144366971Y-101111455D01*
X144222219Y-100966703D01*
X144152898Y-100916339D01*
X144149914Y-100914170D01*
X144107249Y-100858842D01*
X144101270Y-100789229D01*
X144133875Y-100727433D01*
X144194713Y-100693076D01*
X144242198Y-100691380D01*
X144417648Y-100719169D01*
X144417649Y-100719169D01*
X144622351Y-100719169D01*
X144622352Y-100719169D01*
X144800471Y-100690957D01*
X144869764Y-100699911D01*
G37*
%TD.AperFunction*%
%TA.AperFunction,Conductor*%
G36*
X146529525Y-100690956D02*
G01*
X146707648Y-100719169D01*
X146707649Y-100719169D01*
X146912351Y-100719169D01*
X146912352Y-100719169D01*
X147090471Y-100690957D01*
X147159764Y-100699911D01*
X147213216Y-100744907D01*
X147233856Y-100811659D01*
X147233487Y-100823159D01*
X147229077Y-100879192D01*
X147825591Y-101475706D01*
X147762007Y-101492744D01*
X147647993Y-101558570D01*
X147554901Y-101651662D01*
X147489075Y-101765676D01*
X147472037Y-101829259D01*
X146875524Y-101232746D01*
X146819733Y-101237137D01*
X146800276Y-101237137D01*
X146744474Y-101232745D01*
X146147962Y-101829258D01*
X146130925Y-101765676D01*
X146065099Y-101651662D01*
X145972007Y-101558570D01*
X145857993Y-101492744D01*
X145794408Y-101475706D01*
X146390921Y-100879193D01*
X146386512Y-100823159D01*
X146400876Y-100754782D01*
X146449928Y-100705025D01*
X146518093Y-100689686D01*
X146529525Y-100690956D01*
G37*
%TD.AperFunction*%
%TA.AperFunction,Conductor*%
G36*
X149464568Y-100738853D02*
G01*
X149510323Y-100791657D01*
X149521147Y-100852898D01*
X149519077Y-100879193D01*
X150115591Y-101475706D01*
X150052007Y-101492744D01*
X149937993Y-101558570D01*
X149844901Y-101651662D01*
X149779075Y-101765676D01*
X149762037Y-101829259D01*
X149165524Y-101232746D01*
X149109733Y-101237137D01*
X149090276Y-101237137D01*
X149034474Y-101232745D01*
X148437962Y-101829258D01*
X148420925Y-101765676D01*
X148355099Y-101651662D01*
X148262007Y-101558570D01*
X148147993Y-101492744D01*
X148084408Y-101475706D01*
X148680922Y-100879193D01*
X148678853Y-100852896D01*
X148693218Y-100784519D01*
X148742269Y-100734762D01*
X148802468Y-100719168D01*
X149397530Y-100719168D01*
X149464568Y-100738853D01*
G37*
%TD.AperFunction*%
%TA.AperFunction,Conductor*%
G36*
X141949525Y-100690956D02*
G01*
X142127648Y-100719169D01*
X142127649Y-100719169D01*
X142332351Y-100719169D01*
X142332352Y-100719169D01*
X142507801Y-100691380D01*
X142577094Y-100700334D01*
X142630546Y-100745331D01*
X142651186Y-100812082D01*
X142632461Y-100879396D01*
X142600084Y-100914171D01*
X142527787Y-100966697D01*
X142527782Y-100966701D01*
X142383032Y-101111451D01*
X142383028Y-101111456D01*
X142328670Y-101186274D01*
X142273340Y-101228940D01*
X142218624Y-101237007D01*
X142164474Y-101232745D01*
X141567962Y-101829258D01*
X141550925Y-101765676D01*
X141485099Y-101651662D01*
X141392007Y-101558570D01*
X141277993Y-101492744D01*
X141214408Y-101475706D01*
X141810921Y-100879193D01*
X141806512Y-100823159D01*
X141820876Y-100754782D01*
X141869928Y-100705025D01*
X141938093Y-100689686D01*
X141949525Y-100690956D01*
G37*
%TD.AperFunction*%
%TA.AperFunction,Conductor*%
G36*
X141019473Y-100144590D02*
G01*
X141073622Y-100140329D01*
X141141999Y-100154693D01*
X141183669Y-100191062D01*
X141238028Y-100265881D01*
X141238032Y-100265886D01*
X141382782Y-100410636D01*
X141382787Y-100410640D01*
X141455973Y-100463813D01*
X141498639Y-100519143D01*
X141504618Y-100588756D01*
X141472012Y-100650551D01*
X141411174Y-100684908D01*
X141363690Y-100686604D01*
X141187317Y-100658669D01*
X140982683Y-100658669D01*
X140804487Y-100686892D01*
X140735193Y-100677937D01*
X140681741Y-100632941D01*
X140661102Y-100566189D01*
X140661471Y-100554689D01*
X140665921Y-100498142D01*
X140069409Y-99901631D01*
X140132993Y-99884594D01*
X140247007Y-99818768D01*
X140340099Y-99725676D01*
X140405925Y-99611662D01*
X140422962Y-99548078D01*
X141019473Y-100144590D01*
G37*
%TD.AperFunction*%
%TA.AperFunction,Conductor*%
G36*
X129836075Y-49692993D02*
G01*
X129901901Y-49807007D01*
X129994993Y-49900099D01*
X130109007Y-49965925D01*
X130172590Y-49982962D01*
X129540282Y-50615269D01*
X129540282Y-50615270D01*
X129594452Y-50654626D01*
X129604048Y-50659516D01*
X129654844Y-50707491D01*
X129671638Y-50775312D01*
X129649100Y-50841447D01*
X129604051Y-50880483D01*
X129594440Y-50885380D01*
X129540282Y-50924727D01*
X129540282Y-50924728D01*
X130172591Y-51557037D01*
X130109007Y-51574075D01*
X129994993Y-51639901D01*
X129901901Y-51732993D01*
X129836075Y-51847007D01*
X129819037Y-51910591D01*
X129148818Y-51240372D01*
X129115333Y-51179049D01*
X129112499Y-51152691D01*
X129112499Y-51142129D01*
X129112498Y-51142123D01*
X129112497Y-51142116D01*
X129106091Y-51082517D01*
X129055796Y-50947669D01*
X129055795Y-50947668D01*
X129055793Y-50947664D01*
X128969547Y-50832455D01*
X128969544Y-50832452D01*
X128854335Y-50746206D01*
X128854328Y-50746202D01*
X128722917Y-50697189D01*
X128722916Y-50697189D01*
X128698970Y-50679263D01*
X128666983Y-50655318D01*
X128642566Y-50589853D01*
X128657418Y-50521580D01*
X128678566Y-50493329D01*
X128792104Y-50379792D01*
X128917051Y-50207816D01*
X128921793Y-50198508D01*
X128969763Y-50147711D01*
X129037583Y-50130911D01*
X129103719Y-50153445D01*
X129142763Y-50198500D01*
X129147373Y-50207547D01*
X129186728Y-50261716D01*
X129819037Y-49629408D01*
X129836075Y-49692993D01*
G37*
%TD.AperFunction*%
%TA.AperFunction,Conductor*%
G36*
X131417270Y-50261717D02*
G01*
X131417270Y-50261716D01*
X131456622Y-50207555D01*
X131461232Y-50198507D01*
X131509205Y-50147709D01*
X131577025Y-50130912D01*
X131643161Y-50153447D01*
X131682204Y-50198504D01*
X131686949Y-50207817D01*
X131811890Y-50379786D01*
X131962213Y-50530109D01*
X132134182Y-50655050D01*
X132142946Y-50659516D01*
X132193742Y-50707491D01*
X132210536Y-50775312D01*
X132187998Y-50841447D01*
X132142946Y-50880484D01*
X132134182Y-50884949D01*
X131962213Y-51009890D01*
X131811890Y-51160213D01*
X131686949Y-51332182D01*
X131682202Y-51341499D01*
X131634227Y-51392293D01*
X131566405Y-51409087D01*
X131500271Y-51386548D01*
X131461234Y-51341495D01*
X131456626Y-51332452D01*
X131417270Y-51278282D01*
X131417269Y-51278282D01*
X130784962Y-51910590D01*
X130767925Y-51847007D01*
X130702099Y-51732993D01*
X130609007Y-51639901D01*
X130494993Y-51574075D01*
X130431409Y-51557037D01*
X131063716Y-50924728D01*
X131009550Y-50885375D01*
X130999954Y-50880486D01*
X130949157Y-50832512D01*
X130932361Y-50764692D01*
X130954897Y-50698556D01*
X130999954Y-50659514D01*
X131009554Y-50654622D01*
X131063716Y-50615270D01*
X131063717Y-50615270D01*
X130431408Y-49982962D01*
X130494993Y-49965925D01*
X130609007Y-49900099D01*
X130702099Y-49807007D01*
X130767925Y-49692993D01*
X130784962Y-49629408D01*
X131417270Y-50261717D01*
G37*
%TD.AperFunction*%
%TA.AperFunction,Conductor*%
G36*
X152694075Y-49692993D02*
G01*
X152759901Y-49807007D01*
X152852993Y-49900099D01*
X152967007Y-49965925D01*
X153030590Y-49982962D01*
X152398282Y-50615269D01*
X152398282Y-50615270D01*
X152452452Y-50654626D01*
X152462048Y-50659516D01*
X152512844Y-50707491D01*
X152529638Y-50775312D01*
X152507100Y-50841447D01*
X152462051Y-50880483D01*
X152452440Y-50885380D01*
X152398282Y-50924727D01*
X152398282Y-50924728D01*
X153030591Y-51557037D01*
X152967007Y-51574075D01*
X152852993Y-51639901D01*
X152759901Y-51732993D01*
X152694075Y-51847007D01*
X152677037Y-51910591D01*
X152006818Y-51240372D01*
X151973333Y-51179049D01*
X151970499Y-51152691D01*
X151970499Y-51142129D01*
X151970498Y-51142123D01*
X151970497Y-51142116D01*
X151964091Y-51082517D01*
X151913796Y-50947669D01*
X151913795Y-50947668D01*
X151913793Y-50947664D01*
X151827547Y-50832455D01*
X151827544Y-50832452D01*
X151712335Y-50746206D01*
X151712328Y-50746202D01*
X151580917Y-50697189D01*
X151580916Y-50697189D01*
X151556970Y-50679263D01*
X151524983Y-50655318D01*
X151500566Y-50589853D01*
X151515418Y-50521580D01*
X151536566Y-50493329D01*
X151650104Y-50379792D01*
X151775051Y-50207816D01*
X151779793Y-50198508D01*
X151827763Y-50147711D01*
X151895583Y-50130911D01*
X151961719Y-50153445D01*
X152000763Y-50198500D01*
X152005373Y-50207547D01*
X152044728Y-50261716D01*
X152677037Y-49629408D01*
X152694075Y-49692993D01*
G37*
%TD.AperFunction*%
%TA.AperFunction,Conductor*%
G36*
X154275270Y-50261717D02*
G01*
X154275270Y-50261716D01*
X154314622Y-50207555D01*
X154319232Y-50198507D01*
X154367205Y-50147709D01*
X154435025Y-50130912D01*
X154501161Y-50153447D01*
X154540204Y-50198504D01*
X154544949Y-50207817D01*
X154669890Y-50379786D01*
X154820213Y-50530109D01*
X154992182Y-50655050D01*
X155000946Y-50659516D01*
X155051742Y-50707491D01*
X155068536Y-50775312D01*
X155045998Y-50841447D01*
X155000946Y-50880484D01*
X154992182Y-50884949D01*
X154820213Y-51009890D01*
X154669890Y-51160213D01*
X154544949Y-51332182D01*
X154540202Y-51341499D01*
X154492227Y-51392293D01*
X154424405Y-51409087D01*
X154358271Y-51386548D01*
X154319234Y-51341495D01*
X154314626Y-51332452D01*
X154275270Y-51278282D01*
X154275269Y-51278282D01*
X153642962Y-51910590D01*
X153625925Y-51847007D01*
X153560099Y-51732993D01*
X153467007Y-51639901D01*
X153352993Y-51574075D01*
X153289409Y-51557037D01*
X153921716Y-50924728D01*
X153867550Y-50885375D01*
X153857954Y-50880486D01*
X153807157Y-50832512D01*
X153790361Y-50764692D01*
X153812897Y-50698556D01*
X153857954Y-50659514D01*
X153867554Y-50654622D01*
X153921716Y-50615270D01*
X153921717Y-50615270D01*
X153289408Y-49982962D01*
X153352993Y-49965925D01*
X153467007Y-49900099D01*
X153560099Y-49807007D01*
X153625925Y-49692993D01*
X153642962Y-49629408D01*
X154275270Y-50261717D01*
G37*
%TD.AperFunction*%
%TA.AperFunction,Conductor*%
G36*
X152341900Y-48268185D02*
G01*
X152387655Y-48320989D01*
X152398479Y-48382229D01*
X152398282Y-48384728D01*
X153030591Y-49017037D01*
X152967007Y-49034075D01*
X152852993Y-49099901D01*
X152759901Y-49192993D01*
X152694075Y-49307007D01*
X152677037Y-49370591D01*
X152044728Y-48738282D01*
X152044727Y-48738282D01*
X152005380Y-48792440D01*
X152005376Y-48792446D01*
X152000760Y-48801505D01*
X151952781Y-48852297D01*
X151884959Y-48869087D01*
X151818826Y-48846543D01*
X151779794Y-48801493D01*
X151775051Y-48792184D01*
X151775049Y-48792181D01*
X151775048Y-48792179D01*
X151650109Y-48620213D01*
X151499793Y-48469897D01*
X151496154Y-48466789D01*
X151457962Y-48408282D01*
X151457464Y-48338414D01*
X151494819Y-48279368D01*
X151558166Y-48249891D01*
X151576687Y-48248500D01*
X152274861Y-48248500D01*
X152341900Y-48268185D01*
G37*
%TD.AperFunction*%
%TA.AperFunction,Conductor*%
G36*
X154810351Y-48268185D02*
G01*
X154856106Y-48320989D01*
X154866050Y-48390147D01*
X154837025Y-48453703D01*
X154823851Y-48466784D01*
X154820208Y-48469895D01*
X154669890Y-48620213D01*
X154544949Y-48792182D01*
X154540202Y-48801499D01*
X154492227Y-48852293D01*
X154424405Y-48869087D01*
X154358271Y-48846548D01*
X154319234Y-48801495D01*
X154314626Y-48792452D01*
X154275270Y-48738282D01*
X154275269Y-48738282D01*
X153642962Y-49370590D01*
X153625925Y-49307007D01*
X153560099Y-49192993D01*
X153467007Y-49099901D01*
X153352993Y-49034075D01*
X153289409Y-49017037D01*
X153921716Y-48384728D01*
X153921520Y-48382229D01*
X153935884Y-48313852D01*
X153984935Y-48264095D01*
X154045138Y-48248500D01*
X154743312Y-48248500D01*
X154810351Y-48268185D01*
G37*
%TD.AperFunction*%
%TA.AperFunction,Conductor*%
G36*
X177242539Y-46032185D02*
G01*
X177288294Y-46084989D01*
X177299500Y-46136500D01*
X177299500Y-111897500D01*
X177279815Y-111964539D01*
X177227011Y-112010294D01*
X177175500Y-112021500D01*
X112384500Y-112021500D01*
X112317461Y-112001815D01*
X112271706Y-111949011D01*
X112260500Y-111897500D01*
X112260500Y-101818267D01*
X129785000Y-101818267D01*
X129785000Y-102099070D01*
X129816437Y-102378081D01*
X129816439Y-102378093D01*
X129878921Y-102651847D01*
X129878922Y-102651849D01*
X129971662Y-102916886D01*
X130093492Y-103169869D01*
X130242884Y-103407625D01*
X130349187Y-103540926D01*
X130990747Y-102899366D01*
X131064588Y-103000999D01*
X131242670Y-103179081D01*
X131344300Y-103252920D01*
X130702741Y-103894479D01*
X130702741Y-103894480D01*
X130836043Y-104000784D01*
X131073799Y-104150176D01*
X131326782Y-104272006D01*
X131591819Y-104364746D01*
X131591821Y-104364747D01*
X131865575Y-104427229D01*
X131865587Y-104427231D01*
X132144598Y-104458668D01*
X132144600Y-104458669D01*
X132425400Y-104458669D01*
X132425401Y-104458668D01*
X132704412Y-104427231D01*
X132704424Y-104427229D01*
X132978178Y-104364747D01*
X132978180Y-104364746D01*
X133243217Y-104272006D01*
X133496200Y-104150176D01*
X133733956Y-104000785D01*
X133867257Y-103894479D01*
X133225698Y-103252920D01*
X133327330Y-103179081D01*
X133505412Y-103000999D01*
X133579251Y-102899367D01*
X134220810Y-103540926D01*
X134327116Y-103407625D01*
X134476507Y-103169869D01*
X134598337Y-102916886D01*
X134691077Y-102651849D01*
X134691078Y-102651847D01*
X134753560Y-102378093D01*
X134753562Y-102378081D01*
X134784999Y-102099070D01*
X134785000Y-102099068D01*
X134785000Y-101818269D01*
X134784999Y-101818267D01*
X134753562Y-101539256D01*
X134753560Y-101539244D01*
X134691078Y-101265490D01*
X134691077Y-101265488D01*
X134598337Y-101000451D01*
X134476507Y-100747468D01*
X134327115Y-100509712D01*
X134220810Y-100376410D01*
X133579251Y-101017969D01*
X133505412Y-100916339D01*
X133327330Y-100738257D01*
X133225697Y-100664416D01*
X133867257Y-100022856D01*
X133733956Y-99916553D01*
X133496200Y-99767161D01*
X133243217Y-99645331D01*
X132978180Y-99552591D01*
X132978178Y-99552590D01*
X132704424Y-99490108D01*
X132704412Y-99490106D01*
X132425401Y-99458669D01*
X132144598Y-99458669D01*
X131865587Y-99490106D01*
X131865575Y-99490108D01*
X131591821Y-99552590D01*
X131591819Y-99552591D01*
X131326782Y-99645331D01*
X131073799Y-99767161D01*
X130836043Y-99916553D01*
X130702741Y-100022856D01*
X131344301Y-100664416D01*
X131242670Y-100738257D01*
X131064588Y-100916339D01*
X130990747Y-101017970D01*
X130349187Y-100376410D01*
X130242884Y-100509712D01*
X130093492Y-100747468D01*
X129971662Y-101000451D01*
X129878922Y-101265488D01*
X129878921Y-101265490D01*
X129816439Y-101539244D01*
X129816437Y-101539256D01*
X129785000Y-101818267D01*
X112260500Y-101818267D01*
X112260500Y-94989986D01*
X119021001Y-94989986D01*
X119031494Y-95092697D01*
X119086641Y-95259119D01*
X119086643Y-95259124D01*
X119178684Y-95408345D01*
X119302654Y-95532315D01*
X119451875Y-95624356D01*
X119451880Y-95624358D01*
X119618302Y-95679505D01*
X119618309Y-95679506D01*
X119721019Y-95689999D01*
X120145999Y-95689999D01*
X120646000Y-95689999D01*
X121070972Y-95689999D01*
X121070986Y-95689998D01*
X121173697Y-95679505D01*
X121340119Y-95624358D01*
X121340124Y-95624356D01*
X121489345Y-95532315D01*
X121613315Y-95408345D01*
X121705356Y-95259124D01*
X121705358Y-95259119D01*
X121760505Y-95092697D01*
X121760506Y-95092690D01*
X121770999Y-94989986D01*
X123085001Y-94989986D01*
X123095494Y-95092697D01*
X123150641Y-95259119D01*
X123150643Y-95259124D01*
X123242684Y-95408345D01*
X123366654Y-95532315D01*
X123515875Y-95624356D01*
X123515880Y-95624358D01*
X123682302Y-95679505D01*
X123682309Y-95679506D01*
X123785019Y-95689999D01*
X124209999Y-95689999D01*
X124710000Y-95689999D01*
X125134972Y-95689999D01*
X125134986Y-95689998D01*
X125237697Y-95679505D01*
X125404119Y-95624358D01*
X125404124Y-95624356D01*
X125553345Y-95532315D01*
X125677315Y-95408345D01*
X125769356Y-95259124D01*
X125769358Y-95259119D01*
X125824505Y-95092697D01*
X125824506Y-95092690D01*
X125834999Y-94989986D01*
X125835000Y-94989973D01*
X125835000Y-94790000D01*
X124710000Y-94790000D01*
X124710000Y-95689999D01*
X124209999Y-95689999D01*
X124210000Y-95689998D01*
X124210000Y-94790000D01*
X123085001Y-94790000D01*
X123085001Y-94989986D01*
X121770999Y-94989986D01*
X121771000Y-94989973D01*
X121771000Y-94790000D01*
X120646000Y-94790000D01*
X120646000Y-95689999D01*
X120145999Y-95689999D01*
X120146000Y-95689998D01*
X120146000Y-94790000D01*
X119021001Y-94790000D01*
X119021001Y-94989986D01*
X112260500Y-94989986D01*
X112260500Y-94090013D01*
X119021000Y-94090013D01*
X119021000Y-94290000D01*
X120146000Y-94290000D01*
X120646000Y-94290000D01*
X121770999Y-94290000D01*
X121770999Y-94090029D01*
X121770998Y-94090013D01*
X123085000Y-94090013D01*
X123085000Y-94290000D01*
X124210000Y-94290000D01*
X124210000Y-93390000D01*
X123785028Y-93390000D01*
X123785012Y-93390001D01*
X123682302Y-93400494D01*
X123515880Y-93455641D01*
X123515875Y-93455643D01*
X123366654Y-93547684D01*
X123242684Y-93671654D01*
X123150643Y-93820875D01*
X123150641Y-93820880D01*
X123095494Y-93987302D01*
X123095493Y-93987309D01*
X123085000Y-94090013D01*
X121770998Y-94090013D01*
X121770998Y-94090012D01*
X121760505Y-93987302D01*
X121705358Y-93820880D01*
X121705356Y-93820875D01*
X121613315Y-93671654D01*
X121489345Y-93547684D01*
X121340124Y-93455643D01*
X121340119Y-93455641D01*
X121173697Y-93400494D01*
X121173690Y-93400493D01*
X121070986Y-93390000D01*
X120646000Y-93390000D01*
X120646000Y-94290000D01*
X120146000Y-94290000D01*
X120146000Y-93390000D01*
X119721028Y-93390000D01*
X119721012Y-93390001D01*
X119618302Y-93400494D01*
X119451880Y-93455641D01*
X119451875Y-93455643D01*
X119302654Y-93547684D01*
X119178684Y-93671654D01*
X119086643Y-93820875D01*
X119086641Y-93820880D01*
X119031494Y-93987302D01*
X119031493Y-93987309D01*
X119021000Y-94090013D01*
X112260500Y-94090013D01*
X112260500Y-79865983D01*
X114448500Y-79865983D01*
X114448500Y-80766001D01*
X114448501Y-80766007D01*
X114459000Y-80868796D01*
X114459001Y-80868799D01*
X114514185Y-81035331D01*
X114514186Y-81035334D01*
X114606288Y-81184656D01*
X114730344Y-81308712D01*
X114879666Y-81400814D01*
X115046203Y-81455999D01*
X115087103Y-81460177D01*
X115151793Y-81486573D01*
X115191945Y-81543753D01*
X115198500Y-81583535D01*
X115198500Y-85913611D01*
X115222535Y-86034444D01*
X115222540Y-86034461D01*
X115269685Y-86148280D01*
X115269687Y-86148283D01*
X115269688Y-86148286D01*
X115303915Y-86199509D01*
X115338142Y-86250733D01*
X115425267Y-86337858D01*
X115425269Y-86337859D01*
X115435232Y-86347822D01*
X116959933Y-87872524D01*
X116993418Y-87933847D01*
X116995610Y-87947603D01*
X116999001Y-87980798D01*
X117054185Y-88147331D01*
X117054186Y-88147334D01*
X117146288Y-88296656D01*
X117270344Y-88420712D01*
X117419666Y-88512814D01*
X117586203Y-88567999D01*
X117627103Y-88572177D01*
X117691793Y-88598573D01*
X117731945Y-88655753D01*
X117738500Y-88695534D01*
X117738500Y-89469606D01*
X117755034Y-89552733D01*
X117762537Y-89590451D01*
X117809688Y-89704286D01*
X117812370Y-89708299D01*
X117812374Y-89708313D01*
X117812378Y-89708311D01*
X117878141Y-89806732D01*
X117878144Y-89806736D01*
X117969586Y-89898178D01*
X117969608Y-89898198D01*
X118984181Y-90912771D01*
X119017666Y-90974094D01*
X119020500Y-91000452D01*
X119020500Y-91890001D01*
X119020501Y-91890019D01*
X119031000Y-91992796D01*
X119031001Y-91992799D01*
X119084978Y-92155688D01*
X119086186Y-92159334D01*
X119178288Y-92308656D01*
X119302344Y-92432712D01*
X119451666Y-92524814D01*
X119618203Y-92579999D01*
X119720991Y-92590500D01*
X121071008Y-92590499D01*
X121173797Y-92579999D01*
X121340334Y-92524814D01*
X121489656Y-92432712D01*
X121613712Y-92308656D01*
X121705814Y-92159334D01*
X121760999Y-91992797D01*
X121771500Y-91890009D01*
X121771499Y-90989992D01*
X121760999Y-90887203D01*
X121705814Y-90720666D01*
X121613712Y-90571344D01*
X121489656Y-90447288D01*
X121340334Y-90355186D01*
X121173797Y-90300001D01*
X121173795Y-90300000D01*
X121071016Y-90289500D01*
X121071009Y-90289500D01*
X120181452Y-90289500D01*
X120114413Y-90269815D01*
X120093771Y-90253181D01*
X119025819Y-89185229D01*
X118992334Y-89123906D01*
X118989500Y-89097548D01*
X118989500Y-88695534D01*
X119009185Y-88628495D01*
X119061989Y-88582740D01*
X119100897Y-88572176D01*
X119141797Y-88567999D01*
X119308334Y-88512814D01*
X119457656Y-88420712D01*
X119581712Y-88296656D01*
X119673814Y-88147334D01*
X119728999Y-87980797D01*
X119739500Y-87878009D01*
X119739499Y-86977992D01*
X119739497Y-86977976D01*
X119728999Y-86875203D01*
X119728998Y-86875200D01*
X119721322Y-86852035D01*
X119673814Y-86708666D01*
X119581712Y-86559344D01*
X119457656Y-86435288D01*
X119331935Y-86357743D01*
X119308336Y-86343187D01*
X119308331Y-86343185D01*
X119292255Y-86337858D01*
X119141797Y-86288001D01*
X119141795Y-86288000D01*
X119039010Y-86277500D01*
X117688998Y-86277500D01*
X117688981Y-86277501D01*
X117586203Y-86288000D01*
X117586200Y-86288001D01*
X117419666Y-86343186D01*
X117367110Y-86375602D01*
X117299717Y-86394041D01*
X117233054Y-86373117D01*
X117214334Y-86357743D01*
X116485819Y-85629228D01*
X116452334Y-85567905D01*
X116449500Y-85541547D01*
X116449500Y-83877983D01*
X116988500Y-83877983D01*
X116988500Y-84778001D01*
X116988501Y-84778019D01*
X116999000Y-84880796D01*
X116999001Y-84880799D01*
X117047910Y-85028394D01*
X117054186Y-85047334D01*
X117146288Y-85196656D01*
X117270344Y-85320712D01*
X117419666Y-85412814D01*
X117586203Y-85467999D01*
X117688991Y-85478500D01*
X119039008Y-85478499D01*
X119141797Y-85467999D01*
X119308334Y-85412814D01*
X119393053Y-85360559D01*
X119460442Y-85342120D01*
X119527106Y-85363042D01*
X119545828Y-85378418D01*
X121019445Y-86852035D01*
X121052930Y-86913358D01*
X121055122Y-86952316D01*
X121052501Y-86977976D01*
X121052500Y-86977996D01*
X121052500Y-87878001D01*
X121052501Y-87878019D01*
X121063000Y-87980796D01*
X121063001Y-87980799D01*
X121118185Y-88147331D01*
X121118186Y-88147334D01*
X121210288Y-88296656D01*
X121334344Y-88420712D01*
X121483666Y-88512814D01*
X121650203Y-88567999D01*
X121752991Y-88578500D01*
X123103008Y-88578499D01*
X123205797Y-88567999D01*
X123372334Y-88512814D01*
X123521656Y-88420712D01*
X123645712Y-88296656D01*
X123737814Y-88147334D01*
X123792999Y-87980797D01*
X123803500Y-87878009D01*
X123803499Y-86977992D01*
X123803497Y-86977976D01*
X123792999Y-86875203D01*
X123792998Y-86875200D01*
X123785322Y-86852035D01*
X123737814Y-86708666D01*
X123645712Y-86559344D01*
X123521656Y-86435288D01*
X123395935Y-86357743D01*
X123372336Y-86343187D01*
X123372331Y-86343185D01*
X123356255Y-86337858D01*
X123205797Y-86288001D01*
X123205795Y-86288000D01*
X123103016Y-86277500D01*
X123103009Y-86277500D01*
X122265452Y-86277500D01*
X122198413Y-86257815D01*
X122177771Y-86241181D01*
X121623104Y-85686514D01*
X121589619Y-85625191D01*
X121594603Y-85555499D01*
X121636475Y-85499566D01*
X121701939Y-85475149D01*
X121723379Y-85475474D01*
X121752991Y-85478500D01*
X123103008Y-85478499D01*
X123205797Y-85467999D01*
X123372334Y-85412814D01*
X123457053Y-85360559D01*
X123524442Y-85342120D01*
X123591106Y-85363042D01*
X123609828Y-85378418D01*
X125083445Y-86852035D01*
X125116930Y-86913358D01*
X125119122Y-86952316D01*
X125116501Y-86977976D01*
X125116500Y-86977996D01*
X125116500Y-87878001D01*
X125116501Y-87878019D01*
X125127000Y-87980796D01*
X125127001Y-87980799D01*
X125182185Y-88147331D01*
X125182186Y-88147334D01*
X125274288Y-88296656D01*
X125398344Y-88420712D01*
X125547666Y-88512814D01*
X125714203Y-88567999D01*
X125816991Y-88578500D01*
X127167008Y-88578499D01*
X127269797Y-88567999D01*
X127436334Y-88512814D01*
X127585656Y-88420712D01*
X127686819Y-88319549D01*
X127748142Y-88286064D01*
X127817834Y-88291048D01*
X127873767Y-88332920D01*
X127898184Y-88398384D01*
X127898500Y-88407230D01*
X127898500Y-89351547D01*
X127878815Y-89418586D01*
X127862181Y-89439228D01*
X126523229Y-90778181D01*
X126461906Y-90811666D01*
X126435548Y-90814500D01*
X125890449Y-90814500D01*
X125823410Y-90794815D01*
X125777655Y-90742011D01*
X125772744Y-90729507D01*
X125771267Y-90725053D01*
X125769814Y-90720666D01*
X125677712Y-90571344D01*
X125553656Y-90447288D01*
X125404334Y-90355186D01*
X125237797Y-90300001D01*
X125237795Y-90300000D01*
X125135010Y-90289500D01*
X123784998Y-90289500D01*
X123784981Y-90289501D01*
X123682203Y-90300000D01*
X123682200Y-90300001D01*
X123515668Y-90355185D01*
X123515663Y-90355187D01*
X123366342Y-90447289D01*
X123242289Y-90571342D01*
X123150187Y-90720663D01*
X123150186Y-90720667D01*
X123095001Y-90887203D01*
X123095001Y-90887204D01*
X123095000Y-90887204D01*
X123084500Y-90989983D01*
X123084500Y-91890001D01*
X123084501Y-91890019D01*
X123095000Y-91992796D01*
X123095001Y-91992799D01*
X123148978Y-92155688D01*
X123150186Y-92159334D01*
X123242288Y-92308656D01*
X123366344Y-92432712D01*
X123515666Y-92524814D01*
X123682203Y-92579999D01*
X123784991Y-92590500D01*
X124547547Y-92590499D01*
X124614586Y-92610183D01*
X124635228Y-92626818D01*
X125186729Y-93178319D01*
X125220214Y-93239642D01*
X125215230Y-93309334D01*
X125173358Y-93365267D01*
X125107894Y-93389684D01*
X125099048Y-93390000D01*
X124710000Y-93390000D01*
X124710000Y-94290000D01*
X125834999Y-94290000D01*
X125834999Y-94125951D01*
X125854684Y-94058912D01*
X125907488Y-94013157D01*
X125976646Y-94003213D01*
X126040202Y-94032238D01*
X126046680Y-94038270D01*
X130197139Y-98188729D01*
X130197142Y-98188733D01*
X130284267Y-98275858D01*
X130329949Y-98306382D01*
X130386714Y-98344312D01*
X130464033Y-98376338D01*
X130500548Y-98391463D01*
X130560971Y-98403481D01*
X130621393Y-98415500D01*
X130621394Y-98415500D01*
X138818593Y-98415500D01*
X138885632Y-98435185D01*
X138931387Y-98487989D01*
X138941331Y-98557147D01*
X138918911Y-98612386D01*
X138828140Y-98737319D01*
X138735244Y-98919637D01*
X138672009Y-99114251D01*
X138640000Y-99316351D01*
X138640000Y-99520986D01*
X138672009Y-99723086D01*
X138735244Y-99917700D01*
X138828141Y-100100019D01*
X138828147Y-100100028D01*
X138860523Y-100144590D01*
X138860524Y-100144591D01*
X139457037Y-99548077D01*
X139474075Y-99611662D01*
X139539901Y-99725676D01*
X139632993Y-99818768D01*
X139747007Y-99884594D01*
X139810590Y-99901631D01*
X139214076Y-100498143D01*
X139258650Y-100530528D01*
X139440968Y-100623424D01*
X139635582Y-100686659D01*
X139837683Y-100718669D01*
X140042317Y-100718669D01*
X140220512Y-100690445D01*
X140289805Y-100699399D01*
X140343257Y-100744395D01*
X140363897Y-100811147D01*
X140363528Y-100822648D01*
X140359077Y-100879193D01*
X140955591Y-101475706D01*
X140892007Y-101492744D01*
X140777993Y-101558570D01*
X140684901Y-101651662D01*
X140619075Y-101765676D01*
X140602037Y-101829259D01*
X140005524Y-101232746D01*
X140005523Y-101232746D01*
X139973143Y-101277313D01*
X139880244Y-101459637D01*
X139817009Y-101654251D01*
X139785000Y-101856351D01*
X139785000Y-102060986D01*
X139817009Y-102263086D01*
X139880244Y-102457700D01*
X139973141Y-102640019D01*
X139973147Y-102640028D01*
X140005523Y-102684590D01*
X140005524Y-102684591D01*
X140602037Y-102088078D01*
X140619075Y-102151662D01*
X140684901Y-102265676D01*
X140777993Y-102358768D01*
X140892007Y-102424594D01*
X140955590Y-102441631D01*
X140359076Y-103038143D01*
X140363486Y-103094179D01*
X140349121Y-103162556D01*
X140300069Y-103212313D01*
X140231904Y-103227651D01*
X140220470Y-103226380D01*
X140080803Y-103204259D01*
X140042352Y-103198169D01*
X139837648Y-103198169D01*
X139813329Y-103202020D01*
X139635465Y-103230191D01*
X139440776Y-103293450D01*
X139258386Y-103386384D01*
X139092786Y-103506697D01*
X138948028Y-103651455D01*
X138827715Y-103817055D01*
X138734781Y-103999445D01*
X138671522Y-104194134D01*
X138639500Y-104396317D01*
X138639500Y-104601020D01*
X138671522Y-104803203D01*
X138734781Y-104997892D01*
X138827715Y-105180282D01*
X138948028Y-105345882D01*
X139092786Y-105490640D01*
X139247749Y-105603225D01*
X139258390Y-105610956D01*
X139374607Y-105670172D01*
X139440776Y-105703887D01*
X139440778Y-105703887D01*
X139440781Y-105703889D01*
X139545137Y-105737796D01*
X139635465Y-105767146D01*
X139736557Y-105783157D01*
X139837648Y-105799169D01*
X139837649Y-105799169D01*
X140042351Y-105799169D01*
X140042352Y-105799169D01*
X140244534Y-105767146D01*
X140439219Y-105703889D01*
X140621610Y-105610956D01*
X140780248Y-105495700D01*
X140787213Y-105490640D01*
X140787215Y-105490637D01*
X140787219Y-105490635D01*
X140931966Y-105345888D01*
X140984681Y-105273330D01*
X141040011Y-105230665D01*
X141109624Y-105224686D01*
X141171420Y-105257291D01*
X141185319Y-105273331D01*
X141238034Y-105345888D01*
X141382786Y-105490640D01*
X141537749Y-105603225D01*
X141548390Y-105610956D01*
X141664607Y-105670172D01*
X141730776Y-105703887D01*
X141730778Y-105703887D01*
X141730781Y-105703889D01*
X141835137Y-105737796D01*
X141925465Y-105767146D01*
X142026557Y-105783157D01*
X142127648Y-105799169D01*
X142127649Y-105799169D01*
X142332351Y-105799169D01*
X142332352Y-105799169D01*
X142401371Y-105788237D01*
X142539347Y-105766384D01*
X142539672Y-105768436D01*
X142600743Y-105771471D01*
X142647628Y-105800887D01*
X143976270Y-107129529D01*
X143976273Y-107129533D01*
X144063398Y-107216658D01*
X144140321Y-107268056D01*
X144146121Y-107271932D01*
X144146124Y-107271934D01*
X144165841Y-107285109D01*
X144165843Y-107285110D01*
X144165846Y-107285112D01*
X144232527Y-107312731D01*
X144232529Y-107312733D01*
X144272771Y-107329401D01*
X144279679Y-107332263D01*
X144340102Y-107344281D01*
X144400524Y-107356300D01*
X160538807Y-107356300D01*
X160599229Y-107344281D01*
X160659652Y-107332263D01*
X160692992Y-107318452D01*
X160773486Y-107285112D01*
X160824709Y-107250884D01*
X160875933Y-107216658D01*
X160963058Y-107129533D01*
X160963059Y-107129531D01*
X160970125Y-107122465D01*
X160970128Y-107122461D01*
X173372729Y-94719860D01*
X173372733Y-94719858D01*
X173459858Y-94632733D01*
X173494084Y-94581509D01*
X173528312Y-94530286D01*
X173575463Y-94416451D01*
X173599500Y-94295607D01*
X173599500Y-94172393D01*
X173599500Y-88695534D01*
X173619185Y-88628495D01*
X173671989Y-88582740D01*
X173710897Y-88572176D01*
X173751797Y-88567999D01*
X173918334Y-88512814D01*
X174067656Y-88420712D01*
X174191712Y-88296656D01*
X174283814Y-88147334D01*
X174338999Y-87980797D01*
X174349500Y-87878009D01*
X174349499Y-86977992D01*
X174349497Y-86977976D01*
X174338999Y-86875203D01*
X174338998Y-86875200D01*
X174331322Y-86852035D01*
X174283814Y-86708666D01*
X174191712Y-86559344D01*
X174067656Y-86435288D01*
X173941935Y-86357743D01*
X173918336Y-86343187D01*
X173918331Y-86343185D01*
X173902255Y-86337858D01*
X173751797Y-86288001D01*
X173751795Y-86288000D01*
X173649010Y-86277500D01*
X172298998Y-86277500D01*
X172298981Y-86277501D01*
X172196203Y-86288000D01*
X172196200Y-86288001D01*
X172029668Y-86343185D01*
X172029663Y-86343187D01*
X171880342Y-86435289D01*
X171756289Y-86559342D01*
X171664187Y-86708663D01*
X171664186Y-86708666D01*
X171609001Y-86875203D01*
X171609001Y-86875204D01*
X171609000Y-86875204D01*
X171598500Y-86977983D01*
X171598500Y-87878001D01*
X171598501Y-87878019D01*
X171609000Y-87980796D01*
X171609001Y-87980799D01*
X171664185Y-88147331D01*
X171664186Y-88147334D01*
X171756288Y-88296656D01*
X171880344Y-88420712D01*
X172029666Y-88512814D01*
X172196203Y-88567999D01*
X172237103Y-88572177D01*
X172301793Y-88598573D01*
X172341945Y-88655753D01*
X172348500Y-88695535D01*
X172348500Y-93923548D01*
X172328815Y-93990587D01*
X172312181Y-94011229D01*
X160254429Y-106068981D01*
X160193106Y-106102466D01*
X160166748Y-106105300D01*
X159238652Y-106105300D01*
X159171613Y-106085615D01*
X159125858Y-106032811D01*
X159115914Y-105963653D01*
X159144939Y-105900097D01*
X159150971Y-105893619D01*
X164297123Y-100747468D01*
X169649858Y-95394733D01*
X169718312Y-95292285D01*
X169765463Y-95178451D01*
X169789500Y-95057606D01*
X169789500Y-94934393D01*
X169789500Y-88695534D01*
X169809185Y-88628495D01*
X169861989Y-88582740D01*
X169900897Y-88572176D01*
X169941797Y-88567999D01*
X170108334Y-88512814D01*
X170257656Y-88420712D01*
X170381712Y-88296656D01*
X170473814Y-88147334D01*
X170528999Y-87980797D01*
X170539500Y-87878009D01*
X170539499Y-86977992D01*
X170539497Y-86977976D01*
X170528999Y-86875203D01*
X170528998Y-86875200D01*
X170521322Y-86852035D01*
X170473814Y-86708666D01*
X170381712Y-86559344D01*
X170257656Y-86435288D01*
X170131935Y-86357743D01*
X170108336Y-86343187D01*
X170108331Y-86343185D01*
X170092255Y-86337858D01*
X169941797Y-86288001D01*
X169941795Y-86288000D01*
X169839010Y-86277500D01*
X168488998Y-86277500D01*
X168488981Y-86277501D01*
X168386203Y-86288000D01*
X168386200Y-86288001D01*
X168219668Y-86343185D01*
X168219663Y-86343187D01*
X168070342Y-86435289D01*
X167946289Y-86559342D01*
X167854187Y-86708663D01*
X167854186Y-86708666D01*
X167799001Y-86875203D01*
X167799001Y-86875204D01*
X167799000Y-86875204D01*
X167788500Y-86977983D01*
X167788500Y-87878001D01*
X167788501Y-87878019D01*
X167799000Y-87980796D01*
X167799001Y-87980799D01*
X167854185Y-88147331D01*
X167854186Y-88147334D01*
X167946288Y-88296656D01*
X168070344Y-88420712D01*
X168219666Y-88512814D01*
X168386203Y-88567999D01*
X168427103Y-88572177D01*
X168491793Y-88598573D01*
X168531945Y-88655753D01*
X168538500Y-88695535D01*
X168538500Y-94685547D01*
X168518815Y-94752586D01*
X168502181Y-94773228D01*
X157816029Y-105459381D01*
X157754706Y-105492866D01*
X157728348Y-105495700D01*
X150226485Y-105495700D01*
X150159446Y-105476015D01*
X150113691Y-105423211D01*
X150103747Y-105354053D01*
X150126167Y-105298815D01*
X150175680Y-105230665D01*
X150212287Y-105180279D01*
X150305220Y-104997888D01*
X150368477Y-104803203D01*
X150400500Y-104601021D01*
X150400500Y-104396317D01*
X150368477Y-104194135D01*
X150305220Y-103999450D01*
X150305218Y-103999447D01*
X150305218Y-103999445D01*
X150255734Y-103902328D01*
X150245000Y-103881261D01*
X150212287Y-103817059D01*
X150144681Y-103724006D01*
X150091971Y-103651455D01*
X149947217Y-103506701D01*
X149947212Y-103506697D01*
X149874026Y-103453524D01*
X149831360Y-103398194D01*
X149825381Y-103328581D01*
X149857987Y-103266786D01*
X149918826Y-103232428D01*
X149966310Y-103230733D01*
X150142684Y-103258669D01*
X150347317Y-103258669D01*
X150549417Y-103226659D01*
X150744031Y-103163424D01*
X150926349Y-103070528D01*
X150970921Y-103038143D01*
X150374409Y-102441631D01*
X150437993Y-102424594D01*
X150552007Y-102358768D01*
X150645099Y-102265676D01*
X150710925Y-102151662D01*
X150727962Y-102088078D01*
X151324474Y-102684590D01*
X151356859Y-102640018D01*
X151449755Y-102457700D01*
X151512990Y-102263086D01*
X151545000Y-102060986D01*
X151545000Y-101856351D01*
X151541490Y-101834191D01*
X151538968Y-101818267D01*
X154785000Y-101818267D01*
X154785000Y-102099070D01*
X154816437Y-102378081D01*
X154816439Y-102378093D01*
X154878921Y-102651847D01*
X154878922Y-102651849D01*
X154971662Y-102916886D01*
X155093492Y-103169869D01*
X155242884Y-103407625D01*
X155349187Y-103540926D01*
X155990747Y-102899366D01*
X156064588Y-103000999D01*
X156242670Y-103179081D01*
X156344300Y-103252920D01*
X155702741Y-103894479D01*
X155702741Y-103894480D01*
X155836043Y-104000784D01*
X156073799Y-104150176D01*
X156326782Y-104272006D01*
X156591819Y-104364746D01*
X156591821Y-104364747D01*
X156865575Y-104427229D01*
X156865587Y-104427231D01*
X157144598Y-104458668D01*
X157144600Y-104458669D01*
X157425400Y-104458669D01*
X157425401Y-104458668D01*
X157704412Y-104427231D01*
X157704424Y-104427229D01*
X157978178Y-104364747D01*
X157978180Y-104364746D01*
X158243217Y-104272006D01*
X158496200Y-104150176D01*
X158733956Y-104000785D01*
X158867257Y-103894479D01*
X158225698Y-103252920D01*
X158327330Y-103179081D01*
X158505412Y-103000999D01*
X158579251Y-102899367D01*
X159220810Y-103540926D01*
X159327116Y-103407625D01*
X159476507Y-103169869D01*
X159598337Y-102916886D01*
X159691077Y-102651849D01*
X159691078Y-102651847D01*
X159753560Y-102378093D01*
X159753562Y-102378081D01*
X159784999Y-102099070D01*
X159785000Y-102099068D01*
X159785000Y-101818269D01*
X159784999Y-101818267D01*
X159753562Y-101539256D01*
X159753560Y-101539244D01*
X159691078Y-101265490D01*
X159691077Y-101265488D01*
X159598337Y-101000451D01*
X159476507Y-100747468D01*
X159327115Y-100509712D01*
X159220810Y-100376410D01*
X158579251Y-101017969D01*
X158505412Y-100916339D01*
X158327330Y-100738257D01*
X158225697Y-100664416D01*
X158867257Y-100022856D01*
X158733956Y-99916553D01*
X158496200Y-99767161D01*
X158243217Y-99645331D01*
X157978180Y-99552591D01*
X157978178Y-99552590D01*
X157704424Y-99490108D01*
X157704412Y-99490106D01*
X157425401Y-99458669D01*
X157144598Y-99458669D01*
X156865587Y-99490106D01*
X156865575Y-99490108D01*
X156591821Y-99552590D01*
X156591819Y-99552591D01*
X156326782Y-99645331D01*
X156073799Y-99767161D01*
X155836043Y-99916553D01*
X155702741Y-100022856D01*
X156344301Y-100664416D01*
X156242670Y-100738257D01*
X156064588Y-100916339D01*
X155990747Y-101017970D01*
X155349187Y-100376410D01*
X155242884Y-100509712D01*
X155093492Y-100747468D01*
X154971662Y-101000451D01*
X154878922Y-101265488D01*
X154878921Y-101265490D01*
X154816439Y-101539244D01*
X154816437Y-101539256D01*
X154785000Y-101818267D01*
X151538968Y-101818267D01*
X151512990Y-101654251D01*
X151449755Y-101459637D01*
X151356859Y-101277319D01*
X151324474Y-101232746D01*
X151324474Y-101232745D01*
X150727962Y-101829258D01*
X150710925Y-101765676D01*
X150645099Y-101651662D01*
X150552007Y-101558570D01*
X150437993Y-101492744D01*
X150374408Y-101475706D01*
X150970922Y-100879193D01*
X150970921Y-100879192D01*
X150926359Y-100846816D01*
X150926350Y-100846810D01*
X150744031Y-100753913D01*
X150549418Y-100690679D01*
X150414978Y-100669385D01*
X150351844Y-100639455D01*
X150314913Y-100580144D01*
X150315911Y-100510281D01*
X150335111Y-100472601D01*
X150343796Y-100461000D01*
X150394091Y-100326152D01*
X150400500Y-100266542D01*
X150400499Y-99418668D01*
X150400499Y-98570798D01*
X150400498Y-98570792D01*
X150399031Y-98557147D01*
X150394091Y-98511186D01*
X150365744Y-98435185D01*
X150343797Y-98376340D01*
X150343793Y-98376333D01*
X150257547Y-98261124D01*
X150257544Y-98261121D01*
X150142335Y-98174875D01*
X150142328Y-98174871D01*
X150007482Y-98124577D01*
X150007483Y-98124577D01*
X149947883Y-98118170D01*
X149947881Y-98118169D01*
X149947873Y-98118169D01*
X149947865Y-98118169D01*
X148735452Y-98118169D01*
X148668413Y-98098484D01*
X148647771Y-98081850D01*
X147964481Y-97398560D01*
X147957191Y-97391270D01*
X147957189Y-97391267D01*
X147870064Y-97304142D01*
X147818840Y-97269915D01*
X147767617Y-97235688D01*
X147767614Y-97235686D01*
X147767611Y-97235685D01*
X147693934Y-97205168D01*
X147693932Y-97205167D01*
X147687123Y-97202347D01*
X147653783Y-97188537D01*
X147593360Y-97176518D01*
X147588637Y-97175578D01*
X147588635Y-97175578D01*
X147532941Y-97164500D01*
X147532938Y-97164500D01*
X147532937Y-97164500D01*
X145409305Y-97164500D01*
X145342266Y-97144815D01*
X145296511Y-97092011D01*
X145286567Y-97022853D01*
X145288647Y-97013491D01*
X145288549Y-97013472D01*
X145320499Y-96852846D01*
X145320500Y-96852844D01*
X145320500Y-96695155D01*
X145320499Y-96695153D01*
X145289739Y-96540511D01*
X145289736Y-96540501D01*
X145276440Y-96508401D01*
X145268971Y-96438932D01*
X145300247Y-96376453D01*
X145303291Y-96373297D01*
X146686603Y-94989986D01*
X154581001Y-94989986D01*
X154591494Y-95092697D01*
X154646641Y-95259119D01*
X154646643Y-95259124D01*
X154738684Y-95408345D01*
X154862654Y-95532315D01*
X155011875Y-95624356D01*
X155011880Y-95624358D01*
X155178302Y-95679505D01*
X155178309Y-95679506D01*
X155281019Y-95689999D01*
X155705999Y-95689999D01*
X156206000Y-95689999D01*
X156630972Y-95689999D01*
X156630986Y-95689998D01*
X156733697Y-95679505D01*
X156900119Y-95624358D01*
X156900124Y-95624356D01*
X157049345Y-95532315D01*
X157173315Y-95408345D01*
X157265356Y-95259124D01*
X157265358Y-95259119D01*
X157320505Y-95092697D01*
X157320506Y-95092690D01*
X157330999Y-94989986D01*
X158645001Y-94989986D01*
X158655494Y-95092697D01*
X158710641Y-95259119D01*
X158710643Y-95259124D01*
X158802684Y-95408345D01*
X158926654Y-95532315D01*
X159075875Y-95624356D01*
X159075880Y-95624358D01*
X159242302Y-95679505D01*
X159242309Y-95679506D01*
X159345019Y-95689999D01*
X159769999Y-95689999D01*
X160270000Y-95689999D01*
X160694972Y-95689999D01*
X160694986Y-95689998D01*
X160797697Y-95679505D01*
X160964119Y-95624358D01*
X160964124Y-95624356D01*
X161113345Y-95532315D01*
X161237315Y-95408345D01*
X161329356Y-95259124D01*
X161329358Y-95259119D01*
X161384505Y-95092697D01*
X161384506Y-95092690D01*
X161394999Y-94989986D01*
X161395000Y-94989973D01*
X161395000Y-94790000D01*
X160270000Y-94790000D01*
X160270000Y-95689999D01*
X159769999Y-95689999D01*
X159770000Y-95689998D01*
X159770000Y-94790000D01*
X158645001Y-94790000D01*
X158645001Y-94989986D01*
X157330999Y-94989986D01*
X157331000Y-94989973D01*
X157331000Y-94790000D01*
X156206000Y-94790000D01*
X156206000Y-95689999D01*
X155705999Y-95689999D01*
X155706000Y-95689998D01*
X155706000Y-94790000D01*
X154581001Y-94790000D01*
X154581001Y-94989986D01*
X146686603Y-94989986D01*
X148304772Y-93371819D01*
X148366095Y-93338334D01*
X148392453Y-93335500D01*
X154775477Y-93335500D01*
X154842516Y-93355185D01*
X154888271Y-93407989D01*
X154898215Y-93477147D01*
X154869190Y-93540703D01*
X154863158Y-93547181D01*
X154738684Y-93671654D01*
X154646643Y-93820875D01*
X154646641Y-93820880D01*
X154591494Y-93987302D01*
X154591493Y-93987309D01*
X154581000Y-94090013D01*
X154581000Y-94290000D01*
X157330999Y-94290000D01*
X157330999Y-94090028D01*
X157330998Y-94090013D01*
X157320505Y-93987302D01*
X157265358Y-93820880D01*
X157265356Y-93820875D01*
X157173315Y-93671654D01*
X157048842Y-93547181D01*
X157015357Y-93485858D01*
X157020341Y-93416166D01*
X157062213Y-93360233D01*
X157127677Y-93335816D01*
X157136523Y-93335500D01*
X158811608Y-93335500D01*
X158815546Y-93334716D01*
X158819167Y-93333996D01*
X158888758Y-93340220D01*
X158943938Y-93383080D01*
X158967186Y-93448969D01*
X158951121Y-93516966D01*
X158931046Y-93543293D01*
X158802682Y-93671657D01*
X158710643Y-93820875D01*
X158710641Y-93820880D01*
X158655494Y-93987302D01*
X158655493Y-93987309D01*
X158645000Y-94090013D01*
X158645000Y-94290000D01*
X159770000Y-94290000D01*
X160270000Y-94290000D01*
X161394999Y-94290000D01*
X161394999Y-94090028D01*
X161394998Y-94090013D01*
X161384505Y-93987302D01*
X161329358Y-93820880D01*
X161329356Y-93820875D01*
X161237315Y-93671654D01*
X161113345Y-93547684D01*
X160964124Y-93455643D01*
X160964119Y-93455641D01*
X160797697Y-93400494D01*
X160797690Y-93400493D01*
X160694986Y-93390000D01*
X160270000Y-93390000D01*
X160270000Y-94290000D01*
X159770000Y-94290000D01*
X159770000Y-93390000D01*
X159345028Y-93390000D01*
X159345010Y-93390001D01*
X159256911Y-93399001D01*
X159229150Y-93393840D01*
X159200978Y-93391826D01*
X159195250Y-93387538D01*
X159188218Y-93386231D01*
X159167652Y-93366879D01*
X159145044Y-93349955D01*
X159142543Y-93343252D01*
X159137334Y-93338350D01*
X159130494Y-93310949D01*
X159120626Y-93284491D01*
X159122146Y-93277501D01*
X159120414Y-93270560D01*
X159129475Y-93243810D01*
X159135477Y-93216218D01*
X159141585Y-93208057D01*
X159142830Y-93204384D01*
X159156621Y-93187969D01*
X159235858Y-93108733D01*
X159235860Y-93108729D01*
X159717771Y-92626818D01*
X159779094Y-92593333D01*
X159805452Y-92590499D01*
X160695002Y-92590499D01*
X160695008Y-92590499D01*
X160797797Y-92579999D01*
X160964334Y-92524814D01*
X161113656Y-92432712D01*
X161237712Y-92308656D01*
X161329814Y-92159334D01*
X161332744Y-92150493D01*
X161372518Y-92093049D01*
X161437035Y-92066228D01*
X161450449Y-92065500D01*
X162367608Y-92065500D01*
X162367608Y-92065499D01*
X162431164Y-92052858D01*
X162488452Y-92041463D01*
X162541357Y-92019549D01*
X162602286Y-91994312D01*
X162653509Y-91960084D01*
X162653511Y-91960083D01*
X162671747Y-91947898D01*
X162704733Y-91925858D01*
X162791858Y-91838733D01*
X162791858Y-91838731D01*
X162802066Y-91828524D01*
X162802067Y-91828521D01*
X164569858Y-90060733D01*
X164638312Y-89958285D01*
X164685463Y-89844451D01*
X164692966Y-89806733D01*
X164709500Y-89723606D01*
X164709500Y-85028394D01*
X164685463Y-84907548D01*
X164668059Y-84865530D01*
X164649258Y-84820140D01*
X164649255Y-84820136D01*
X164646655Y-84813857D01*
X164638312Y-84793715D01*
X164621256Y-84768190D01*
X164569858Y-84691267D01*
X164569856Y-84691264D01*
X164479637Y-84601045D01*
X164479606Y-84601016D01*
X163815150Y-83936560D01*
X163807860Y-83929270D01*
X163807858Y-83929267D01*
X163720733Y-83842142D01*
X163669509Y-83807915D01*
X163662840Y-83803458D01*
X163656804Y-83798184D01*
X163644935Y-83779543D01*
X163622747Y-83752994D01*
X163621449Y-83742659D01*
X163619277Y-83739248D01*
X163619333Y-83725812D01*
X163614041Y-83683669D01*
X163619559Y-83672135D01*
X163619571Y-83669379D01*
X163624554Y-83661696D01*
X163644197Y-83620642D01*
X163648718Y-83615870D01*
X164061857Y-83202734D01*
X164071702Y-83188001D01*
X164130311Y-83100286D01*
X164177463Y-82986452D01*
X164184966Y-82948733D01*
X164201500Y-82865607D01*
X164201500Y-82742394D01*
X164201500Y-81583534D01*
X164221185Y-81516495D01*
X164273989Y-81470740D01*
X164312897Y-81460176D01*
X164353797Y-81455999D01*
X164520334Y-81400814D01*
X164669656Y-81308712D01*
X164793712Y-81184656D01*
X164885814Y-81035334D01*
X164940999Y-80868797D01*
X164951500Y-80766009D01*
X164951499Y-79865992D01*
X164940999Y-79763203D01*
X164885814Y-79596666D01*
X164793712Y-79447344D01*
X164669656Y-79323288D01*
X164520334Y-79231186D01*
X164353797Y-79176001D01*
X164353795Y-79176000D01*
X164251010Y-79165500D01*
X162900998Y-79165500D01*
X162900981Y-79165501D01*
X162798203Y-79176000D01*
X162798200Y-79176001D01*
X162631668Y-79231185D01*
X162631663Y-79231187D01*
X162482342Y-79323289D01*
X162358289Y-79447342D01*
X162266187Y-79596663D01*
X162266186Y-79596666D01*
X162211001Y-79763203D01*
X162211001Y-79763204D01*
X162211000Y-79763204D01*
X162200500Y-79865983D01*
X162200500Y-80766001D01*
X162200501Y-80766007D01*
X162211000Y-80868796D01*
X162211001Y-80868799D01*
X162266185Y-81035331D01*
X162266186Y-81035334D01*
X162358288Y-81184656D01*
X162482344Y-81308712D01*
X162631666Y-81400814D01*
X162798203Y-81455999D01*
X162839103Y-81460177D01*
X162903793Y-81486573D01*
X162943945Y-81543753D01*
X162950500Y-81583535D01*
X162950500Y-82493547D01*
X162930815Y-82560586D01*
X162914181Y-82581228D01*
X162354227Y-83141181D01*
X162292904Y-83174666D01*
X162266546Y-83177500D01*
X161376998Y-83177500D01*
X161376980Y-83177501D01*
X161274203Y-83188000D01*
X161274200Y-83188001D01*
X161107668Y-83243185D01*
X161107663Y-83243187D01*
X160958342Y-83335289D01*
X160834289Y-83459342D01*
X160742187Y-83608663D01*
X160742185Y-83608668D01*
X160723623Y-83664685D01*
X160687001Y-83775203D01*
X160687001Y-83775204D01*
X160687000Y-83775204D01*
X160676500Y-83877983D01*
X160676500Y-84778001D01*
X160676501Y-84778019D01*
X160685441Y-84865530D01*
X160672671Y-84934223D01*
X160624790Y-84985107D01*
X160557000Y-85002027D01*
X160490824Y-84979611D01*
X160474402Y-84965812D01*
X159588485Y-84079895D01*
X159574488Y-84063190D01*
X159566767Y-84052129D01*
X159558311Y-84031714D01*
X159489858Y-83929267D01*
X159460537Y-83899946D01*
X159454275Y-83890975D01*
X159446499Y-83867805D01*
X159434787Y-83846357D01*
X159435579Y-83835271D01*
X159432044Y-83824736D01*
X159438027Y-83801044D01*
X159439771Y-83776665D01*
X159447042Y-83765351D01*
X159449153Y-83756993D01*
X159457333Y-83749338D01*
X159468272Y-83732318D01*
X159997851Y-83202740D01*
X159997851Y-83202739D01*
X159997857Y-83202734D01*
X160007702Y-83188001D01*
X160066311Y-83100286D01*
X160113463Y-82986452D01*
X160120966Y-82948733D01*
X160137500Y-82865607D01*
X160137500Y-82742394D01*
X160137500Y-81583534D01*
X160157185Y-81516495D01*
X160209989Y-81470740D01*
X160248897Y-81460176D01*
X160289797Y-81455999D01*
X160456334Y-81400814D01*
X160605656Y-81308712D01*
X160729712Y-81184656D01*
X160821814Y-81035334D01*
X160876999Y-80868797D01*
X160887500Y-80766009D01*
X160887499Y-79865992D01*
X160876999Y-79763203D01*
X160821814Y-79596666D01*
X160729712Y-79447344D01*
X160605656Y-79323288D01*
X160456334Y-79231186D01*
X160289797Y-79176001D01*
X160289795Y-79176000D01*
X160187010Y-79165500D01*
X158836998Y-79165500D01*
X158836981Y-79165501D01*
X158734203Y-79176000D01*
X158734200Y-79176001D01*
X158567668Y-79231185D01*
X158567663Y-79231187D01*
X158418342Y-79323289D01*
X158294289Y-79447342D01*
X158202187Y-79596663D01*
X158202186Y-79596666D01*
X158147001Y-79763203D01*
X158147001Y-79763204D01*
X158147000Y-79763204D01*
X158136500Y-79865983D01*
X158136500Y-80766001D01*
X158136501Y-80766007D01*
X158147000Y-80868796D01*
X158147001Y-80868799D01*
X158202185Y-81035331D01*
X158202186Y-81035334D01*
X158294288Y-81184656D01*
X158418344Y-81308712D01*
X158567666Y-81400814D01*
X158734203Y-81455999D01*
X158775103Y-81460177D01*
X158839793Y-81486573D01*
X158879945Y-81543753D01*
X158886500Y-81583535D01*
X158886500Y-82493547D01*
X158866815Y-82560586D01*
X158850181Y-82581228D01*
X158290227Y-83141181D01*
X158228904Y-83174666D01*
X158202546Y-83177500D01*
X157312998Y-83177500D01*
X157312980Y-83177501D01*
X157210203Y-83188000D01*
X157210200Y-83188001D01*
X157043668Y-83243185D01*
X157043663Y-83243187D01*
X156894342Y-83335289D01*
X156770289Y-83459342D01*
X156678187Y-83608663D01*
X156678185Y-83608668D01*
X156659623Y-83664685D01*
X156623001Y-83775203D01*
X156623001Y-83775204D01*
X156623000Y-83775204D01*
X156612500Y-83877983D01*
X156612500Y-84778001D01*
X156612501Y-84778019D01*
X156621441Y-84865530D01*
X156608671Y-84934223D01*
X156560790Y-84985107D01*
X156493000Y-85002027D01*
X156426824Y-84979611D01*
X156410402Y-84965812D01*
X155380048Y-83935458D01*
X155373860Y-83929270D01*
X155373858Y-83929267D01*
X155286733Y-83842142D01*
X155256754Y-83822110D01*
X155249695Y-83815621D01*
X155236424Y-83793572D01*
X155219921Y-83773825D01*
X155218703Y-83764128D01*
X155213665Y-83755758D01*
X155214421Y-83730035D01*
X155211214Y-83704500D01*
X155215430Y-83695686D01*
X155215718Y-83685919D01*
X155230262Y-83664685D01*
X155241369Y-83641472D01*
X155245936Y-83636654D01*
X155547302Y-83335289D01*
X155933858Y-82948733D01*
X156002312Y-82846285D01*
X156049463Y-82732451D01*
X156049463Y-82732448D01*
X156049465Y-82732444D01*
X156052664Y-82716360D01*
X156054071Y-82709287D01*
X156073500Y-82611606D01*
X156073500Y-81583534D01*
X156093185Y-81516495D01*
X156145989Y-81470740D01*
X156184897Y-81460176D01*
X156225797Y-81455999D01*
X156392334Y-81400814D01*
X156541656Y-81308712D01*
X156665712Y-81184656D01*
X156757814Y-81035334D01*
X156812999Y-80868797D01*
X156823500Y-80766009D01*
X156823499Y-79865992D01*
X156812999Y-79763203D01*
X156757814Y-79596666D01*
X156665712Y-79447344D01*
X156541656Y-79323288D01*
X156392334Y-79231186D01*
X156225797Y-79176001D01*
X156225795Y-79176000D01*
X156123010Y-79165500D01*
X154772998Y-79165500D01*
X154772981Y-79165501D01*
X154670203Y-79176000D01*
X154670200Y-79176001D01*
X154503668Y-79231185D01*
X154503663Y-79231187D01*
X154354342Y-79323289D01*
X154230289Y-79447342D01*
X154138187Y-79596663D01*
X154138186Y-79596666D01*
X154083001Y-79763203D01*
X154083001Y-79763204D01*
X154083000Y-79763204D01*
X154072500Y-79865983D01*
X154072500Y-80766001D01*
X154072501Y-80766007D01*
X154083000Y-80868796D01*
X154083001Y-80868799D01*
X154138185Y-81035331D01*
X154138186Y-81035334D01*
X154230288Y-81184656D01*
X154354344Y-81308712D01*
X154503666Y-81400814D01*
X154670203Y-81455999D01*
X154711103Y-81460177D01*
X154775793Y-81486573D01*
X154815945Y-81543753D01*
X154822500Y-81583535D01*
X154822500Y-82239547D01*
X154802815Y-82306586D01*
X154786181Y-82327228D01*
X153972227Y-83141181D01*
X153910904Y-83174666D01*
X153884546Y-83177500D01*
X152994998Y-83177500D01*
X152994980Y-83177501D01*
X152892203Y-83188000D01*
X152892200Y-83188001D01*
X152725668Y-83243185D01*
X152725663Y-83243187D01*
X152576342Y-83335289D01*
X152452289Y-83459342D01*
X152360187Y-83608663D01*
X152360185Y-83608668D01*
X152341623Y-83664685D01*
X152305001Y-83775203D01*
X152305001Y-83775204D01*
X152305000Y-83775204D01*
X152294500Y-83877983D01*
X152294500Y-84778001D01*
X152294501Y-84778019D01*
X152305000Y-84880796D01*
X152305001Y-84880799D01*
X152353910Y-85028394D01*
X152360186Y-85047334D01*
X152452288Y-85196656D01*
X152576344Y-85320712D01*
X152725666Y-85412814D01*
X152892203Y-85467999D01*
X152994991Y-85478500D01*
X154345008Y-85478499D01*
X154447797Y-85467999D01*
X154614334Y-85412814D01*
X154763656Y-85320712D01*
X154792208Y-85292160D01*
X154853531Y-85258675D01*
X154923223Y-85263659D01*
X154967570Y-85292160D01*
X156576181Y-86900771D01*
X156609666Y-86962094D01*
X156612500Y-86988452D01*
X156612500Y-87878001D01*
X156612501Y-87878019D01*
X156623000Y-87980796D01*
X156623001Y-87980799D01*
X156678185Y-88147331D01*
X156678186Y-88147334D01*
X156770288Y-88296656D01*
X156894344Y-88420712D01*
X157043666Y-88512814D01*
X157210203Y-88567999D01*
X157312991Y-88578500D01*
X158663008Y-88578499D01*
X158765797Y-88567999D01*
X158932334Y-88512814D01*
X159081656Y-88420712D01*
X159205712Y-88296656D01*
X159297814Y-88147334D01*
X159352999Y-87980797D01*
X159363500Y-87878009D01*
X159363499Y-86977992D01*
X159363497Y-86977976D01*
X159352999Y-86875203D01*
X159352998Y-86875200D01*
X159345322Y-86852035D01*
X159297814Y-86708666D01*
X159205712Y-86559344D01*
X159081656Y-86435288D01*
X158955935Y-86357743D01*
X158932336Y-86343187D01*
X158932331Y-86343185D01*
X158916255Y-86337858D01*
X158765797Y-86288001D01*
X158765795Y-86288000D01*
X158663016Y-86277500D01*
X158663009Y-86277500D01*
X157773452Y-86277500D01*
X157706413Y-86257815D01*
X157685771Y-86241181D01*
X157125187Y-85680597D01*
X157091702Y-85619274D01*
X157096686Y-85549582D01*
X157138558Y-85493649D01*
X157204022Y-85469232D01*
X157225461Y-85469557D01*
X157312991Y-85478500D01*
X158663008Y-85478499D01*
X158765797Y-85467999D01*
X158932334Y-85412814D01*
X158984889Y-85380397D01*
X159052281Y-85361958D01*
X159118944Y-85382881D01*
X159137666Y-85398256D01*
X160640181Y-86900771D01*
X160673666Y-86962094D01*
X160676500Y-86988452D01*
X160676500Y-87878001D01*
X160676501Y-87878019D01*
X160687000Y-87980796D01*
X160687001Y-87980799D01*
X160742185Y-88147331D01*
X160742186Y-88147334D01*
X160834288Y-88296656D01*
X160958344Y-88420712D01*
X161107666Y-88512814D01*
X161274203Y-88567999D01*
X161376991Y-88578500D01*
X162727008Y-88578499D01*
X162829797Y-88567999D01*
X162996334Y-88512814D01*
X163145656Y-88420712D01*
X163246819Y-88319549D01*
X163308142Y-88286064D01*
X163377834Y-88291048D01*
X163433767Y-88332920D01*
X163458184Y-88398384D01*
X163458500Y-88407230D01*
X163458500Y-89351547D01*
X163438815Y-89418586D01*
X163422181Y-89439228D01*
X162083229Y-90778181D01*
X162021906Y-90811666D01*
X161995548Y-90814500D01*
X161450449Y-90814500D01*
X161383410Y-90794815D01*
X161337655Y-90742011D01*
X161332744Y-90729507D01*
X161331267Y-90725053D01*
X161329814Y-90720666D01*
X161237712Y-90571344D01*
X161113656Y-90447288D01*
X160964334Y-90355186D01*
X160797797Y-90300001D01*
X160797795Y-90300000D01*
X160695010Y-90289500D01*
X159344998Y-90289500D01*
X159344981Y-90289501D01*
X159242203Y-90300000D01*
X159242200Y-90300001D01*
X159075668Y-90355185D01*
X159075663Y-90355187D01*
X158926342Y-90447289D01*
X158802289Y-90571342D01*
X158710187Y-90720663D01*
X158710186Y-90720667D01*
X158655001Y-90887203D01*
X158655001Y-90887204D01*
X158655000Y-90887204D01*
X158644500Y-90989983D01*
X158644500Y-91879545D01*
X158635856Y-91908982D01*
X158629333Y-91938971D01*
X158625577Y-91943987D01*
X158624815Y-91946584D01*
X158608182Y-91967225D01*
X158527229Y-92048180D01*
X158465907Y-92081666D01*
X158439547Y-92084500D01*
X157448944Y-92084500D01*
X157381905Y-92064815D01*
X157336150Y-92012011D01*
X157325586Y-91947897D01*
X157325720Y-91946584D01*
X157331500Y-91890009D01*
X157331499Y-90989992D01*
X157320999Y-90887203D01*
X157265814Y-90720666D01*
X157173712Y-90571344D01*
X157049656Y-90447288D01*
X156900334Y-90355186D01*
X156733797Y-90300001D01*
X156733795Y-90300000D01*
X156631016Y-90289500D01*
X156631009Y-90289500D01*
X155741452Y-90289500D01*
X155674413Y-90269815D01*
X155653771Y-90253181D01*
X154331819Y-88931229D01*
X154317115Y-88904301D01*
X154300523Y-88878483D01*
X154299631Y-88872282D01*
X154298334Y-88869906D01*
X154295500Y-88843548D01*
X154295500Y-88695534D01*
X154315185Y-88628495D01*
X154367989Y-88582740D01*
X154406897Y-88572176D01*
X154447797Y-88567999D01*
X154614334Y-88512814D01*
X154763656Y-88420712D01*
X154887712Y-88296656D01*
X154979814Y-88147334D01*
X155034999Y-87980797D01*
X155045500Y-87878009D01*
X155045499Y-86977992D01*
X155045497Y-86977976D01*
X155034999Y-86875203D01*
X155034998Y-86875200D01*
X155027322Y-86852035D01*
X154979814Y-86708666D01*
X154887712Y-86559344D01*
X154763656Y-86435288D01*
X154637935Y-86357743D01*
X154614336Y-86343187D01*
X154614331Y-86343185D01*
X154598255Y-86337858D01*
X154447797Y-86288001D01*
X154447795Y-86288000D01*
X154345010Y-86277500D01*
X152994998Y-86277500D01*
X152994981Y-86277501D01*
X152892203Y-86288000D01*
X152892200Y-86288001D01*
X152725666Y-86343186D01*
X152673110Y-86375602D01*
X152605717Y-86394041D01*
X152539054Y-86373117D01*
X152520334Y-86357743D01*
X152045819Y-85883228D01*
X152012334Y-85821905D01*
X152009500Y-85795547D01*
X152009500Y-81583534D01*
X152029185Y-81516495D01*
X152081989Y-81470740D01*
X152120897Y-81460176D01*
X152161797Y-81455999D01*
X152328334Y-81400814D01*
X152477656Y-81308712D01*
X152601712Y-81184656D01*
X152693814Y-81035334D01*
X152748999Y-80868797D01*
X152759500Y-80766009D01*
X152759499Y-79865992D01*
X152748999Y-79763203D01*
X152693814Y-79596666D01*
X152601712Y-79447344D01*
X152477656Y-79323288D01*
X152328334Y-79231186D01*
X152161797Y-79176001D01*
X152161795Y-79176000D01*
X152059010Y-79165500D01*
X150708998Y-79165500D01*
X150708981Y-79165501D01*
X150606203Y-79176000D01*
X150606200Y-79176001D01*
X150439668Y-79231185D01*
X150439663Y-79231187D01*
X150290342Y-79323289D01*
X150166289Y-79447342D01*
X150074187Y-79596663D01*
X150074186Y-79596666D01*
X150019001Y-79763203D01*
X150019001Y-79763204D01*
X150019000Y-79763204D01*
X150008500Y-79865983D01*
X150008500Y-80766001D01*
X150008501Y-80766007D01*
X150019000Y-80868796D01*
X150019001Y-80868799D01*
X150074185Y-81035331D01*
X150074186Y-81035334D01*
X150166288Y-81184656D01*
X150290344Y-81308712D01*
X150439666Y-81400814D01*
X150606203Y-81455999D01*
X150647103Y-81460177D01*
X150711793Y-81486573D01*
X150751945Y-81543753D01*
X150758500Y-81583534D01*
X150758500Y-86167606D01*
X150775034Y-86250733D01*
X150776443Y-86257815D01*
X150780152Y-86276464D01*
X150782537Y-86288451D01*
X150829688Y-86402286D01*
X150832370Y-86406299D01*
X150832374Y-86406313D01*
X150832378Y-86406311D01*
X150898140Y-86504731D01*
X150898141Y-86504732D01*
X150898142Y-86504733D01*
X150985267Y-86591858D01*
X150985268Y-86591858D01*
X150992335Y-86598925D01*
X150992334Y-86598925D01*
X150992338Y-86598928D01*
X152220141Y-87826732D01*
X152265933Y-87872524D01*
X152299418Y-87933847D01*
X152301610Y-87947603D01*
X152305001Y-87980798D01*
X152360185Y-88147331D01*
X152360186Y-88147334D01*
X152452288Y-88296656D01*
X152576344Y-88420712D01*
X152725666Y-88512814D01*
X152892203Y-88567999D01*
X152933103Y-88572177D01*
X152997793Y-88598573D01*
X153037945Y-88655753D01*
X153044500Y-88695535D01*
X153044500Y-89215611D01*
X153068535Y-89336444D01*
X153068540Y-89336461D01*
X153115686Y-89450284D01*
X153115691Y-89450292D01*
X153128596Y-89469603D01*
X153135242Y-89479549D01*
X153184142Y-89552733D01*
X153271267Y-89639858D01*
X153271270Y-89639860D01*
X153279174Y-89647764D01*
X154544181Y-90912771D01*
X154577666Y-90974094D01*
X154580500Y-91000452D01*
X154580500Y-91890001D01*
X154580501Y-91890016D01*
X154582439Y-91908982D01*
X154586414Y-91947897D01*
X154586415Y-91947898D01*
X154573646Y-92016591D01*
X154525765Y-92067475D01*
X154463057Y-92084500D01*
X148149741Y-92084500D01*
X148149721Y-92084499D01*
X148143607Y-92084499D01*
X148020394Y-92084499D01*
X147919597Y-92104548D01*
X147919592Y-92104548D01*
X147899550Y-92108536D01*
X147899548Y-92108537D01*
X147868709Y-92121311D01*
X147868708Y-92121311D01*
X147785721Y-92155684D01*
X147785708Y-92155691D01*
X147683267Y-92224141D01*
X147683263Y-92224144D01*
X144121269Y-95786140D01*
X144034144Y-95873264D01*
X144034138Y-95873272D01*
X143965692Y-95975705D01*
X143965684Y-95975719D01*
X143936716Y-96045658D01*
X143936715Y-96045660D01*
X143932347Y-96056207D01*
X143918537Y-96089548D01*
X143894500Y-96210394D01*
X143894500Y-96244655D01*
X143891800Y-96257383D01*
X143881140Y-96277145D01*
X143874815Y-96298689D01*
X143873602Y-96300541D01*
X143810609Y-96394815D01*
X143810602Y-96394828D01*
X143750264Y-96540498D01*
X143750261Y-96540510D01*
X143719500Y-96695153D01*
X143719500Y-96852846D01*
X143751451Y-97013472D01*
X143749436Y-97013872D01*
X143749984Y-97074356D01*
X143712743Y-97133474D01*
X143649453Y-97163073D01*
X143630695Y-97164500D01*
X130993452Y-97164500D01*
X130926413Y-97144815D01*
X130905771Y-97128181D01*
X128767576Y-94989986D01*
X135785001Y-94989986D01*
X135795494Y-95092697D01*
X135850641Y-95259119D01*
X135850643Y-95259124D01*
X135942684Y-95408345D01*
X136066654Y-95532315D01*
X136215875Y-95624356D01*
X136215880Y-95624358D01*
X136382302Y-95679505D01*
X136382309Y-95679506D01*
X136485019Y-95689999D01*
X136909999Y-95689999D01*
X137410000Y-95689999D01*
X137834972Y-95689999D01*
X137834986Y-95689998D01*
X137937697Y-95679505D01*
X138104119Y-95624358D01*
X138104124Y-95624356D01*
X138253345Y-95532315D01*
X138377315Y-95408345D01*
X138469356Y-95259124D01*
X138469358Y-95259119D01*
X138524505Y-95092697D01*
X138524506Y-95092690D01*
X138534999Y-94989986D01*
X139849001Y-94989986D01*
X139859494Y-95092697D01*
X139914641Y-95259119D01*
X139914643Y-95259124D01*
X140006684Y-95408345D01*
X140130654Y-95532315D01*
X140279875Y-95624356D01*
X140279880Y-95624358D01*
X140446302Y-95679505D01*
X140446309Y-95679506D01*
X140549019Y-95689999D01*
X140973999Y-95689999D01*
X141474000Y-95689999D01*
X141898972Y-95689999D01*
X141898986Y-95689998D01*
X142001697Y-95679505D01*
X142168119Y-95624358D01*
X142168124Y-95624356D01*
X142317345Y-95532315D01*
X142441315Y-95408345D01*
X142533356Y-95259124D01*
X142533358Y-95259119D01*
X142588505Y-95092697D01*
X142588506Y-95092690D01*
X142598999Y-94989986D01*
X142599000Y-94989973D01*
X142599000Y-94790000D01*
X141474000Y-94790000D01*
X141474000Y-95689999D01*
X140973999Y-95689999D01*
X140974000Y-95689998D01*
X140974000Y-94790000D01*
X139849001Y-94790000D01*
X139849001Y-94989986D01*
X138534999Y-94989986D01*
X138535000Y-94989973D01*
X138535000Y-94790000D01*
X137410000Y-94790000D01*
X137410000Y-95689999D01*
X136909999Y-95689999D01*
X136910000Y-95689998D01*
X136910000Y-94790000D01*
X135785001Y-94790000D01*
X135785001Y-94989986D01*
X128767576Y-94989986D01*
X127867603Y-94090013D01*
X135785000Y-94090013D01*
X135785000Y-94290000D01*
X136910000Y-94290000D01*
X137410000Y-94290000D01*
X138534999Y-94290000D01*
X138534999Y-94090029D01*
X138534998Y-94090013D01*
X139849000Y-94090013D01*
X139849000Y-94290000D01*
X140974000Y-94290000D01*
X141474000Y-94290000D01*
X142598999Y-94290000D01*
X142598999Y-94090028D01*
X142598998Y-94090013D01*
X142588505Y-93987302D01*
X142533358Y-93820880D01*
X142533356Y-93820875D01*
X142441315Y-93671654D01*
X142317345Y-93547684D01*
X142168124Y-93455643D01*
X142168119Y-93455641D01*
X142001697Y-93400494D01*
X142001690Y-93400493D01*
X141898986Y-93390000D01*
X141474000Y-93390000D01*
X141474000Y-94290000D01*
X140974000Y-94290000D01*
X140974000Y-93390000D01*
X140549028Y-93390000D01*
X140549012Y-93390001D01*
X140446302Y-93400494D01*
X140279880Y-93455641D01*
X140279875Y-93455643D01*
X140130654Y-93547684D01*
X140006684Y-93671654D01*
X139914643Y-93820875D01*
X139914641Y-93820880D01*
X139859494Y-93987302D01*
X139859493Y-93987309D01*
X139849000Y-94090013D01*
X138534998Y-94090013D01*
X138534998Y-94090012D01*
X138524505Y-93987302D01*
X138469358Y-93820880D01*
X138469356Y-93820875D01*
X138377315Y-93671654D01*
X138253345Y-93547684D01*
X138104124Y-93455643D01*
X138104119Y-93455641D01*
X137937697Y-93400494D01*
X137937690Y-93400493D01*
X137834986Y-93390000D01*
X137410000Y-93390000D01*
X137410000Y-94290000D01*
X136910000Y-94290000D01*
X136910000Y-93390000D01*
X136485028Y-93390000D01*
X136485012Y-93390001D01*
X136382302Y-93400494D01*
X136215880Y-93455641D01*
X136215875Y-93455643D01*
X136066654Y-93547684D01*
X135942684Y-93671654D01*
X135850643Y-93820875D01*
X135850641Y-93820880D01*
X135795494Y-93987302D01*
X135795493Y-93987309D01*
X135785000Y-94090013D01*
X127867603Y-94090013D01*
X126054771Y-92277181D01*
X126021286Y-92215858D01*
X126026270Y-92146166D01*
X126068142Y-92090233D01*
X126133606Y-92065816D01*
X126142452Y-92065500D01*
X126807608Y-92065500D01*
X126807608Y-92065499D01*
X126871164Y-92052858D01*
X126928452Y-92041463D01*
X126981357Y-92019549D01*
X127042286Y-91994312D01*
X127093509Y-91960084D01*
X127093511Y-91960083D01*
X127111747Y-91947898D01*
X127144733Y-91925858D01*
X127231858Y-91838733D01*
X127231858Y-91838731D01*
X127242066Y-91828524D01*
X127242067Y-91828521D01*
X129009858Y-90060733D01*
X129078312Y-89958285D01*
X129125463Y-89844451D01*
X129132966Y-89806733D01*
X129149500Y-89723606D01*
X129149500Y-85028394D01*
X129125463Y-84907548D01*
X129108059Y-84865530D01*
X129089258Y-84820140D01*
X129089255Y-84820136D01*
X129086655Y-84813857D01*
X129078312Y-84793715D01*
X129061256Y-84768190D01*
X129009858Y-84691267D01*
X129009856Y-84691264D01*
X128919637Y-84601045D01*
X128919606Y-84601016D01*
X128353271Y-84034681D01*
X128319786Y-83973358D01*
X128324770Y-83903666D01*
X128353271Y-83859319D01*
X128753247Y-83459344D01*
X129155001Y-83057590D01*
X129223455Y-82955142D01*
X129265171Y-82854429D01*
X129270606Y-82841309D01*
X129276033Y-82814025D01*
X129289649Y-82745574D01*
X129294644Y-82720465D01*
X129294644Y-82592140D01*
X129294643Y-82592114D01*
X129294643Y-81583534D01*
X129314328Y-81516495D01*
X129367132Y-81470740D01*
X129406040Y-81460176D01*
X129446940Y-81455999D01*
X129613477Y-81400814D01*
X129762799Y-81308712D01*
X129886855Y-81184656D01*
X129978957Y-81035334D01*
X130034142Y-80868797D01*
X130044643Y-80766009D01*
X130044642Y-79865992D01*
X130044641Y-79865983D01*
X131575357Y-79865983D01*
X131575357Y-80766001D01*
X131575358Y-80766007D01*
X131585857Y-80868796D01*
X131585858Y-80868799D01*
X131641042Y-81035331D01*
X131641043Y-81035334D01*
X131733145Y-81184656D01*
X131857201Y-81308712D01*
X132006523Y-81400814D01*
X132173060Y-81455999D01*
X132213960Y-81460177D01*
X132278650Y-81486573D01*
X132318802Y-81543753D01*
X132325357Y-81583535D01*
X132325357Y-86276468D01*
X132349392Y-86397301D01*
X132349397Y-86397318D01*
X132396542Y-86511138D01*
X132396545Y-86511144D01*
X132413456Y-86536451D01*
X132428753Y-86559344D01*
X132464999Y-86613590D01*
X132552124Y-86700715D01*
X132552127Y-86700717D01*
X132559510Y-86708100D01*
X133675016Y-87823606D01*
X133675045Y-87823637D01*
X133723932Y-87872523D01*
X133757418Y-87933846D01*
X133759610Y-87947603D01*
X133763001Y-87980798D01*
X133818185Y-88147331D01*
X133818186Y-88147334D01*
X133910288Y-88296656D01*
X134034344Y-88420712D01*
X134183666Y-88512814D01*
X134350203Y-88567999D01*
X134391103Y-88572177D01*
X134455793Y-88598573D01*
X134495945Y-88655753D01*
X134502500Y-88695534D01*
X134502500Y-89469606D01*
X134519034Y-89552733D01*
X134526537Y-89590451D01*
X134573688Y-89704286D01*
X134576370Y-89708299D01*
X134576374Y-89708313D01*
X134576378Y-89708311D01*
X134642141Y-89806732D01*
X134642144Y-89806736D01*
X134733586Y-89898178D01*
X134733608Y-89898198D01*
X135748181Y-90912771D01*
X135781666Y-90974094D01*
X135784500Y-91000452D01*
X135784500Y-91890001D01*
X135784501Y-91890019D01*
X135795000Y-91992796D01*
X135795001Y-91992799D01*
X135848978Y-92155688D01*
X135850186Y-92159334D01*
X135942288Y-92308656D01*
X136066344Y-92432712D01*
X136215666Y-92524814D01*
X136382203Y-92579999D01*
X136484991Y-92590500D01*
X137835008Y-92590499D01*
X137937797Y-92579999D01*
X138104334Y-92524814D01*
X138253656Y-92432712D01*
X138377712Y-92308656D01*
X138469814Y-92159334D01*
X138524999Y-91992797D01*
X138535500Y-91890009D01*
X138535499Y-90989992D01*
X138524999Y-90887203D01*
X138469814Y-90720666D01*
X138377712Y-90571344D01*
X138253656Y-90447288D01*
X138104334Y-90355186D01*
X137937797Y-90300001D01*
X137937795Y-90300000D01*
X137835016Y-90289500D01*
X137835009Y-90289500D01*
X136945452Y-90289500D01*
X136878413Y-90269815D01*
X136857771Y-90253181D01*
X135789819Y-89185229D01*
X135756334Y-89123906D01*
X135753500Y-89097548D01*
X135753500Y-88695534D01*
X135773185Y-88628495D01*
X135825989Y-88582740D01*
X135864897Y-88572176D01*
X135905797Y-88567999D01*
X136072334Y-88512814D01*
X136221656Y-88420712D01*
X136345712Y-88296656D01*
X136437814Y-88147334D01*
X136492999Y-87980797D01*
X136503500Y-87878009D01*
X136503499Y-86977992D01*
X136503497Y-86977976D01*
X136492999Y-86875203D01*
X136492998Y-86875200D01*
X136485322Y-86852035D01*
X136437814Y-86708666D01*
X136345712Y-86559344D01*
X136221656Y-86435288D01*
X136095935Y-86357743D01*
X136072336Y-86343187D01*
X136072331Y-86343185D01*
X136056255Y-86337858D01*
X135905797Y-86288001D01*
X135905795Y-86288000D01*
X135803010Y-86277500D01*
X134452998Y-86277500D01*
X134452981Y-86277501D01*
X134350203Y-86288000D01*
X134350200Y-86288001D01*
X134183668Y-86343185D01*
X134183666Y-86343185D01*
X134183666Y-86343186D01*
X134176150Y-86347822D01*
X134131108Y-86375603D01*
X134063715Y-86394041D01*
X133997052Y-86373116D01*
X133978333Y-86357743D01*
X133612676Y-85992086D01*
X133579191Y-85930763D01*
X133576357Y-85904405D01*
X133576357Y-85085965D01*
X133596042Y-85018926D01*
X133648846Y-84973171D01*
X133718004Y-84963227D01*
X133781560Y-84992252D01*
X133814228Y-85041214D01*
X133815136Y-85040791D01*
X133817897Y-85046713D01*
X133818062Y-85046960D01*
X133818186Y-85047334D01*
X133910288Y-85196656D01*
X134034344Y-85320712D01*
X134183666Y-85412814D01*
X134350203Y-85467999D01*
X134452991Y-85478500D01*
X135803008Y-85478499D01*
X135905797Y-85467999D01*
X136072334Y-85412814D01*
X136124889Y-85380397D01*
X136192281Y-85361958D01*
X136258944Y-85382881D01*
X136277666Y-85398256D01*
X137780181Y-86900771D01*
X137813666Y-86962094D01*
X137816500Y-86988452D01*
X137816500Y-87878001D01*
X137816501Y-87878019D01*
X137827000Y-87980796D01*
X137827001Y-87980799D01*
X137882185Y-88147331D01*
X137882186Y-88147334D01*
X137974288Y-88296656D01*
X138098344Y-88420712D01*
X138247666Y-88512814D01*
X138414203Y-88567999D01*
X138516991Y-88578500D01*
X139867008Y-88578499D01*
X139969797Y-88567999D01*
X140136334Y-88512814D01*
X140285656Y-88420712D01*
X140409712Y-88296656D01*
X140501814Y-88147334D01*
X140556999Y-87980797D01*
X140567500Y-87878009D01*
X140567499Y-86977992D01*
X140567497Y-86977976D01*
X140556999Y-86875203D01*
X140556998Y-86875200D01*
X140549322Y-86852035D01*
X140501814Y-86708666D01*
X140409712Y-86559344D01*
X140285656Y-86435288D01*
X140159935Y-86357743D01*
X140136336Y-86343187D01*
X140136331Y-86343185D01*
X140120255Y-86337858D01*
X139969797Y-86288001D01*
X139969795Y-86288000D01*
X139867016Y-86277500D01*
X139867009Y-86277500D01*
X138977452Y-86277500D01*
X138910413Y-86257815D01*
X138889771Y-86241181D01*
X138329187Y-85680597D01*
X138295702Y-85619274D01*
X138300686Y-85549582D01*
X138342558Y-85493649D01*
X138408022Y-85469232D01*
X138429461Y-85469557D01*
X138516991Y-85478500D01*
X139867008Y-85478499D01*
X139969797Y-85467999D01*
X140136334Y-85412814D01*
X140188889Y-85380397D01*
X140256281Y-85361958D01*
X140322944Y-85382881D01*
X140341666Y-85398256D01*
X141844181Y-86900771D01*
X141877666Y-86962094D01*
X141880500Y-86988452D01*
X141880500Y-87878001D01*
X141880501Y-87878019D01*
X141891000Y-87980796D01*
X141891001Y-87980799D01*
X141946185Y-88147331D01*
X141946186Y-88147334D01*
X142038288Y-88296656D01*
X142162344Y-88420712D01*
X142311666Y-88512814D01*
X142478203Y-88567999D01*
X142580991Y-88578500D01*
X143931008Y-88578499D01*
X144033797Y-88567999D01*
X144200334Y-88512814D01*
X144349656Y-88420712D01*
X144450819Y-88319549D01*
X144512142Y-88286064D01*
X144581834Y-88291048D01*
X144637767Y-88332920D01*
X144662184Y-88398384D01*
X144662500Y-88407230D01*
X144662500Y-89351547D01*
X144642815Y-89418586D01*
X144626181Y-89439228D01*
X143287229Y-90778181D01*
X143225906Y-90811666D01*
X143199548Y-90814500D01*
X142654449Y-90814500D01*
X142587410Y-90794815D01*
X142541655Y-90742011D01*
X142536744Y-90729507D01*
X142535267Y-90725053D01*
X142533814Y-90720666D01*
X142441712Y-90571344D01*
X142317656Y-90447288D01*
X142168334Y-90355186D01*
X142001797Y-90300001D01*
X142001795Y-90300000D01*
X141899010Y-90289500D01*
X140548998Y-90289500D01*
X140548981Y-90289501D01*
X140446203Y-90300000D01*
X140446200Y-90300001D01*
X140279668Y-90355185D01*
X140279663Y-90355187D01*
X140130342Y-90447289D01*
X140006289Y-90571342D01*
X139914187Y-90720663D01*
X139914186Y-90720667D01*
X139859001Y-90887203D01*
X139859001Y-90887204D01*
X139859000Y-90887204D01*
X139848500Y-90989983D01*
X139848500Y-91890001D01*
X139848501Y-91890019D01*
X139859000Y-91992796D01*
X139859001Y-91992799D01*
X139912978Y-92155688D01*
X139914186Y-92159334D01*
X140006288Y-92308656D01*
X140130344Y-92432712D01*
X140279666Y-92524814D01*
X140446203Y-92579999D01*
X140548991Y-92590500D01*
X141438545Y-92590499D01*
X141505584Y-92610183D01*
X141526226Y-92626818D01*
X141587264Y-92687856D01*
X141623829Y-92712288D01*
X141623831Y-92712289D01*
X141689715Y-92756312D01*
X141689716Y-92756312D01*
X141689717Y-92756313D01*
X141689719Y-92756314D01*
X141708178Y-92763959D01*
X141726638Y-92771605D01*
X141726640Y-92771607D01*
X141726641Y-92771607D01*
X141803548Y-92803463D01*
X141905722Y-92823786D01*
X141924389Y-92827499D01*
X141924393Y-92827500D01*
X141924394Y-92827500D01*
X142047607Y-92827500D01*
X142459650Y-92827500D01*
X142526689Y-92847185D01*
X142528541Y-92848398D01*
X142622821Y-92911394D01*
X142622823Y-92911395D01*
X142622827Y-92911397D01*
X142768498Y-92971735D01*
X142768503Y-92971737D01*
X142923153Y-93002499D01*
X142923156Y-93002500D01*
X142923158Y-93002500D01*
X143080844Y-93002500D01*
X143080845Y-93002499D01*
X143235497Y-92971737D01*
X143381179Y-92911394D01*
X143512289Y-92823789D01*
X143623789Y-92712289D01*
X143711394Y-92581179D01*
X143771737Y-92435497D01*
X143802500Y-92280842D01*
X143802500Y-92123158D01*
X143796485Y-92092920D01*
X143798266Y-92073008D01*
X143795069Y-92053273D01*
X143801316Y-92038921D01*
X143802711Y-92023332D01*
X143814975Y-92007543D01*
X143822956Y-91989210D01*
X143843665Y-91970609D01*
X143845573Y-91968153D01*
X143849154Y-91965666D01*
X143857509Y-91960084D01*
X143908733Y-91925858D01*
X143995858Y-91838733D01*
X143995858Y-91838731D01*
X144006066Y-91828524D01*
X144006067Y-91828521D01*
X145773858Y-90060733D01*
X145842312Y-89958285D01*
X145889463Y-89844451D01*
X145896966Y-89806733D01*
X145913500Y-89723606D01*
X145913500Y-85028394D01*
X145889463Y-84907548D01*
X145872059Y-84865530D01*
X145853258Y-84820140D01*
X145853255Y-84820136D01*
X145850655Y-84813857D01*
X145842312Y-84793715D01*
X145825256Y-84768190D01*
X145773858Y-84691267D01*
X145773856Y-84691264D01*
X145683637Y-84601045D01*
X145683606Y-84601016D01*
X145371271Y-84288681D01*
X145337786Y-84227358D01*
X145342770Y-84157666D01*
X145371271Y-84113319D01*
X145788905Y-83695686D01*
X146281857Y-83202734D01*
X146291702Y-83188001D01*
X146350311Y-83100286D01*
X146397463Y-82986452D01*
X146404966Y-82948733D01*
X146421500Y-82865607D01*
X146421500Y-82742394D01*
X146421500Y-81583534D01*
X146441185Y-81516495D01*
X146493989Y-81470740D01*
X146532897Y-81460176D01*
X146573797Y-81455999D01*
X146740334Y-81400814D01*
X146889656Y-81308712D01*
X147013712Y-81184656D01*
X147105814Y-81035334D01*
X147160999Y-80868797D01*
X147171500Y-80766009D01*
X147171499Y-79865992D01*
X147160999Y-79763203D01*
X147105814Y-79596666D01*
X147013712Y-79447344D01*
X146889656Y-79323288D01*
X146740334Y-79231186D01*
X146573797Y-79176001D01*
X146573795Y-79176000D01*
X146471010Y-79165500D01*
X145120998Y-79165500D01*
X145120981Y-79165501D01*
X145018203Y-79176000D01*
X145018200Y-79176001D01*
X144851668Y-79231185D01*
X144851663Y-79231187D01*
X144702342Y-79323289D01*
X144578289Y-79447342D01*
X144486187Y-79596663D01*
X144486186Y-79596666D01*
X144431001Y-79763203D01*
X144431001Y-79763204D01*
X144431000Y-79763204D01*
X144420500Y-79865983D01*
X144420500Y-80766001D01*
X144420501Y-80766007D01*
X144431000Y-80868796D01*
X144431001Y-80868799D01*
X144486185Y-81035331D01*
X144486186Y-81035334D01*
X144578288Y-81184656D01*
X144702344Y-81308712D01*
X144851666Y-81400814D01*
X145018203Y-81455999D01*
X145059103Y-81460177D01*
X145123793Y-81486573D01*
X145163945Y-81543753D01*
X145170500Y-81583535D01*
X145170500Y-82493546D01*
X145150815Y-82560585D01*
X145134181Y-82581227D01*
X144437827Y-83277580D01*
X144376504Y-83311065D01*
X144306812Y-83306081D01*
X144285050Y-83295438D01*
X144200340Y-83243190D01*
X144200334Y-83243186D01*
X144033797Y-83188001D01*
X144033795Y-83188000D01*
X143931010Y-83177500D01*
X142580998Y-83177500D01*
X142580981Y-83177501D01*
X142478203Y-83188000D01*
X142478200Y-83188001D01*
X142311668Y-83243185D01*
X142311663Y-83243187D01*
X142162342Y-83335289D01*
X142038289Y-83459342D01*
X141946187Y-83608663D01*
X141946185Y-83608668D01*
X141927623Y-83664685D01*
X141891001Y-83775203D01*
X141891001Y-83775204D01*
X141891000Y-83775204D01*
X141880500Y-83877983D01*
X141880500Y-84778001D01*
X141880501Y-84778019D01*
X141889441Y-84865530D01*
X141876671Y-84934223D01*
X141828790Y-84985107D01*
X141761000Y-85002027D01*
X141694824Y-84979611D01*
X141678402Y-84965812D01*
X140773270Y-84060680D01*
X140739785Y-83999357D01*
X140744769Y-83929665D01*
X140773266Y-83885323D01*
X141913015Y-82745574D01*
X141913019Y-82745572D01*
X142000144Y-82658447D01*
X142041035Y-82597250D01*
X142068598Y-82556000D01*
X142115749Y-82442165D01*
X142122967Y-82405880D01*
X142139786Y-82321320D01*
X142139786Y-81583534D01*
X142159471Y-81516495D01*
X142212275Y-81470740D01*
X142251183Y-81460176D01*
X142292083Y-81455999D01*
X142458620Y-81400814D01*
X142607942Y-81308712D01*
X142731998Y-81184656D01*
X142824100Y-81035334D01*
X142879285Y-80868797D01*
X142889786Y-80766009D01*
X142889785Y-79865992D01*
X142879285Y-79763203D01*
X142824100Y-79596666D01*
X142731998Y-79447344D01*
X142607942Y-79323288D01*
X142458620Y-79231186D01*
X142292083Y-79176001D01*
X142292081Y-79176000D01*
X142189296Y-79165500D01*
X140839284Y-79165500D01*
X140839267Y-79165501D01*
X140736489Y-79176000D01*
X140736486Y-79176001D01*
X140569954Y-79231185D01*
X140569949Y-79231187D01*
X140420628Y-79323289D01*
X140296575Y-79447342D01*
X140204473Y-79596663D01*
X140204472Y-79596666D01*
X140149287Y-79763203D01*
X140149287Y-79763204D01*
X140149286Y-79763204D01*
X140138786Y-79865983D01*
X140138786Y-80766001D01*
X140138787Y-80766007D01*
X140149286Y-80868796D01*
X140149287Y-80868799D01*
X140204471Y-81035331D01*
X140204472Y-81035334D01*
X140296574Y-81184656D01*
X140420630Y-81308712D01*
X140569952Y-81400814D01*
X140736489Y-81455999D01*
X140777389Y-81460177D01*
X140842079Y-81486573D01*
X140882231Y-81543753D01*
X140888786Y-81583535D01*
X140888786Y-81949261D01*
X140869101Y-82016300D01*
X140852467Y-82036942D01*
X139748227Y-83141181D01*
X139686904Y-83174666D01*
X139660546Y-83177500D01*
X138516998Y-83177500D01*
X138516981Y-83177501D01*
X138414203Y-83188000D01*
X138414200Y-83188001D01*
X138247668Y-83243185D01*
X138247663Y-83243187D01*
X138098342Y-83335289D01*
X137974289Y-83459342D01*
X137882187Y-83608663D01*
X137882185Y-83608668D01*
X137863623Y-83664685D01*
X137827001Y-83775203D01*
X137827001Y-83775204D01*
X137827000Y-83775204D01*
X137816500Y-83877983D01*
X137816500Y-84778001D01*
X137816501Y-84778019D01*
X137825441Y-84865530D01*
X137812671Y-84934223D01*
X137764790Y-84985107D01*
X137697000Y-85002027D01*
X137630824Y-84979611D01*
X137614402Y-84965812D01*
X136582270Y-83933680D01*
X136548785Y-83872357D01*
X136553769Y-83802665D01*
X136582268Y-83758320D01*
X137631300Y-82709289D01*
X137631304Y-82709287D01*
X137718429Y-82622162D01*
X137786882Y-82519715D01*
X137786883Y-82519714D01*
X137819004Y-82442166D01*
X137834034Y-82405881D01*
X137846052Y-82345458D01*
X137858071Y-82285036D01*
X137858071Y-82161822D01*
X137858071Y-81583534D01*
X137877756Y-81516495D01*
X137930560Y-81470740D01*
X137969468Y-81460176D01*
X138010368Y-81455999D01*
X138176905Y-81400814D01*
X138326227Y-81308712D01*
X138450283Y-81184656D01*
X138542385Y-81035334D01*
X138597570Y-80868797D01*
X138608071Y-80766009D01*
X138608070Y-79865992D01*
X138597570Y-79763203D01*
X138542385Y-79596666D01*
X138450283Y-79447344D01*
X138326227Y-79323288D01*
X138176905Y-79231186D01*
X138010368Y-79176001D01*
X138010366Y-79176000D01*
X137907581Y-79165500D01*
X136557569Y-79165500D01*
X136557552Y-79165501D01*
X136454774Y-79176000D01*
X136454771Y-79176001D01*
X136288239Y-79231185D01*
X136288234Y-79231187D01*
X136138913Y-79323289D01*
X136014860Y-79447342D01*
X135922758Y-79596663D01*
X135922757Y-79596666D01*
X135867572Y-79763203D01*
X135867572Y-79763204D01*
X135867571Y-79763204D01*
X135857071Y-79865983D01*
X135857071Y-80766001D01*
X135857072Y-80766007D01*
X135867571Y-80868796D01*
X135867572Y-80868799D01*
X135922756Y-81035331D01*
X135922757Y-81035334D01*
X136014859Y-81184656D01*
X136138915Y-81308712D01*
X136288237Y-81400814D01*
X136454774Y-81455999D01*
X136495674Y-81460177D01*
X136560364Y-81486573D01*
X136600516Y-81543753D01*
X136607071Y-81583535D01*
X136607071Y-81912976D01*
X136587386Y-81980015D01*
X136570752Y-82000657D01*
X135430227Y-83141181D01*
X135368904Y-83174666D01*
X135342546Y-83177500D01*
X134452998Y-83177500D01*
X134452980Y-83177501D01*
X134350203Y-83188000D01*
X134350200Y-83188001D01*
X134183668Y-83243185D01*
X134183663Y-83243187D01*
X134034342Y-83335289D01*
X133910289Y-83459342D01*
X133818187Y-83608663D01*
X133818184Y-83608670D01*
X133818062Y-83609041D01*
X133817908Y-83609262D01*
X133815136Y-83615209D01*
X133814119Y-83614735D01*
X133778288Y-83666485D01*
X133713771Y-83693306D01*
X133644996Y-83680990D01*
X133593797Y-83633445D01*
X133576357Y-83570034D01*
X133576357Y-81583534D01*
X133596042Y-81516495D01*
X133648846Y-81470740D01*
X133687754Y-81460176D01*
X133728654Y-81455999D01*
X133895191Y-81400814D01*
X134044513Y-81308712D01*
X134168569Y-81184656D01*
X134260671Y-81035334D01*
X134315856Y-80868797D01*
X134326357Y-80766009D01*
X134326356Y-79865992D01*
X134315856Y-79763203D01*
X134260671Y-79596666D01*
X134168569Y-79447344D01*
X134044513Y-79323288D01*
X133895191Y-79231186D01*
X133728654Y-79176001D01*
X133728652Y-79176000D01*
X133625867Y-79165500D01*
X132275855Y-79165500D01*
X132275838Y-79165501D01*
X132173060Y-79176000D01*
X132173057Y-79176001D01*
X132006525Y-79231185D01*
X132006520Y-79231187D01*
X131857199Y-79323289D01*
X131733146Y-79447342D01*
X131641044Y-79596663D01*
X131641043Y-79596666D01*
X131585858Y-79763203D01*
X131585858Y-79763204D01*
X131585857Y-79763204D01*
X131575357Y-79865983D01*
X130044641Y-79865983D01*
X130034142Y-79763203D01*
X129978957Y-79596666D01*
X129886855Y-79447344D01*
X129762799Y-79323288D01*
X129613477Y-79231186D01*
X129446940Y-79176001D01*
X129446938Y-79176000D01*
X129344153Y-79165500D01*
X127994141Y-79165500D01*
X127994124Y-79165501D01*
X127891346Y-79176000D01*
X127891343Y-79176001D01*
X127724811Y-79231185D01*
X127724806Y-79231187D01*
X127575485Y-79323289D01*
X127451432Y-79447342D01*
X127359330Y-79596663D01*
X127359329Y-79596666D01*
X127304144Y-79763203D01*
X127304144Y-79763204D01*
X127304143Y-79763204D01*
X127293643Y-79865983D01*
X127293643Y-80766001D01*
X127293644Y-80766007D01*
X127304143Y-80868796D01*
X127304144Y-80868799D01*
X127359328Y-81035331D01*
X127359329Y-81035334D01*
X127451431Y-81184656D01*
X127575487Y-81308712D01*
X127724809Y-81400814D01*
X127891346Y-81455999D01*
X127932246Y-81460177D01*
X127996936Y-81486573D01*
X128037088Y-81543753D01*
X128043643Y-81583535D01*
X128043643Y-82348404D01*
X128023958Y-82415443D01*
X128007324Y-82436085D01*
X127298407Y-83145001D01*
X127237084Y-83178486D01*
X127198126Y-83180678D01*
X127167023Y-83177501D01*
X127167014Y-83177500D01*
X127167009Y-83177500D01*
X127167003Y-83177500D01*
X125816998Y-83177500D01*
X125816981Y-83177501D01*
X125714203Y-83188000D01*
X125714200Y-83188001D01*
X125547668Y-83243185D01*
X125547663Y-83243187D01*
X125398342Y-83335289D01*
X125274289Y-83459342D01*
X125182187Y-83608663D01*
X125182185Y-83608668D01*
X125163623Y-83664685D01*
X125127001Y-83775203D01*
X125127001Y-83775204D01*
X125127000Y-83775204D01*
X125116500Y-83877983D01*
X125116500Y-84778001D01*
X125116501Y-84778019D01*
X125119525Y-84807614D01*
X125106755Y-84876307D01*
X125058874Y-84927191D01*
X124991084Y-84944111D01*
X124924908Y-84921695D01*
X124908486Y-84907896D01*
X123934198Y-83933608D01*
X123929860Y-83929270D01*
X123929858Y-83929267D01*
X123908267Y-83907676D01*
X123886895Y-83868531D01*
X123874786Y-83846356D01*
X123874786Y-83846352D01*
X123874785Y-83846351D01*
X123877535Y-83807915D01*
X123879770Y-83776664D01*
X123879771Y-83776660D01*
X123879772Y-83776660D01*
X123879776Y-83776654D01*
X123908269Y-83732319D01*
X124786158Y-82854431D01*
X124786162Y-82854429D01*
X124873287Y-82767304D01*
X124912053Y-82709287D01*
X124941741Y-82664857D01*
X124988892Y-82551022D01*
X124995120Y-82519714D01*
X125012929Y-82430177D01*
X125012929Y-81583534D01*
X125032614Y-81516495D01*
X125085418Y-81470740D01*
X125124326Y-81460176D01*
X125165226Y-81455999D01*
X125331763Y-81400814D01*
X125481085Y-81308712D01*
X125605141Y-81184656D01*
X125697243Y-81035334D01*
X125752428Y-80868797D01*
X125762929Y-80766009D01*
X125762928Y-79865992D01*
X125752428Y-79763203D01*
X125697243Y-79596666D01*
X125605141Y-79447344D01*
X125481085Y-79323288D01*
X125331763Y-79231186D01*
X125165226Y-79176001D01*
X125165224Y-79176000D01*
X125062439Y-79165500D01*
X123712427Y-79165500D01*
X123712410Y-79165501D01*
X123609632Y-79176000D01*
X123609629Y-79176001D01*
X123443097Y-79231185D01*
X123443092Y-79231187D01*
X123293771Y-79323289D01*
X123169718Y-79447342D01*
X123077616Y-79596663D01*
X123077615Y-79596666D01*
X123022430Y-79763203D01*
X123022430Y-79763204D01*
X123022429Y-79763204D01*
X123011929Y-79865983D01*
X123011929Y-80766001D01*
X123011930Y-80766007D01*
X123022429Y-80868796D01*
X123022430Y-80868799D01*
X123077614Y-81035331D01*
X123077615Y-81035334D01*
X123169717Y-81184656D01*
X123293773Y-81308712D01*
X123443095Y-81400814D01*
X123609632Y-81455999D01*
X123650532Y-81460177D01*
X123715222Y-81486573D01*
X123755374Y-81543753D01*
X123761929Y-81583535D01*
X123761929Y-82058118D01*
X123742244Y-82125157D01*
X123725610Y-82145799D01*
X122730227Y-83141181D01*
X122668904Y-83174666D01*
X122642546Y-83177500D01*
X121752998Y-83177500D01*
X121752980Y-83177501D01*
X121650203Y-83188000D01*
X121650200Y-83188001D01*
X121483668Y-83243185D01*
X121483663Y-83243187D01*
X121334342Y-83335289D01*
X121210289Y-83459342D01*
X121118187Y-83608663D01*
X121118185Y-83608668D01*
X121099623Y-83664685D01*
X121063001Y-83775203D01*
X121063001Y-83775204D01*
X121063000Y-83775204D01*
X121052500Y-83877983D01*
X121052500Y-84778001D01*
X121052501Y-84778019D01*
X121055525Y-84807614D01*
X121042755Y-84876307D01*
X120994874Y-84927191D01*
X120927084Y-84944111D01*
X120860908Y-84921695D01*
X120844486Y-84907896D01*
X119870198Y-83933608D01*
X119865860Y-83929270D01*
X119865858Y-83929267D01*
X119844267Y-83907676D01*
X119822894Y-83868529D01*
X119810787Y-83846357D01*
X119810787Y-83846354D01*
X119810786Y-83846352D01*
X119812990Y-83815549D01*
X119815771Y-83776665D01*
X119815772Y-83776661D01*
X119815773Y-83776661D01*
X119815777Y-83776655D01*
X119844272Y-83732318D01*
X120591569Y-82985022D01*
X120591569Y-82985021D01*
X120591572Y-82985019D01*
X120660026Y-82882571D01*
X120707177Y-82768737D01*
X120719114Y-82708726D01*
X120731215Y-82647894D01*
X120731215Y-82519569D01*
X120731214Y-82519543D01*
X120731214Y-81583534D01*
X120750899Y-81516495D01*
X120803703Y-81470740D01*
X120842611Y-81460176D01*
X120883511Y-81455999D01*
X121050048Y-81400814D01*
X121199370Y-81308712D01*
X121323426Y-81184656D01*
X121415528Y-81035334D01*
X121470713Y-80868797D01*
X121481214Y-80766009D01*
X121481213Y-79865992D01*
X121470713Y-79763203D01*
X121415528Y-79596666D01*
X121323426Y-79447344D01*
X121199370Y-79323288D01*
X121050048Y-79231186D01*
X120883511Y-79176001D01*
X120883509Y-79176000D01*
X120780724Y-79165500D01*
X119430712Y-79165500D01*
X119430695Y-79165501D01*
X119327917Y-79176000D01*
X119327914Y-79176001D01*
X119161382Y-79231185D01*
X119161377Y-79231187D01*
X119012056Y-79323289D01*
X118888003Y-79447342D01*
X118795901Y-79596663D01*
X118795900Y-79596666D01*
X118740715Y-79763203D01*
X118740715Y-79763204D01*
X118740714Y-79763204D01*
X118730214Y-79865983D01*
X118730214Y-80766001D01*
X118730215Y-80766007D01*
X118740714Y-80868796D01*
X118740715Y-80868799D01*
X118795899Y-81035331D01*
X118795900Y-81035334D01*
X118888002Y-81184656D01*
X119012058Y-81308712D01*
X119161380Y-81400814D01*
X119327917Y-81455999D01*
X119368817Y-81460177D01*
X119433507Y-81486573D01*
X119473659Y-81543753D01*
X119480214Y-81583535D01*
X119480214Y-82275833D01*
X119460529Y-82342872D01*
X119443895Y-82363514D01*
X118666227Y-83141181D01*
X118604904Y-83174666D01*
X118578546Y-83177500D01*
X117688998Y-83177500D01*
X117688980Y-83177501D01*
X117586203Y-83188000D01*
X117586200Y-83188001D01*
X117419668Y-83243185D01*
X117419663Y-83243187D01*
X117270342Y-83335289D01*
X117146289Y-83459342D01*
X117054187Y-83608663D01*
X117054185Y-83608668D01*
X117035623Y-83664685D01*
X116999001Y-83775203D01*
X116999001Y-83775204D01*
X116999000Y-83775204D01*
X116988500Y-83877983D01*
X116449500Y-83877983D01*
X116449500Y-81583534D01*
X116469185Y-81516495D01*
X116521989Y-81470740D01*
X116560897Y-81460176D01*
X116601797Y-81455999D01*
X116768334Y-81400814D01*
X116917656Y-81308712D01*
X117041712Y-81184656D01*
X117133814Y-81035334D01*
X117188999Y-80868797D01*
X117199500Y-80766009D01*
X117199499Y-79865992D01*
X117188999Y-79763203D01*
X117133814Y-79596666D01*
X117041712Y-79447344D01*
X116917656Y-79323288D01*
X116768334Y-79231186D01*
X116601797Y-79176001D01*
X116601795Y-79176000D01*
X116499010Y-79165500D01*
X115148998Y-79165500D01*
X115148981Y-79165501D01*
X115046203Y-79176000D01*
X115046200Y-79176001D01*
X114879668Y-79231185D01*
X114879663Y-79231187D01*
X114730342Y-79323289D01*
X114606289Y-79447342D01*
X114514187Y-79596663D01*
X114514186Y-79596666D01*
X114459001Y-79763203D01*
X114459001Y-79763204D01*
X114459000Y-79763204D01*
X114448500Y-79865983D01*
X112260500Y-79865983D01*
X112260500Y-76765983D01*
X114448500Y-76765983D01*
X114448500Y-77666001D01*
X114448501Y-77666019D01*
X114459000Y-77768796D01*
X114459001Y-77768799D01*
X114483092Y-77841500D01*
X114514186Y-77935334D01*
X114606288Y-78084656D01*
X114730344Y-78208712D01*
X114879666Y-78300814D01*
X115046203Y-78355999D01*
X115148991Y-78366500D01*
X116499008Y-78366499D01*
X116601797Y-78355999D01*
X116768334Y-78300814D01*
X116917656Y-78208712D01*
X117041712Y-78084656D01*
X117133814Y-77935334D01*
X117188999Y-77768797D01*
X117199500Y-77666009D01*
X117199499Y-76765992D01*
X117188999Y-76663203D01*
X117133814Y-76496666D01*
X117094912Y-76433595D01*
X117076472Y-76366203D01*
X117097395Y-76299539D01*
X117112765Y-76280823D01*
X123752379Y-69641209D01*
X123813700Y-69607726D01*
X123883392Y-69612710D01*
X123903171Y-69622155D01*
X123934602Y-69640744D01*
X123934605Y-69640744D01*
X123934607Y-69640746D01*
X124092426Y-69686597D01*
X124092429Y-69686597D01*
X124092431Y-69686598D01*
X124129306Y-69689500D01*
X124198548Y-69689500D01*
X124265587Y-69709185D01*
X124311342Y-69761989D01*
X124321286Y-69831147D01*
X124292261Y-69894703D01*
X124286229Y-69901181D01*
X119709874Y-74477534D01*
X119709866Y-74477542D01*
X119706984Y-74480425D01*
X119706981Y-74480428D01*
X119619856Y-74567553D01*
X119588558Y-74614394D01*
X119584059Y-74621126D01*
X119584059Y-74621127D01*
X119551401Y-74670001D01*
X119551399Y-74670004D01*
X119504254Y-74783824D01*
X119504249Y-74783840D01*
X119487893Y-74866072D01*
X119480214Y-74904675D01*
X119480214Y-75948465D01*
X119460529Y-76015504D01*
X119407725Y-76061259D01*
X119368816Y-76071823D01*
X119327916Y-76076001D01*
X119327914Y-76076001D01*
X119161382Y-76131185D01*
X119161377Y-76131187D01*
X119012056Y-76223289D01*
X118888003Y-76347342D01*
X118795901Y-76496663D01*
X118795899Y-76496668D01*
X118776841Y-76554181D01*
X118740715Y-76663203D01*
X118740715Y-76663204D01*
X118740714Y-76663204D01*
X118730214Y-76765983D01*
X118730214Y-77666001D01*
X118730215Y-77666019D01*
X118740714Y-77768796D01*
X118740715Y-77768799D01*
X118764806Y-77841500D01*
X118795900Y-77935334D01*
X118888002Y-78084656D01*
X119012058Y-78208712D01*
X119161380Y-78300814D01*
X119327917Y-78355999D01*
X119430705Y-78366500D01*
X120780722Y-78366499D01*
X120883511Y-78355999D01*
X121050048Y-78300814D01*
X121199370Y-78208712D01*
X121323426Y-78084656D01*
X121415528Y-77935334D01*
X121470713Y-77768797D01*
X121481214Y-77666009D01*
X121481213Y-76765992D01*
X121470713Y-76663203D01*
X121415528Y-76496666D01*
X121323426Y-76347344D01*
X121199370Y-76223288D01*
X121050048Y-76131186D01*
X120883511Y-76076001D01*
X120883509Y-76076000D01*
X120842610Y-76071822D01*
X120777919Y-76045425D01*
X120737768Y-75988244D01*
X120731214Y-75948464D01*
X120731214Y-75276737D01*
X120750899Y-75209698D01*
X120767528Y-75189061D01*
X126013729Y-69942860D01*
X126013733Y-69942858D01*
X126047822Y-69908769D01*
X126083446Y-69889318D01*
X126109142Y-69875287D01*
X126109143Y-69875287D01*
X126109146Y-69875286D01*
X126139022Y-69877423D01*
X126178834Y-69880271D01*
X126178838Y-69880273D01*
X126200764Y-69896688D01*
X126234767Y-69922143D01*
X126234767Y-69922144D01*
X126234770Y-69922146D01*
X126248313Y-69958460D01*
X126259184Y-69987607D01*
X126259500Y-69996453D01*
X126259500Y-71432547D01*
X126239815Y-71499586D01*
X126223181Y-71520228D01*
X123901573Y-73841835D01*
X123901567Y-73841843D01*
X123833121Y-73944276D01*
X123833113Y-73944290D01*
X123804165Y-74014181D01*
X123799776Y-74024778D01*
X123794252Y-74038114D01*
X123785966Y-74058116D01*
X123785966Y-74058119D01*
X123761929Y-74178960D01*
X123761929Y-75948465D01*
X123742244Y-76015504D01*
X123689440Y-76061259D01*
X123650531Y-76071823D01*
X123609631Y-76076001D01*
X123609629Y-76076001D01*
X123443097Y-76131185D01*
X123443092Y-76131187D01*
X123293771Y-76223289D01*
X123169718Y-76347342D01*
X123077616Y-76496663D01*
X123077614Y-76496668D01*
X123058556Y-76554181D01*
X123022430Y-76663203D01*
X123022430Y-76663204D01*
X123022429Y-76663204D01*
X123011929Y-76765983D01*
X123011929Y-77666001D01*
X123011930Y-77666019D01*
X123022429Y-77768796D01*
X123022430Y-77768799D01*
X123046521Y-77841500D01*
X123077615Y-77935334D01*
X123169717Y-78084656D01*
X123293773Y-78208712D01*
X123443095Y-78300814D01*
X123609632Y-78355999D01*
X123712420Y-78366500D01*
X125062437Y-78366499D01*
X125165226Y-78355999D01*
X125331763Y-78300814D01*
X125481085Y-78208712D01*
X125605141Y-78084656D01*
X125697243Y-77935334D01*
X125752428Y-77768797D01*
X125762929Y-77666009D01*
X125762928Y-76765992D01*
X125752428Y-76663203D01*
X125697243Y-76496666D01*
X125605141Y-76347344D01*
X125481085Y-76223288D01*
X125331763Y-76131186D01*
X125165226Y-76076001D01*
X125165224Y-76076000D01*
X125124325Y-76071822D01*
X125059634Y-76045425D01*
X125019483Y-75988244D01*
X125012929Y-75948464D01*
X125012929Y-74551022D01*
X125032614Y-74483983D01*
X125049243Y-74463346D01*
X127283729Y-72228860D01*
X127283733Y-72228858D01*
X127317822Y-72194769D01*
X127350624Y-72176859D01*
X127379142Y-72161287D01*
X127379143Y-72161287D01*
X127379146Y-72161286D01*
X127409022Y-72163423D01*
X127448834Y-72166271D01*
X127448838Y-72166273D01*
X127472136Y-72183715D01*
X127504767Y-72208143D01*
X127504767Y-72208144D01*
X127504770Y-72208146D01*
X127516431Y-72239414D01*
X127529184Y-72273607D01*
X127529500Y-72282453D01*
X127529500Y-76217913D01*
X127509815Y-76284952D01*
X127493181Y-76305594D01*
X127451432Y-76347342D01*
X127359330Y-76496663D01*
X127359328Y-76496668D01*
X127340270Y-76554181D01*
X127304144Y-76663203D01*
X127304144Y-76663204D01*
X127304143Y-76663204D01*
X127293643Y-76765983D01*
X127293643Y-77666001D01*
X127293644Y-77666019D01*
X127304143Y-77768796D01*
X127304144Y-77768799D01*
X127328235Y-77841500D01*
X127359329Y-77935334D01*
X127451431Y-78084656D01*
X127575487Y-78208712D01*
X127724809Y-78300814D01*
X127891346Y-78355999D01*
X127994134Y-78366500D01*
X129344151Y-78366499D01*
X129446940Y-78355999D01*
X129613477Y-78300814D01*
X129762799Y-78208712D01*
X129886855Y-78084656D01*
X129978957Y-77935334D01*
X130034142Y-77768797D01*
X130044643Y-77666009D01*
X130044642Y-76765992D01*
X130034142Y-76663203D01*
X129978957Y-76496666D01*
X129899245Y-76367432D01*
X129880806Y-76300041D01*
X129901729Y-76233378D01*
X129955371Y-76188608D01*
X130024702Y-76179947D01*
X130087709Y-76210144D01*
X130092466Y-76214656D01*
X131492539Y-77614729D01*
X131492542Y-77614733D01*
X131543810Y-77666001D01*
X131547753Y-77669944D01*
X131562952Y-77697781D01*
X131581237Y-77731265D01*
X131583429Y-77745021D01*
X131584666Y-77757134D01*
X131585858Y-77768797D01*
X131641043Y-77935334D01*
X131733145Y-78084656D01*
X131857201Y-78208712D01*
X132006523Y-78300814D01*
X132173060Y-78355999D01*
X132275848Y-78366500D01*
X133625865Y-78366499D01*
X133728654Y-78355999D01*
X133895191Y-78300814D01*
X134044513Y-78208712D01*
X134168569Y-78084656D01*
X134260671Y-77935334D01*
X134315856Y-77768797D01*
X134326357Y-77666009D01*
X134326356Y-76765992D01*
X134315856Y-76663203D01*
X134286771Y-76575433D01*
X134284370Y-76505609D01*
X134320101Y-76445567D01*
X134382621Y-76414374D01*
X134452081Y-76421933D01*
X134492159Y-76448751D01*
X135745263Y-77701855D01*
X135745267Y-77701858D01*
X135838446Y-77764119D01*
X135883251Y-77817731D01*
X135887260Y-77828215D01*
X135922757Y-77935334D01*
X136014859Y-78084656D01*
X136138915Y-78208712D01*
X136288237Y-78300814D01*
X136454774Y-78355999D01*
X136557562Y-78366500D01*
X137907579Y-78366499D01*
X138010368Y-78355999D01*
X138176905Y-78300814D01*
X138326227Y-78208712D01*
X138450283Y-78084656D01*
X138542385Y-77935334D01*
X138597570Y-77768797D01*
X138608071Y-77666009D01*
X138608070Y-77358820D01*
X138627754Y-77291783D01*
X138680558Y-77246028D01*
X138749717Y-77236084D01*
X138813272Y-77265109D01*
X138819751Y-77271141D01*
X139163339Y-77614729D01*
X139163342Y-77614733D01*
X139250467Y-77701858D01*
X139327390Y-77753256D01*
X139333190Y-77757132D01*
X139333193Y-77757134D01*
X139352910Y-77770309D01*
X139352912Y-77770310D01*
X139352915Y-77770312D01*
X139419596Y-77797931D01*
X139419598Y-77797933D01*
X139459840Y-77814601D01*
X139466748Y-77817463D01*
X139527171Y-77829481D01*
X139587593Y-77841500D01*
X139587594Y-77841500D01*
X140083837Y-77841500D01*
X140150876Y-77861185D01*
X140196631Y-77913989D01*
X140201542Y-77926493D01*
X140204472Y-77935334D01*
X140296574Y-78084656D01*
X140420630Y-78208712D01*
X140569952Y-78300814D01*
X140736489Y-78355999D01*
X140839277Y-78366500D01*
X142189294Y-78366499D01*
X142292083Y-78355999D01*
X142458620Y-78300814D01*
X142607942Y-78208712D01*
X142731998Y-78084656D01*
X142824100Y-77935334D01*
X142879285Y-77768797D01*
X142889786Y-77666009D01*
X142889785Y-76765992D01*
X142879285Y-76663203D01*
X142824100Y-76496666D01*
X142731998Y-76347344D01*
X142607942Y-76223288D01*
X142458620Y-76131186D01*
X142292083Y-76076001D01*
X142292081Y-76076000D01*
X142189296Y-76065500D01*
X140839284Y-76065500D01*
X140839267Y-76065501D01*
X140736489Y-76076000D01*
X140736486Y-76076001D01*
X140569954Y-76131185D01*
X140569949Y-76131187D01*
X140420628Y-76223289D01*
X140296575Y-76347342D01*
X140204471Y-76496667D01*
X140201542Y-76505507D01*
X140187671Y-76525538D01*
X140177550Y-76547703D01*
X140168137Y-76553752D01*
X140161768Y-76562951D01*
X140139269Y-76572303D01*
X140118772Y-76585477D01*
X140101666Y-76587936D01*
X140097251Y-76589772D01*
X140083837Y-76590500D01*
X139959652Y-76590500D01*
X139892613Y-76570815D01*
X139871971Y-76554181D01*
X138830971Y-75513181D01*
X138797486Y-75451858D01*
X138802470Y-75382166D01*
X138844342Y-75326233D01*
X138909806Y-75301816D01*
X138918652Y-75301500D01*
X138920793Y-75301500D01*
X138920794Y-75301500D01*
X143961548Y-75301500D01*
X144028587Y-75321185D01*
X144049229Y-75337819D01*
X144735163Y-76023754D01*
X144768648Y-76085077D01*
X144763664Y-76154769D01*
X144721792Y-76210702D01*
X144712586Y-76216969D01*
X144702348Y-76223284D01*
X144702343Y-76223288D01*
X144578289Y-76347342D01*
X144486187Y-76496663D01*
X144486185Y-76496668D01*
X144467127Y-76554181D01*
X144431001Y-76663203D01*
X144431001Y-76663204D01*
X144431000Y-76663204D01*
X144420500Y-76765983D01*
X144420500Y-77666001D01*
X144420501Y-77666019D01*
X144431000Y-77768796D01*
X144431001Y-77768799D01*
X144455092Y-77841500D01*
X144486186Y-77935334D01*
X144578288Y-78084656D01*
X144702344Y-78208712D01*
X144851666Y-78300814D01*
X145018203Y-78355999D01*
X145120991Y-78366500D01*
X146471008Y-78366499D01*
X146573797Y-78355999D01*
X146740334Y-78300814D01*
X146889656Y-78208712D01*
X147013712Y-78084656D01*
X147105814Y-77935334D01*
X147160999Y-77768797D01*
X147171500Y-77666009D01*
X147171499Y-76765992D01*
X147171498Y-76765983D01*
X150008500Y-76765983D01*
X150008500Y-77666001D01*
X150008501Y-77666019D01*
X150019000Y-77768796D01*
X150019001Y-77768799D01*
X150043092Y-77841500D01*
X150074186Y-77935334D01*
X150166288Y-78084656D01*
X150290344Y-78208712D01*
X150439666Y-78300814D01*
X150606203Y-78355999D01*
X150708991Y-78366500D01*
X152059008Y-78366499D01*
X152161797Y-78355999D01*
X152328334Y-78300814D01*
X152477656Y-78208712D01*
X152601712Y-78084656D01*
X152693814Y-77935334D01*
X152748999Y-77768797D01*
X152759500Y-77666009D01*
X152759499Y-76776450D01*
X152779183Y-76709412D01*
X152795813Y-76688775D01*
X157878729Y-71605860D01*
X157878733Y-71605858D01*
X157912822Y-71571769D01*
X157945624Y-71553859D01*
X157974142Y-71538287D01*
X157974143Y-71538287D01*
X157974146Y-71538286D01*
X158004022Y-71540423D01*
X158043834Y-71543271D01*
X158043838Y-71543273D01*
X158075646Y-71567086D01*
X158099767Y-71585143D01*
X158099767Y-71585144D01*
X158099770Y-71585146D01*
X158113385Y-71621654D01*
X158124184Y-71650607D01*
X158124500Y-71659453D01*
X158124500Y-73603547D01*
X158104815Y-73670586D01*
X158088181Y-73691228D01*
X155750227Y-76029181D01*
X155688904Y-76062666D01*
X155662546Y-76065500D01*
X154772998Y-76065500D01*
X154772980Y-76065501D01*
X154670203Y-76076000D01*
X154670200Y-76076001D01*
X154503668Y-76131185D01*
X154503663Y-76131187D01*
X154354342Y-76223289D01*
X154230289Y-76347342D01*
X154138187Y-76496663D01*
X154138185Y-76496668D01*
X154119127Y-76554181D01*
X154083001Y-76663203D01*
X154083001Y-76663204D01*
X154083000Y-76663204D01*
X154072500Y-76765983D01*
X154072500Y-77666001D01*
X154072501Y-77666019D01*
X154083000Y-77768796D01*
X154083001Y-77768799D01*
X154107092Y-77841500D01*
X154138186Y-77935334D01*
X154230288Y-78084656D01*
X154354344Y-78208712D01*
X154503666Y-78300814D01*
X154670203Y-78355999D01*
X154772991Y-78366500D01*
X156123008Y-78366499D01*
X156225797Y-78355999D01*
X156392334Y-78300814D01*
X156541656Y-78208712D01*
X156665712Y-78084656D01*
X156757814Y-77935334D01*
X156812999Y-77768797D01*
X156823500Y-77666009D01*
X156823499Y-76776450D01*
X156843183Y-76709412D01*
X156859813Y-76688775D01*
X159148729Y-74399860D01*
X159148733Y-74399858D01*
X159182822Y-74365769D01*
X159215624Y-74347859D01*
X159244142Y-74332287D01*
X159244143Y-74332287D01*
X159244146Y-74332286D01*
X159274022Y-74334423D01*
X159313834Y-74337271D01*
X159313838Y-74337273D01*
X159333707Y-74352148D01*
X159369767Y-74379143D01*
X159369767Y-74379144D01*
X159369770Y-74379146D01*
X159383385Y-74415654D01*
X159394184Y-74444607D01*
X159394500Y-74453453D01*
X159394500Y-75941500D01*
X159374815Y-76008539D01*
X159322011Y-76054294D01*
X159270500Y-76065500D01*
X158836998Y-76065500D01*
X158836980Y-76065501D01*
X158734203Y-76076000D01*
X158734200Y-76076001D01*
X158567668Y-76131185D01*
X158567663Y-76131187D01*
X158418342Y-76223289D01*
X158294289Y-76347342D01*
X158202187Y-76496663D01*
X158202185Y-76496668D01*
X158183127Y-76554181D01*
X158147001Y-76663203D01*
X158147001Y-76663204D01*
X158147000Y-76663204D01*
X158136500Y-76765983D01*
X158136500Y-77666001D01*
X158136501Y-77666019D01*
X158147000Y-77768796D01*
X158147001Y-77768799D01*
X158171092Y-77841500D01*
X158202186Y-77935334D01*
X158294288Y-78084656D01*
X158418344Y-78208712D01*
X158567666Y-78300814D01*
X158734203Y-78355999D01*
X158836991Y-78366500D01*
X160187008Y-78366499D01*
X160289797Y-78355999D01*
X160456334Y-78300814D01*
X160605656Y-78208712D01*
X160729712Y-78084656D01*
X160821814Y-77935334D01*
X160876999Y-77768797D01*
X160887500Y-77666009D01*
X160887499Y-76765992D01*
X160876999Y-76663203D01*
X160821814Y-76496666D01*
X160729712Y-76347344D01*
X160681819Y-76299451D01*
X160648334Y-76238128D01*
X160645500Y-76211770D01*
X160645500Y-75469454D01*
X160651737Y-75448210D01*
X160653317Y-75426123D01*
X160661390Y-75415337D01*
X160665185Y-75402415D01*
X160681916Y-75387917D01*
X160695187Y-75370189D01*
X160707809Y-75365480D01*
X160717989Y-75356660D01*
X160739904Y-75353508D01*
X160760651Y-75345770D01*
X160773814Y-75348633D01*
X160787147Y-75346716D01*
X160807287Y-75355913D01*
X160828924Y-75360620D01*
X160846651Y-75373890D01*
X160850703Y-75375741D01*
X160857179Y-75381770D01*
X160891267Y-75415858D01*
X160891270Y-75415860D01*
X160895607Y-75420197D01*
X162164181Y-76688771D01*
X162197666Y-76750094D01*
X162200500Y-76776452D01*
X162200500Y-77666001D01*
X162200501Y-77666019D01*
X162211000Y-77768796D01*
X162211001Y-77768799D01*
X162235092Y-77841500D01*
X162266186Y-77935334D01*
X162358288Y-78084656D01*
X162482344Y-78208712D01*
X162631666Y-78300814D01*
X162798203Y-78355999D01*
X162900991Y-78366500D01*
X164251008Y-78366499D01*
X164353797Y-78355999D01*
X164520334Y-78300814D01*
X164669656Y-78208712D01*
X164793712Y-78084656D01*
X164885814Y-77935334D01*
X164940999Y-77768797D01*
X164951500Y-77666009D01*
X164951499Y-76765992D01*
X164940999Y-76663203D01*
X164885814Y-76496666D01*
X164793712Y-76347344D01*
X164669656Y-76223288D01*
X164520334Y-76131186D01*
X164353797Y-76076001D01*
X164353795Y-76076000D01*
X164251016Y-76065500D01*
X164251009Y-76065500D01*
X163361452Y-76065500D01*
X163294413Y-76045815D01*
X163273771Y-76029181D01*
X161951819Y-74707229D01*
X161918334Y-74645906D01*
X161915500Y-74619548D01*
X161915500Y-73183453D01*
X161921738Y-73162207D01*
X161923318Y-73140121D01*
X161931390Y-73129337D01*
X161935185Y-73116414D01*
X161951917Y-73101915D01*
X161965188Y-73084187D01*
X161977810Y-73079478D01*
X161987989Y-73070659D01*
X162009904Y-73067507D01*
X162030652Y-73059769D01*
X162043814Y-73062632D01*
X162057147Y-73060715D01*
X162077288Y-73069913D01*
X162098926Y-73074620D01*
X162116652Y-73087890D01*
X162120703Y-73089740D01*
X162127180Y-73095771D01*
X162161267Y-73129858D01*
X162161268Y-73129858D01*
X162168336Y-73136926D01*
X168502181Y-79470771D01*
X168535666Y-79532094D01*
X168538500Y-79558452D01*
X168538500Y-83060465D01*
X168518815Y-83127504D01*
X168466011Y-83173259D01*
X168427102Y-83183823D01*
X168386202Y-83188001D01*
X168386200Y-83188001D01*
X168219668Y-83243185D01*
X168219663Y-83243187D01*
X168070342Y-83335289D01*
X167946289Y-83459342D01*
X167854187Y-83608663D01*
X167854185Y-83608668D01*
X167835623Y-83664685D01*
X167799001Y-83775203D01*
X167799001Y-83775204D01*
X167799000Y-83775204D01*
X167788500Y-83877983D01*
X167788500Y-84778001D01*
X167788501Y-84778019D01*
X167799000Y-84880796D01*
X167799001Y-84880799D01*
X167847910Y-85028394D01*
X167854186Y-85047334D01*
X167946288Y-85196656D01*
X168070344Y-85320712D01*
X168219666Y-85412814D01*
X168386203Y-85467999D01*
X168488991Y-85478500D01*
X169839008Y-85478499D01*
X169941797Y-85467999D01*
X170108334Y-85412814D01*
X170257656Y-85320712D01*
X170381712Y-85196656D01*
X170473814Y-85047334D01*
X170528999Y-84880797D01*
X170539500Y-84778009D01*
X170539499Y-83877992D01*
X170538923Y-83872357D01*
X170528999Y-83775203D01*
X170528998Y-83775200D01*
X170522965Y-83756993D01*
X170473814Y-83608666D01*
X170381712Y-83459344D01*
X170257656Y-83335288D01*
X170164096Y-83277580D01*
X170108336Y-83243187D01*
X170108331Y-83243185D01*
X170106862Y-83242698D01*
X169941797Y-83188001D01*
X169941795Y-83188000D01*
X169900896Y-83183822D01*
X169836205Y-83157425D01*
X169796054Y-83100244D01*
X169789500Y-83060464D01*
X169789500Y-79186393D01*
X169789499Y-79186389D01*
X169765464Y-79065555D01*
X169765463Y-79065548D01*
X169746992Y-79020957D01*
X169739524Y-78951490D01*
X169770798Y-78889011D01*
X169830887Y-78853358D01*
X169900712Y-78855851D01*
X169949235Y-78885825D01*
X172312181Y-81248771D01*
X172345666Y-81310094D01*
X172348500Y-81336452D01*
X172348500Y-83060465D01*
X172328815Y-83127504D01*
X172276011Y-83173259D01*
X172237102Y-83183823D01*
X172196202Y-83188001D01*
X172196200Y-83188001D01*
X172029668Y-83243185D01*
X172029663Y-83243187D01*
X171880342Y-83335289D01*
X171756289Y-83459342D01*
X171664187Y-83608663D01*
X171664185Y-83608668D01*
X171645623Y-83664685D01*
X171609001Y-83775203D01*
X171609001Y-83775204D01*
X171609000Y-83775204D01*
X171598500Y-83877983D01*
X171598500Y-84778001D01*
X171598501Y-84778019D01*
X171609000Y-84880796D01*
X171609001Y-84880799D01*
X171657910Y-85028394D01*
X171664186Y-85047334D01*
X171756288Y-85196656D01*
X171880344Y-85320712D01*
X172029666Y-85412814D01*
X172196203Y-85467999D01*
X172298991Y-85478500D01*
X173649008Y-85478499D01*
X173751797Y-85467999D01*
X173918334Y-85412814D01*
X174067656Y-85320712D01*
X174191712Y-85196656D01*
X174283814Y-85047334D01*
X174338999Y-84880797D01*
X174349500Y-84778009D01*
X174349499Y-83877992D01*
X174348923Y-83872357D01*
X174338999Y-83775203D01*
X174338998Y-83775200D01*
X174332965Y-83756993D01*
X174283814Y-83608666D01*
X174191712Y-83459344D01*
X174067656Y-83335288D01*
X173974096Y-83277580D01*
X173918336Y-83243187D01*
X173918331Y-83243185D01*
X173916862Y-83242698D01*
X173751797Y-83188001D01*
X173751795Y-83188000D01*
X173710896Y-83183822D01*
X173646205Y-83157425D01*
X173606054Y-83100244D01*
X173599500Y-83060464D01*
X173599500Y-80964393D01*
X173599499Y-80964389D01*
X173575463Y-80843548D01*
X173560909Y-80808412D01*
X173543345Y-80766007D01*
X173528314Y-80729719D01*
X173528309Y-80729710D01*
X173515134Y-80709993D01*
X173515132Y-80709990D01*
X173511256Y-80704190D01*
X173459858Y-80627267D01*
X173372733Y-80540142D01*
X173372729Y-80540139D01*
X164491819Y-71659229D01*
X164458334Y-71597906D01*
X164455500Y-71571548D01*
X164455500Y-69783111D01*
X164475185Y-69716072D01*
X164527989Y-69670317D01*
X164597147Y-69660373D01*
X164642621Y-69676379D01*
X164689801Y-69704281D01*
X164847514Y-69750100D01*
X164847511Y-69750100D01*
X164849998Y-69750295D01*
X164850000Y-69750295D01*
X164850000Y-66705703D01*
X164847503Y-66705900D01*
X164689806Y-66751716D01*
X164689803Y-66751717D01*
X164548449Y-66835313D01*
X164542283Y-66840097D01*
X164540389Y-66837655D01*
X164491580Y-66864239D01*
X164421894Y-66859179D01*
X164389227Y-66838159D01*
X164388031Y-66839702D01*
X164381862Y-66834917D01*
X164273643Y-66770917D01*
X164240398Y-66751256D01*
X164240397Y-66751255D01*
X164240396Y-66751255D01*
X164240393Y-66751254D01*
X164082573Y-66705402D01*
X164082567Y-66705401D01*
X164045701Y-66702500D01*
X164045694Y-66702500D01*
X163614306Y-66702500D01*
X163614298Y-66702500D01*
X163577432Y-66705401D01*
X163577426Y-66705402D01*
X163419606Y-66751254D01*
X163419603Y-66751255D01*
X163278137Y-66834917D01*
X163271969Y-66839702D01*
X163270072Y-66837256D01*
X163221358Y-66863857D01*
X163151666Y-66858873D01*
X163119296Y-66838069D01*
X163118031Y-66839702D01*
X163111862Y-66834917D01*
X163003643Y-66770917D01*
X162970398Y-66751256D01*
X162970397Y-66751255D01*
X162970396Y-66751255D01*
X162970393Y-66751254D01*
X162812573Y-66705402D01*
X162812567Y-66705401D01*
X162775701Y-66702500D01*
X162775694Y-66702500D01*
X162344306Y-66702500D01*
X162344298Y-66702500D01*
X162307432Y-66705401D01*
X162307426Y-66705402D01*
X162149606Y-66751254D01*
X162149603Y-66751255D01*
X162008137Y-66834917D01*
X162001969Y-66839702D01*
X162000072Y-66837256D01*
X161951358Y-66863857D01*
X161881666Y-66858873D01*
X161849296Y-66838069D01*
X161848031Y-66839702D01*
X161841862Y-66834917D01*
X161733643Y-66770917D01*
X161700398Y-66751256D01*
X161700397Y-66751255D01*
X161700396Y-66751255D01*
X161700393Y-66751254D01*
X161542573Y-66705402D01*
X161542567Y-66705401D01*
X161505701Y-66702500D01*
X161505694Y-66702500D01*
X161074306Y-66702500D01*
X161074298Y-66702500D01*
X161037432Y-66705401D01*
X161037426Y-66705402D01*
X160879606Y-66751254D01*
X160879603Y-66751255D01*
X160738137Y-66834917D01*
X160731969Y-66839702D01*
X160730072Y-66837256D01*
X160681358Y-66863857D01*
X160611666Y-66858873D01*
X160579296Y-66838069D01*
X160578031Y-66839702D01*
X160571862Y-66834917D01*
X160463643Y-66770917D01*
X160430398Y-66751256D01*
X160430397Y-66751255D01*
X160430396Y-66751255D01*
X160430393Y-66751254D01*
X160272573Y-66705402D01*
X160272567Y-66705401D01*
X160235701Y-66702500D01*
X160235694Y-66702500D01*
X159804306Y-66702500D01*
X159804298Y-66702500D01*
X159767432Y-66705401D01*
X159767426Y-66705402D01*
X159609606Y-66751254D01*
X159609603Y-66751255D01*
X159468137Y-66834917D01*
X159461969Y-66839702D01*
X159460072Y-66837256D01*
X159411358Y-66863857D01*
X159341666Y-66858873D01*
X159309296Y-66838069D01*
X159308031Y-66839702D01*
X159301862Y-66834917D01*
X159193643Y-66770917D01*
X159160398Y-66751256D01*
X159160397Y-66751255D01*
X159160396Y-66751255D01*
X159160393Y-66751254D01*
X159002573Y-66705402D01*
X159002567Y-66705401D01*
X158965701Y-66702500D01*
X158965694Y-66702500D01*
X158534306Y-66702500D01*
X158534298Y-66702500D01*
X158497432Y-66705401D01*
X158497426Y-66705402D01*
X158339606Y-66751254D01*
X158339603Y-66751255D01*
X158198137Y-66834917D01*
X158191969Y-66839702D01*
X158190072Y-66837256D01*
X158141358Y-66863857D01*
X158071666Y-66858873D01*
X158039296Y-66838069D01*
X158038031Y-66839702D01*
X158031862Y-66834917D01*
X157923643Y-66770917D01*
X157890398Y-66751256D01*
X157890397Y-66751255D01*
X157890396Y-66751255D01*
X157890393Y-66751254D01*
X157732573Y-66705402D01*
X157732567Y-66705401D01*
X157695701Y-66702500D01*
X157695694Y-66702500D01*
X157264306Y-66702500D01*
X157264298Y-66702500D01*
X157227432Y-66705401D01*
X157227426Y-66705402D01*
X157069606Y-66751254D01*
X157069603Y-66751255D01*
X156928137Y-66834917D01*
X156921969Y-66839702D01*
X156920072Y-66837256D01*
X156871358Y-66863857D01*
X156801666Y-66858873D01*
X156769296Y-66838069D01*
X156768031Y-66839702D01*
X156761862Y-66834917D01*
X156653643Y-66770917D01*
X156620398Y-66751256D01*
X156620397Y-66751255D01*
X156620396Y-66751255D01*
X156620393Y-66751254D01*
X156462573Y-66705402D01*
X156462567Y-66705401D01*
X156425701Y-66702500D01*
X156425694Y-66702500D01*
X155994306Y-66702500D01*
X155994298Y-66702500D01*
X155957432Y-66705401D01*
X155957426Y-66705402D01*
X155799606Y-66751254D01*
X155799603Y-66751255D01*
X155658137Y-66834917D01*
X155651969Y-66839702D01*
X155650072Y-66837256D01*
X155601358Y-66863857D01*
X155531666Y-66858873D01*
X155499296Y-66838069D01*
X155498031Y-66839702D01*
X155491862Y-66834917D01*
X155383643Y-66770917D01*
X155350398Y-66751256D01*
X155350397Y-66751255D01*
X155350396Y-66751255D01*
X155350393Y-66751254D01*
X155192573Y-66705402D01*
X155192567Y-66705401D01*
X155155701Y-66702500D01*
X155155694Y-66702500D01*
X154724306Y-66702500D01*
X154724298Y-66702500D01*
X154687432Y-66705401D01*
X154687426Y-66705402D01*
X154529606Y-66751254D01*
X154529603Y-66751255D01*
X154388137Y-66834917D01*
X154388129Y-66834923D01*
X154271923Y-66951129D01*
X154271917Y-66951137D01*
X154188255Y-67092603D01*
X154188254Y-67092606D01*
X154142402Y-67250426D01*
X154142401Y-67250432D01*
X154139500Y-67287298D01*
X154139500Y-69168701D01*
X154142401Y-69205567D01*
X154142402Y-69205573D01*
X154188254Y-69363393D01*
X154188255Y-69363396D01*
X154271917Y-69504862D01*
X154271923Y-69504870D01*
X154388129Y-69621076D01*
X154388133Y-69621079D01*
X154388135Y-69621081D01*
X154529602Y-69704744D01*
X154566641Y-69715505D01*
X154687426Y-69750597D01*
X154687429Y-69750597D01*
X154687431Y-69750598D01*
X154724306Y-69753500D01*
X154724314Y-69753500D01*
X155155686Y-69753500D01*
X155155694Y-69753500D01*
X155192569Y-69750598D01*
X155192571Y-69750597D01*
X155192573Y-69750597D01*
X155248436Y-69734367D01*
X155350398Y-69704744D01*
X155491865Y-69621081D01*
X155491870Y-69621075D01*
X155498031Y-69616298D01*
X155499933Y-69618750D01*
X155548579Y-69592155D01*
X155618274Y-69597104D01*
X155650695Y-69617940D01*
X155651969Y-69616298D01*
X155658132Y-69621078D01*
X155658135Y-69621081D01*
X155799602Y-69704744D01*
X155836641Y-69715505D01*
X155957426Y-69750597D01*
X155957429Y-69750597D01*
X155957431Y-69750598D01*
X155994306Y-69753500D01*
X155994314Y-69753500D01*
X156425686Y-69753500D01*
X156425694Y-69753500D01*
X156462569Y-69750598D01*
X156462571Y-69750597D01*
X156462573Y-69750597D01*
X156620393Y-69704746D01*
X156620394Y-69704744D01*
X156620398Y-69704744D01*
X156667381Y-69676958D01*
X156735102Y-69659776D01*
X156801365Y-69681936D01*
X156845129Y-69736401D01*
X156854500Y-69783691D01*
X156854500Y-70809547D01*
X156834815Y-70876586D01*
X156818181Y-70897228D01*
X151686227Y-76029181D01*
X151624904Y-76062666D01*
X151598546Y-76065500D01*
X150708998Y-76065500D01*
X150708980Y-76065501D01*
X150606203Y-76076000D01*
X150606200Y-76076001D01*
X150439668Y-76131185D01*
X150439663Y-76131187D01*
X150290342Y-76223289D01*
X150166289Y-76347342D01*
X150074187Y-76496663D01*
X150074185Y-76496668D01*
X150055127Y-76554181D01*
X150019001Y-76663203D01*
X150019001Y-76663204D01*
X150019000Y-76663204D01*
X150008500Y-76765983D01*
X147171498Y-76765983D01*
X147160999Y-76663203D01*
X147105814Y-76496666D01*
X147013712Y-76347344D01*
X146889656Y-76223288D01*
X146740334Y-76131186D01*
X146573797Y-76076001D01*
X146573794Y-76076000D01*
X146488586Y-76067295D01*
X146423894Y-76040898D01*
X146386628Y-75991390D01*
X146350312Y-75903716D01*
X146281857Y-75801265D01*
X146281854Y-75801262D01*
X144767822Y-74287232D01*
X144757859Y-74277269D01*
X144757858Y-74277267D01*
X144670733Y-74190142D01*
X144619509Y-74155915D01*
X144568286Y-74121688D01*
X144568283Y-74121686D01*
X144568280Y-74121685D01*
X144495304Y-74091458D01*
X144495300Y-74091457D01*
X144487792Y-74088347D01*
X144454452Y-74074537D01*
X144371911Y-74058119D01*
X144367922Y-74057325D01*
X144367920Y-74057325D01*
X144333608Y-74050500D01*
X144333607Y-74050500D01*
X144333606Y-74050500D01*
X139292852Y-74050500D01*
X139225813Y-74030815D01*
X139205171Y-74014181D01*
X134975498Y-69784508D01*
X134964545Y-69764449D01*
X134949783Y-69747000D01*
X134948119Y-69734367D01*
X134942013Y-69723185D01*
X134943643Y-69700386D01*
X134940659Y-69677728D01*
X134946088Y-69666203D01*
X134946997Y-69653493D01*
X134960695Y-69635194D01*
X134970434Y-69614521D01*
X134985425Y-69602159D01*
X134988869Y-69597560D01*
X134997379Y-69591725D01*
X135073846Y-69543852D01*
X135094446Y-69538067D01*
X135113222Y-69527802D01*
X135127415Y-69528809D01*
X135141114Y-69524963D01*
X135161572Y-69531233D01*
X135182917Y-69532749D01*
X135197878Y-69542362D01*
X135207915Y-69545439D01*
X135214166Y-69552828D01*
X135215762Y-69553853D01*
X135216969Y-69552298D01*
X135223132Y-69557078D01*
X135223135Y-69557081D01*
X135364602Y-69640744D01*
X135394052Y-69649300D01*
X135522426Y-69686597D01*
X135522429Y-69686597D01*
X135522431Y-69686598D01*
X135559306Y-69689500D01*
X135559314Y-69689500D01*
X135990686Y-69689500D01*
X135990694Y-69689500D01*
X136027569Y-69686598D01*
X136027571Y-69686597D01*
X136027573Y-69686597D01*
X136097768Y-69666203D01*
X136185398Y-69640744D01*
X136326865Y-69557081D01*
X136443081Y-69440865D01*
X136526744Y-69299398D01*
X136572598Y-69141569D01*
X136575500Y-69104694D01*
X136575500Y-69038500D01*
X136595185Y-68971461D01*
X136647989Y-68925706D01*
X136699500Y-68914500D01*
X137397632Y-68914500D01*
X137464671Y-68934185D01*
X137510426Y-68986989D01*
X137520990Y-69025899D01*
X137531501Y-69128796D01*
X137531501Y-69128799D01*
X137586685Y-69295331D01*
X137586687Y-69295336D01*
X137621569Y-69351888D01*
X137678788Y-69444656D01*
X137802844Y-69568712D01*
X137874596Y-69612968D01*
X137921321Y-69664915D01*
X137933500Y-69718507D01*
X137933500Y-70180396D01*
X137924062Y-70227844D01*
X137914263Y-70251503D01*
X137914262Y-70251506D01*
X137914260Y-70251511D01*
X137883500Y-70406153D01*
X137883500Y-70563846D01*
X137914261Y-70718489D01*
X137914264Y-70718501D01*
X137974602Y-70864172D01*
X137974609Y-70864185D01*
X138062210Y-70995288D01*
X138062213Y-70995292D01*
X138173707Y-71106786D01*
X138173711Y-71106789D01*
X138304814Y-71194390D01*
X138304827Y-71194397D01*
X138450498Y-71254735D01*
X138450503Y-71254737D01*
X138605153Y-71285499D01*
X138605156Y-71285500D01*
X138605158Y-71285500D01*
X138762844Y-71285500D01*
X138762845Y-71285499D01*
X138917497Y-71254737D01*
X139063179Y-71194394D01*
X139194289Y-71106789D01*
X139305789Y-70995289D01*
X139393394Y-70864179D01*
X139453737Y-70718497D01*
X139484500Y-70563842D01*
X139484500Y-70406158D01*
X139484500Y-70406155D01*
X139484499Y-70406153D01*
X139453739Y-70251511D01*
X139453738Y-70251508D01*
X139453737Y-70251503D01*
X139443937Y-70227844D01*
X139434500Y-70180396D01*
X139434500Y-69718507D01*
X139454185Y-69651468D01*
X139493403Y-69612968D01*
X139565156Y-69568712D01*
X139689212Y-69444656D01*
X139781314Y-69295334D01*
X139836499Y-69128797D01*
X139847000Y-69026009D01*
X139847000Y-69025986D01*
X140646501Y-69025986D01*
X140656994Y-69128697D01*
X140712141Y-69295119D01*
X140712143Y-69295124D01*
X140804184Y-69444345D01*
X140928154Y-69568315D01*
X141077375Y-69660356D01*
X141077380Y-69660358D01*
X141243802Y-69715505D01*
X141243809Y-69715506D01*
X141346519Y-69725999D01*
X141558999Y-69725999D01*
X142059000Y-69725999D01*
X142271472Y-69725999D01*
X142271486Y-69725998D01*
X142374197Y-69715505D01*
X142540619Y-69660358D01*
X142540624Y-69660356D01*
X142689845Y-69568315D01*
X142813815Y-69444345D01*
X142905856Y-69295124D01*
X142905858Y-69295119D01*
X142961005Y-69128697D01*
X142961006Y-69128690D01*
X142971499Y-69025986D01*
X142971500Y-69025973D01*
X142971500Y-68576000D01*
X142059000Y-68576000D01*
X142059000Y-69725999D01*
X141558999Y-69725999D01*
X141559000Y-69725998D01*
X141559000Y-68576000D01*
X140646501Y-68576000D01*
X140646501Y-69025986D01*
X139847000Y-69025986D01*
X139846999Y-68203000D01*
X139846999Y-67626013D01*
X140646500Y-67626013D01*
X140646500Y-68076000D01*
X141559000Y-68076000D01*
X142059000Y-68076000D01*
X142971499Y-68076000D01*
X142971499Y-67626028D01*
X142971498Y-67626013D01*
X142961005Y-67523302D01*
X142905858Y-67356880D01*
X142905856Y-67356875D01*
X142813815Y-67207654D01*
X142689845Y-67083684D01*
X142540624Y-66991643D01*
X142540619Y-66991641D01*
X142374197Y-66936494D01*
X142374190Y-66936493D01*
X142271486Y-66926000D01*
X142059000Y-66926000D01*
X142059000Y-68076000D01*
X141559000Y-68076000D01*
X141559000Y-66926000D01*
X141346529Y-66926000D01*
X141346512Y-66926001D01*
X141243802Y-66936494D01*
X141077380Y-66991641D01*
X141077375Y-66991643D01*
X140928154Y-67083684D01*
X140804184Y-67207654D01*
X140712143Y-67356875D01*
X140712141Y-67356880D01*
X140656994Y-67523302D01*
X140656993Y-67523309D01*
X140646500Y-67626013D01*
X139846999Y-67626013D01*
X139846999Y-67625998D01*
X139846998Y-67625981D01*
X139836499Y-67523203D01*
X139836498Y-67523200D01*
X139781314Y-67356666D01*
X139689212Y-67207344D01*
X139565156Y-67083288D01*
X139415834Y-66991186D01*
X139249297Y-66936001D01*
X139249295Y-66936000D01*
X139146510Y-66925500D01*
X138221498Y-66925500D01*
X138221480Y-66925501D01*
X138118703Y-66936000D01*
X138118700Y-66936001D01*
X137952168Y-66991185D01*
X137952163Y-66991187D01*
X137802842Y-67083289D01*
X137678787Y-67207344D01*
X137652211Y-67250432D01*
X137600456Y-67334342D01*
X137587963Y-67354596D01*
X137536015Y-67401321D01*
X137482424Y-67413500D01*
X136699500Y-67413500D01*
X136632461Y-67393815D01*
X136586706Y-67341011D01*
X136575500Y-67289500D01*
X136575500Y-67223313D01*
X136575499Y-67223298D01*
X136574506Y-67210684D01*
X136572598Y-67186431D01*
X136552904Y-67118643D01*
X136530424Y-67041265D01*
X136525500Y-67006670D01*
X136525500Y-60021328D01*
X136530424Y-59986733D01*
X136564731Y-59868649D01*
X154140000Y-59868649D01*
X154142899Y-59905489D01*
X154142900Y-59905495D01*
X154188716Y-60063193D01*
X154188717Y-60063196D01*
X154272314Y-60204552D01*
X154272321Y-60204561D01*
X154388438Y-60320678D01*
X154388447Y-60320685D01*
X154529801Y-60404281D01*
X154687514Y-60450100D01*
X154687511Y-60450100D01*
X154689998Y-60450295D01*
X154690000Y-60450295D01*
X155190000Y-60450295D01*
X155190001Y-60450295D01*
X155192486Y-60450100D01*
X155350198Y-60404281D01*
X155491552Y-60320685D01*
X155497722Y-60315900D01*
X155499546Y-60318252D01*
X155548595Y-60291445D01*
X155618288Y-60296402D01*
X155651063Y-60317465D01*
X155652278Y-60315900D01*
X155658447Y-60320685D01*
X155799801Y-60404281D01*
X155957514Y-60450100D01*
X155957511Y-60450100D01*
X155959998Y-60450295D01*
X155960000Y-60450295D01*
X156460000Y-60450295D01*
X156460001Y-60450295D01*
X156462486Y-60450100D01*
X156620198Y-60404281D01*
X156761552Y-60320685D01*
X156767722Y-60315900D01*
X156769546Y-60318252D01*
X156818595Y-60291445D01*
X156888288Y-60296402D01*
X156921063Y-60317465D01*
X156922278Y-60315900D01*
X156928447Y-60320685D01*
X157069801Y-60404281D01*
X157227514Y-60450100D01*
X157227511Y-60450100D01*
X157229998Y-60450295D01*
X157230000Y-60450295D01*
X157230000Y-59178000D01*
X156460000Y-59178000D01*
X156460000Y-60450295D01*
X155960000Y-60450295D01*
X155960000Y-59178000D01*
X155190000Y-59178000D01*
X155190000Y-60450295D01*
X154690000Y-60450295D01*
X154690000Y-59178000D01*
X154140000Y-59178000D01*
X154140000Y-59868649D01*
X136564731Y-59868649D01*
X136572597Y-59841573D01*
X136572598Y-59841567D01*
X136575499Y-59804701D01*
X136575500Y-59804694D01*
X136575500Y-57987350D01*
X154140000Y-57987350D01*
X154140000Y-58678000D01*
X154690000Y-58678000D01*
X154690000Y-57405703D01*
X155190000Y-57405703D01*
X155190000Y-58678000D01*
X155960000Y-58678000D01*
X155960000Y-57405703D01*
X156460000Y-57405703D01*
X156460000Y-58678000D01*
X157230000Y-58678000D01*
X157230000Y-57405703D01*
X157227503Y-57405900D01*
X157069806Y-57451716D01*
X157069803Y-57451717D01*
X156928447Y-57535314D01*
X156922278Y-57540100D01*
X156920457Y-57537753D01*
X156871358Y-57564564D01*
X156801666Y-57559580D01*
X156768930Y-57538541D01*
X156767722Y-57540100D01*
X156761552Y-57535314D01*
X156620196Y-57451717D01*
X156620193Y-57451716D01*
X156462494Y-57405900D01*
X156462497Y-57405900D01*
X156460000Y-57405703D01*
X155960000Y-57405703D01*
X155957503Y-57405900D01*
X155799806Y-57451716D01*
X155799803Y-57451717D01*
X155658447Y-57535314D01*
X155652278Y-57540100D01*
X155650457Y-57537753D01*
X155601358Y-57564564D01*
X155531666Y-57559580D01*
X155498930Y-57538541D01*
X155497722Y-57540100D01*
X155491552Y-57535314D01*
X155350196Y-57451717D01*
X155350193Y-57451716D01*
X155192494Y-57405900D01*
X155192497Y-57405900D01*
X155190000Y-57405703D01*
X154690000Y-57405703D01*
X154687503Y-57405900D01*
X154529806Y-57451716D01*
X154529803Y-57451717D01*
X154388447Y-57535314D01*
X154388438Y-57535321D01*
X154272321Y-57651438D01*
X154272314Y-57651447D01*
X154188717Y-57792803D01*
X154188716Y-57792806D01*
X154142900Y-57950504D01*
X154142899Y-57950510D01*
X154140000Y-57987350D01*
X136575500Y-57987350D01*
X136575500Y-57923306D01*
X136572598Y-57886431D01*
X136526744Y-57728602D01*
X136443081Y-57587135D01*
X136443079Y-57587133D01*
X136443076Y-57587129D01*
X136326870Y-57470923D01*
X136326862Y-57470917D01*
X136216590Y-57405703D01*
X136185398Y-57387256D01*
X136185397Y-57387255D01*
X136185396Y-57387255D01*
X136185395Y-57387254D01*
X136102594Y-57363198D01*
X136043709Y-57325591D01*
X136015442Y-57264158D01*
X136015170Y-57264213D01*
X136014943Y-57263076D01*
X136014503Y-57262118D01*
X136014102Y-57258847D01*
X135997122Y-57173486D01*
X135983218Y-57103584D01*
X135973988Y-57081300D01*
X135922878Y-56957908D01*
X135922871Y-56957895D01*
X135835270Y-56826792D01*
X135835267Y-56826788D01*
X135723773Y-56715294D01*
X135723769Y-56715291D01*
X135674076Y-56682087D01*
X135629271Y-56628475D01*
X135620564Y-56559150D01*
X135650719Y-56496122D01*
X135655286Y-56491304D01*
X136112773Y-56033818D01*
X136620772Y-55525819D01*
X136682095Y-55492334D01*
X136708453Y-55489500D01*
X139253607Y-55489500D01*
X139314029Y-55477481D01*
X139374452Y-55465463D01*
X139407792Y-55451652D01*
X139488286Y-55418312D01*
X139539509Y-55384084D01*
X139590733Y-55349858D01*
X139677858Y-55262733D01*
X139677859Y-55262731D01*
X139684925Y-55255665D01*
X139684928Y-55255661D01*
X140860729Y-54079860D01*
X140860733Y-54079858D01*
X140947858Y-53992733D01*
X141016311Y-53890286D01*
X141063463Y-53776452D01*
X141075481Y-53716029D01*
X141087500Y-53655607D01*
X141087500Y-53532393D01*
X141087500Y-53312980D01*
X141107185Y-53245941D01*
X141155208Y-53202494D01*
X141169818Y-53195050D01*
X141341786Y-53070109D01*
X141341788Y-53070106D01*
X141341792Y-53070104D01*
X141492104Y-52919792D01*
X141492106Y-52919788D01*
X141492109Y-52919786D01*
X141617048Y-52747820D01*
X141617050Y-52747817D01*
X141617051Y-52747816D01*
X141713557Y-52558412D01*
X141779246Y-52356243D01*
X141812500Y-52146287D01*
X141812500Y-51933713D01*
X141779246Y-51723757D01*
X141713557Y-51521588D01*
X141617051Y-51332184D01*
X141617049Y-51332181D01*
X141617048Y-51332179D01*
X141492109Y-51160213D01*
X141341786Y-51009890D01*
X141169820Y-50884951D01*
X141169115Y-50884591D01*
X141161054Y-50880485D01*
X141110259Y-50832512D01*
X141093463Y-50764692D01*
X141115999Y-50698556D01*
X141161054Y-50659515D01*
X141169816Y-50655051D01*
X141259554Y-50589853D01*
X141341786Y-50530109D01*
X141341788Y-50530106D01*
X141341792Y-50530104D01*
X141492104Y-50379792D01*
X141492106Y-50379788D01*
X141492109Y-50379786D01*
X141617048Y-50207820D01*
X141617047Y-50207820D01*
X141617051Y-50207816D01*
X141713557Y-50018412D01*
X141779246Y-49816243D01*
X141812500Y-49606287D01*
X141812500Y-49393713D01*
X149269500Y-49393713D01*
X149269500Y-49606286D01*
X149302753Y-49816239D01*
X149368444Y-50018414D01*
X149464951Y-50207820D01*
X149589890Y-50379786D01*
X149703430Y-50493326D01*
X149736915Y-50554649D01*
X149731931Y-50624341D01*
X149690059Y-50680274D01*
X149659083Y-50697189D01*
X149527669Y-50746203D01*
X149527664Y-50746206D01*
X149412455Y-50832452D01*
X149412452Y-50832455D01*
X149326206Y-50947664D01*
X149326202Y-50947671D01*
X149275908Y-51082517D01*
X149269501Y-51142116D01*
X149269501Y-51142123D01*
X149269500Y-51142135D01*
X149269500Y-52937870D01*
X149269501Y-52937876D01*
X149275908Y-52997483D01*
X149326202Y-53132328D01*
X149326206Y-53132335D01*
X149412452Y-53247544D01*
X149412455Y-53247547D01*
X149527664Y-53333793D01*
X149527671Y-53333797D01*
X149662517Y-53384091D01*
X149662516Y-53384091D01*
X149669444Y-53384835D01*
X149722127Y-53390500D01*
X151517872Y-53390499D01*
X151577483Y-53384091D01*
X151712331Y-53333796D01*
X151827546Y-53247546D01*
X151913796Y-53132331D01*
X151964091Y-52997483D01*
X151970500Y-52937873D01*
X151970499Y-52913979D01*
X151973330Y-52900963D01*
X151983940Y-52881525D01*
X151990179Y-52860275D01*
X152006803Y-52839643D01*
X152006808Y-52839636D01*
X152006811Y-52839634D01*
X152006818Y-52839626D01*
X152677037Y-52169408D01*
X152694075Y-52232993D01*
X152759901Y-52347007D01*
X152852993Y-52440099D01*
X152967007Y-52505925D01*
X153030590Y-52522962D01*
X152398282Y-53155269D01*
X152398282Y-53155270D01*
X152452449Y-53194624D01*
X152641782Y-53291095D01*
X152843870Y-53356757D01*
X153053754Y-53390000D01*
X153266246Y-53390000D01*
X153476127Y-53356757D01*
X153476130Y-53356757D01*
X153678217Y-53291095D01*
X153867554Y-53194622D01*
X153921716Y-53155270D01*
X153921717Y-53155270D01*
X153289408Y-52522962D01*
X153352993Y-52505925D01*
X153467007Y-52440099D01*
X153560099Y-52347007D01*
X153625925Y-52232993D01*
X153642962Y-52169408D01*
X154275270Y-52801717D01*
X154275270Y-52801716D01*
X154314622Y-52747555D01*
X154319232Y-52738507D01*
X154367205Y-52687709D01*
X154435025Y-52670912D01*
X154501161Y-52693447D01*
X154540204Y-52738504D01*
X154544949Y-52747817D01*
X154669890Y-52919786D01*
X154820213Y-53070109D01*
X154992179Y-53195048D01*
X154992181Y-53195049D01*
X154992184Y-53195051D01*
X155181588Y-53291557D01*
X155383757Y-53357246D01*
X155593713Y-53390500D01*
X155593714Y-53390500D01*
X155806286Y-53390500D01*
X155806287Y-53390500D01*
X156016243Y-53357246D01*
X156031837Y-53352178D01*
X156101676Y-53350182D01*
X156157837Y-53382428D01*
X158088181Y-55312771D01*
X158121666Y-55374094D01*
X158124500Y-55400452D01*
X158124500Y-57372888D01*
X158104815Y-57439927D01*
X158052011Y-57485682D01*
X157982853Y-57495626D01*
X157937380Y-57479621D01*
X157890194Y-57451716D01*
X157732494Y-57405900D01*
X157732497Y-57405900D01*
X157730000Y-57405703D01*
X157730000Y-60450295D01*
X157730001Y-60450295D01*
X157732486Y-60450100D01*
X157890198Y-60404281D01*
X158031550Y-60320686D01*
X158037717Y-60315903D01*
X158039630Y-60318369D01*
X158088222Y-60291802D01*
X158157917Y-60296749D01*
X158190762Y-60317853D01*
X158191969Y-60316298D01*
X158198132Y-60321078D01*
X158198135Y-60321081D01*
X158339602Y-60404744D01*
X158381224Y-60416836D01*
X158497426Y-60450597D01*
X158497429Y-60450597D01*
X158497431Y-60450598D01*
X158534306Y-60453500D01*
X158534314Y-60453500D01*
X158965686Y-60453500D01*
X158965694Y-60453500D01*
X159002569Y-60450598D01*
X159002571Y-60450597D01*
X159002573Y-60450597D01*
X159044191Y-60438505D01*
X159160398Y-60404744D01*
X159301865Y-60321081D01*
X159301870Y-60321075D01*
X159308031Y-60316298D01*
X159309933Y-60318750D01*
X159358579Y-60292155D01*
X159428274Y-60297104D01*
X159460695Y-60317940D01*
X159461969Y-60316298D01*
X159468132Y-60321078D01*
X159468135Y-60321081D01*
X159609602Y-60404744D01*
X159651224Y-60416836D01*
X159767426Y-60450597D01*
X159767429Y-60450597D01*
X159767431Y-60450598D01*
X159804306Y-60453500D01*
X159804314Y-60453500D01*
X160235686Y-60453500D01*
X160235694Y-60453500D01*
X160272569Y-60450598D01*
X160272571Y-60450597D01*
X160272573Y-60450597D01*
X160314191Y-60438505D01*
X160430398Y-60404744D01*
X160571865Y-60321081D01*
X160571870Y-60321075D01*
X160578031Y-60316298D01*
X160579933Y-60318750D01*
X160628579Y-60292155D01*
X160698274Y-60297104D01*
X160730695Y-60317940D01*
X160731969Y-60316298D01*
X160738132Y-60321078D01*
X160738135Y-60321081D01*
X160879602Y-60404744D01*
X160921224Y-60416836D01*
X161037426Y-60450597D01*
X161037429Y-60450597D01*
X161037431Y-60450598D01*
X161074306Y-60453500D01*
X161074314Y-60453500D01*
X161505686Y-60453500D01*
X161505694Y-60453500D01*
X161542569Y-60450598D01*
X161542571Y-60450597D01*
X161542573Y-60450597D01*
X161584191Y-60438505D01*
X161700398Y-60404744D01*
X161841865Y-60321081D01*
X161841870Y-60321075D01*
X161848031Y-60316298D01*
X161849933Y-60318750D01*
X161898579Y-60292155D01*
X161968274Y-60297104D01*
X162000695Y-60317940D01*
X162001969Y-60316298D01*
X162008132Y-60321078D01*
X162008135Y-60321081D01*
X162149602Y-60404744D01*
X162191224Y-60416836D01*
X162307426Y-60450597D01*
X162307429Y-60450597D01*
X162307431Y-60450598D01*
X162344306Y-60453500D01*
X162344314Y-60453500D01*
X162775686Y-60453500D01*
X162775694Y-60453500D01*
X162812569Y-60450598D01*
X162812571Y-60450597D01*
X162812573Y-60450597D01*
X162854191Y-60438505D01*
X162970398Y-60404744D01*
X163111865Y-60321081D01*
X163111870Y-60321075D01*
X163118031Y-60316298D01*
X163119933Y-60318750D01*
X163168579Y-60292155D01*
X163238274Y-60297104D01*
X163270695Y-60317940D01*
X163271969Y-60316298D01*
X163278132Y-60321078D01*
X163278135Y-60321081D01*
X163419602Y-60404744D01*
X163461224Y-60416836D01*
X163577426Y-60450597D01*
X163577429Y-60450597D01*
X163577431Y-60450598D01*
X163614306Y-60453500D01*
X163614314Y-60453500D01*
X164045686Y-60453500D01*
X164045694Y-60453500D01*
X164082569Y-60450598D01*
X164082571Y-60450597D01*
X164082573Y-60450597D01*
X164124191Y-60438505D01*
X164240398Y-60404744D01*
X164381865Y-60321081D01*
X164381870Y-60321075D01*
X164388031Y-60316298D01*
X164389933Y-60318750D01*
X164438579Y-60292155D01*
X164508274Y-60297104D01*
X164540695Y-60317940D01*
X164541969Y-60316298D01*
X164548132Y-60321078D01*
X164548135Y-60321081D01*
X164689602Y-60404744D01*
X164731224Y-60416836D01*
X164847426Y-60450597D01*
X164847429Y-60450597D01*
X164847431Y-60450598D01*
X164884306Y-60453500D01*
X164884314Y-60453500D01*
X165315686Y-60453500D01*
X165315694Y-60453500D01*
X165352569Y-60450598D01*
X165460905Y-60419123D01*
X165530774Y-60419322D01*
X165589444Y-60457264D01*
X165618288Y-60520902D01*
X165619500Y-60538199D01*
X165619500Y-66618320D01*
X165599815Y-66685359D01*
X165547011Y-66731114D01*
X165477853Y-66741058D01*
X165460906Y-66737397D01*
X165352492Y-66705900D01*
X165350000Y-66705703D01*
X165350000Y-69750295D01*
X165350001Y-69750295D01*
X165352486Y-69750100D01*
X165510198Y-69704281D01*
X165651550Y-69620686D01*
X165657717Y-69615903D01*
X165659630Y-69618369D01*
X165708222Y-69591802D01*
X165777917Y-69596749D01*
X165810762Y-69617853D01*
X165811969Y-69616298D01*
X165818132Y-69621078D01*
X165818135Y-69621081D01*
X165959602Y-69704744D01*
X165996641Y-69715505D01*
X166117426Y-69750597D01*
X166117429Y-69750597D01*
X166117431Y-69750598D01*
X166154306Y-69753500D01*
X166154314Y-69753500D01*
X166585686Y-69753500D01*
X166585694Y-69753500D01*
X166622569Y-69750598D01*
X166622571Y-69750597D01*
X166622573Y-69750597D01*
X166678436Y-69734367D01*
X166780398Y-69704744D01*
X166921865Y-69621081D01*
X167038081Y-69504865D01*
X167121744Y-69363398D01*
X167167598Y-69205569D01*
X167170500Y-69168694D01*
X167170500Y-69102500D01*
X167190185Y-69035461D01*
X167242989Y-68989706D01*
X167294500Y-68978500D01*
X168004001Y-68978500D01*
X168071040Y-68998185D01*
X168116795Y-69050989D01*
X168128001Y-69102500D01*
X168128001Y-69153018D01*
X168138500Y-69255796D01*
X168138501Y-69255799D01*
X168193615Y-69422119D01*
X168193686Y-69422334D01*
X168285788Y-69571656D01*
X168409844Y-69695712D01*
X168481596Y-69739968D01*
X168528321Y-69791915D01*
X168540500Y-69845507D01*
X168540500Y-70180396D01*
X168531062Y-70227844D01*
X168521263Y-70251503D01*
X168521262Y-70251506D01*
X168521260Y-70251511D01*
X168490500Y-70406153D01*
X168490500Y-70563846D01*
X168521261Y-70718489D01*
X168521264Y-70718501D01*
X168581602Y-70864172D01*
X168581609Y-70864185D01*
X168669210Y-70995288D01*
X168669213Y-70995292D01*
X168780707Y-71106786D01*
X168780711Y-71106789D01*
X168911814Y-71194390D01*
X168911827Y-71194397D01*
X169057498Y-71254735D01*
X169057503Y-71254737D01*
X169212153Y-71285499D01*
X169212156Y-71285500D01*
X169212158Y-71285500D01*
X169369844Y-71285500D01*
X169369845Y-71285499D01*
X169524497Y-71254737D01*
X169670179Y-71194394D01*
X169801289Y-71106789D01*
X169912789Y-70995289D01*
X170000394Y-70864179D01*
X170060737Y-70718497D01*
X170091500Y-70563842D01*
X170091500Y-70406158D01*
X170091500Y-70406155D01*
X170091499Y-70406153D01*
X170060739Y-70251511D01*
X170060738Y-70251508D01*
X170060737Y-70251503D01*
X170050937Y-70227844D01*
X170041500Y-70180396D01*
X170041500Y-69845507D01*
X170061185Y-69778468D01*
X170100403Y-69739968D01*
X170172156Y-69695712D01*
X170296212Y-69571656D01*
X170388314Y-69422334D01*
X170443499Y-69255797D01*
X170454000Y-69153009D01*
X170454000Y-69152986D01*
X171253501Y-69152986D01*
X171263994Y-69255697D01*
X171319141Y-69422119D01*
X171319143Y-69422124D01*
X171411184Y-69571345D01*
X171535154Y-69695315D01*
X171684375Y-69787356D01*
X171684380Y-69787358D01*
X171850802Y-69842505D01*
X171850809Y-69842506D01*
X171953519Y-69852999D01*
X172165999Y-69852999D01*
X172666000Y-69852999D01*
X172878472Y-69852999D01*
X172878486Y-69852998D01*
X172981197Y-69842505D01*
X173147619Y-69787358D01*
X173147624Y-69787356D01*
X173296845Y-69695315D01*
X173420815Y-69571345D01*
X173512856Y-69422124D01*
X173512858Y-69422119D01*
X173568005Y-69255697D01*
X173568006Y-69255690D01*
X173578499Y-69152986D01*
X173578500Y-69152973D01*
X173578500Y-68703000D01*
X172666000Y-68703000D01*
X172666000Y-69852999D01*
X172165999Y-69852999D01*
X172166000Y-69852998D01*
X172166000Y-68703000D01*
X171253501Y-68703000D01*
X171253501Y-69152986D01*
X170454000Y-69152986D01*
X170453999Y-68203000D01*
X170453999Y-67753013D01*
X171253500Y-67753013D01*
X171253500Y-68203000D01*
X172166000Y-68203000D01*
X172666000Y-68203000D01*
X173578499Y-68203000D01*
X173578499Y-67753028D01*
X173578498Y-67753013D01*
X173568005Y-67650302D01*
X173512858Y-67483880D01*
X173512856Y-67483875D01*
X173420815Y-67334654D01*
X173296845Y-67210684D01*
X173147624Y-67118643D01*
X173147619Y-67118641D01*
X172981197Y-67063494D01*
X172981190Y-67063493D01*
X172878486Y-67053000D01*
X172666000Y-67053000D01*
X172666000Y-68203000D01*
X172166000Y-68203000D01*
X172166000Y-67053000D01*
X171953529Y-67053000D01*
X171953512Y-67053001D01*
X171850802Y-67063494D01*
X171684380Y-67118641D01*
X171684375Y-67118643D01*
X171535154Y-67210684D01*
X171411184Y-67334654D01*
X171319143Y-67483875D01*
X171319141Y-67483880D01*
X171263994Y-67650302D01*
X171263993Y-67650309D01*
X171253500Y-67753013D01*
X170453999Y-67753013D01*
X170453999Y-67752998D01*
X170453998Y-67752981D01*
X170443499Y-67650203D01*
X170443498Y-67650200D01*
X170401414Y-67523200D01*
X170388314Y-67483666D01*
X170296212Y-67334344D01*
X170172156Y-67210288D01*
X170022834Y-67118186D01*
X169856297Y-67063001D01*
X169856295Y-67063000D01*
X169753510Y-67052500D01*
X168828498Y-67052500D01*
X168828480Y-67052501D01*
X168725703Y-67063000D01*
X168725700Y-67063001D01*
X168559168Y-67118185D01*
X168559163Y-67118187D01*
X168409842Y-67210289D01*
X168285789Y-67334342D01*
X168272022Y-67356663D01*
X168236965Y-67413500D01*
X168233821Y-67418597D01*
X168181873Y-67465321D01*
X168128282Y-67477500D01*
X167294500Y-67477500D01*
X167227461Y-67457815D01*
X167181706Y-67405011D01*
X167170500Y-67353500D01*
X167170500Y-67287313D01*
X167170499Y-67287298D01*
X167167598Y-67250432D01*
X167167597Y-67250426D01*
X167125424Y-67105265D01*
X167120500Y-67070670D01*
X167120500Y-60085328D01*
X167125424Y-60050733D01*
X167167597Y-59905573D01*
X167167598Y-59905567D01*
X167170499Y-59868701D01*
X167170500Y-59868694D01*
X167170500Y-57987306D01*
X167167598Y-57950431D01*
X167167597Y-57950426D01*
X167125424Y-57805265D01*
X167120500Y-57770670D01*
X167120500Y-47424079D01*
X167091659Y-47279092D01*
X167091658Y-47279091D01*
X167091658Y-47279087D01*
X167091656Y-47279082D01*
X167035087Y-47142511D01*
X167035080Y-47142498D01*
X166952951Y-47019584D01*
X166952948Y-47019580D01*
X166848419Y-46915051D01*
X166848415Y-46915048D01*
X166725501Y-46832919D01*
X166725488Y-46832912D01*
X166588917Y-46776343D01*
X166588907Y-46776340D01*
X166443920Y-46747500D01*
X166443918Y-46747500D01*
X150693918Y-46747500D01*
X150546082Y-46747500D01*
X150546080Y-46747500D01*
X150401092Y-46776340D01*
X150401082Y-46776343D01*
X150264511Y-46832912D01*
X150264498Y-46832919D01*
X150141584Y-46915048D01*
X150141580Y-46915051D01*
X150037051Y-47019580D01*
X150037048Y-47019584D01*
X149954919Y-47142498D01*
X149954912Y-47142511D01*
X149898343Y-47279082D01*
X149898340Y-47279092D01*
X149869500Y-47424079D01*
X149869500Y-48312779D01*
X149849815Y-48379818D01*
X149818385Y-48413097D01*
X149740211Y-48469893D01*
X149740205Y-48469898D01*
X149589890Y-48620213D01*
X149464951Y-48792179D01*
X149368444Y-48981585D01*
X149302753Y-49183760D01*
X149269500Y-49393713D01*
X141812500Y-49393713D01*
X141779246Y-49183757D01*
X141713557Y-48981588D01*
X141617051Y-48792184D01*
X141617049Y-48792181D01*
X141617048Y-48792179D01*
X141492109Y-48620213D01*
X141341786Y-48469890D01*
X141169820Y-48344951D01*
X140980414Y-48248444D01*
X140980413Y-48248443D01*
X140980412Y-48248443D01*
X140778243Y-48182754D01*
X140778241Y-48182753D01*
X140778240Y-48182753D01*
X140616957Y-48157208D01*
X140568287Y-48149500D01*
X140355713Y-48149500D01*
X140307042Y-48157208D01*
X140145760Y-48182753D01*
X139943585Y-48248444D01*
X139754179Y-48344951D01*
X139582213Y-48469890D01*
X139431890Y-48620213D01*
X139306949Y-48792182D01*
X139302484Y-48800946D01*
X139254509Y-48851742D01*
X139186688Y-48868536D01*
X139120553Y-48845998D01*
X139081516Y-48800946D01*
X139077050Y-48792182D01*
X138952109Y-48620213D01*
X138801786Y-48469890D01*
X138629820Y-48344951D01*
X138440414Y-48248444D01*
X138440413Y-48248443D01*
X138440412Y-48248443D01*
X138238243Y-48182754D01*
X138238241Y-48182753D01*
X138238240Y-48182753D01*
X138076957Y-48157208D01*
X138028287Y-48149500D01*
X137815713Y-48149500D01*
X137767042Y-48157208D01*
X137605760Y-48182753D01*
X137403585Y-48248444D01*
X137214179Y-48344951D01*
X137042213Y-48469890D01*
X136891890Y-48620213D01*
X136766949Y-48792182D01*
X136762484Y-48800946D01*
X136714509Y-48851742D01*
X136646688Y-48868536D01*
X136580553Y-48845998D01*
X136541516Y-48800946D01*
X136537050Y-48792182D01*
X136412109Y-48620213D01*
X136261786Y-48469890D01*
X136089820Y-48344951D01*
X135900414Y-48248444D01*
X135900413Y-48248443D01*
X135900412Y-48248443D01*
X135698243Y-48182754D01*
X135698241Y-48182753D01*
X135698240Y-48182753D01*
X135536957Y-48157208D01*
X135488287Y-48149500D01*
X135275713Y-48149500D01*
X135227042Y-48157208D01*
X135065760Y-48182753D01*
X134863585Y-48248444D01*
X134674179Y-48344951D01*
X134502213Y-48469890D01*
X134351890Y-48620213D01*
X134226949Y-48792182D01*
X134222484Y-48800946D01*
X134174509Y-48851742D01*
X134106688Y-48868536D01*
X134040553Y-48845998D01*
X134001516Y-48800946D01*
X133997050Y-48792182D01*
X133872109Y-48620213D01*
X133721786Y-48469890D01*
X133549820Y-48344951D01*
X133360414Y-48248444D01*
X133360413Y-48248443D01*
X133360412Y-48248443D01*
X133158243Y-48182754D01*
X133158241Y-48182753D01*
X133158240Y-48182753D01*
X132996957Y-48157208D01*
X132948287Y-48149500D01*
X132735713Y-48149500D01*
X132687042Y-48157208D01*
X132525760Y-48182753D01*
X132323585Y-48248444D01*
X132134179Y-48344951D01*
X131962213Y-48469890D01*
X131811890Y-48620213D01*
X131686949Y-48792182D01*
X131682202Y-48801499D01*
X131634227Y-48852293D01*
X131566405Y-48869087D01*
X131500271Y-48846548D01*
X131461234Y-48801495D01*
X131456626Y-48792452D01*
X131417270Y-48738282D01*
X131417269Y-48738282D01*
X130784962Y-49370590D01*
X130767925Y-49307007D01*
X130702099Y-49192993D01*
X130609007Y-49099901D01*
X130494993Y-49034075D01*
X130431409Y-49017037D01*
X131063716Y-48384728D01*
X131009550Y-48345375D01*
X130820217Y-48248904D01*
X130618129Y-48183242D01*
X130408246Y-48150000D01*
X130195754Y-48150000D01*
X129985872Y-48183242D01*
X129985869Y-48183242D01*
X129783782Y-48248904D01*
X129594439Y-48345380D01*
X129540282Y-48384727D01*
X129540282Y-48384728D01*
X130172591Y-49017037D01*
X130109007Y-49034075D01*
X129994993Y-49099901D01*
X129901901Y-49192993D01*
X129836075Y-49307007D01*
X129819037Y-49370591D01*
X129186728Y-48738282D01*
X129186727Y-48738282D01*
X129147380Y-48792440D01*
X129147376Y-48792446D01*
X129142760Y-48801505D01*
X129094781Y-48852297D01*
X129026959Y-48869087D01*
X128960826Y-48846543D01*
X128921794Y-48801493D01*
X128917051Y-48792184D01*
X128917049Y-48792181D01*
X128917048Y-48792179D01*
X128792109Y-48620213D01*
X128641786Y-48469890D01*
X128469820Y-48344951D01*
X128280414Y-48248444D01*
X128280413Y-48248443D01*
X128280412Y-48248443D01*
X128078243Y-48182754D01*
X128078241Y-48182753D01*
X128078240Y-48182753D01*
X127916957Y-48157208D01*
X127868287Y-48149500D01*
X127655713Y-48149500D01*
X127607042Y-48157208D01*
X127445760Y-48182753D01*
X127243585Y-48248444D01*
X127054179Y-48344951D01*
X126882213Y-48469890D01*
X126731890Y-48620213D01*
X126606951Y-48792179D01*
X126510444Y-48981585D01*
X126444753Y-49183760D01*
X126411500Y-49393713D01*
X126411500Y-49606286D01*
X126444753Y-49816239D01*
X126510444Y-50018414D01*
X126606951Y-50207820D01*
X126731890Y-50379786D01*
X126845430Y-50493326D01*
X126878915Y-50554649D01*
X126873931Y-50624341D01*
X126832059Y-50680274D01*
X126801083Y-50697189D01*
X126669669Y-50746203D01*
X126669664Y-50746206D01*
X126554455Y-50832452D01*
X126554452Y-50832455D01*
X126468206Y-50947664D01*
X126468202Y-50947671D01*
X126417908Y-51082517D01*
X126411501Y-51142116D01*
X126411501Y-51142123D01*
X126411500Y-51142135D01*
X126411500Y-52937870D01*
X126411501Y-52937876D01*
X126417908Y-52997483D01*
X126468202Y-53132328D01*
X126468206Y-53132335D01*
X126554452Y-53247544D01*
X126554455Y-53247547D01*
X126669664Y-53333793D01*
X126669671Y-53333797D01*
X126804517Y-53384091D01*
X126804516Y-53384091D01*
X126811444Y-53384835D01*
X126864127Y-53390500D01*
X128659872Y-53390499D01*
X128719483Y-53384091D01*
X128854331Y-53333796D01*
X128969546Y-53247546D01*
X129055796Y-53132331D01*
X129106091Y-52997483D01*
X129112500Y-52937873D01*
X129112499Y-52927312D01*
X129132179Y-52860275D01*
X129148818Y-52839626D01*
X129819037Y-52169408D01*
X129836075Y-52232993D01*
X129901901Y-52347007D01*
X129994993Y-52440099D01*
X130109007Y-52505925D01*
X130172590Y-52522962D01*
X129540282Y-53155269D01*
X129540282Y-53155270D01*
X129594449Y-53194624D01*
X129783782Y-53291095D01*
X129985870Y-53356757D01*
X130195754Y-53390000D01*
X130308047Y-53390000D01*
X130375086Y-53409685D01*
X130420841Y-53462489D01*
X130430785Y-53531647D01*
X130401760Y-53595203D01*
X130395728Y-53601681D01*
X130176229Y-53821181D01*
X130114906Y-53854666D01*
X130088548Y-53857500D01*
X126940741Y-53857500D01*
X126940721Y-53857499D01*
X126934607Y-53857499D01*
X126811394Y-53857499D01*
X126710597Y-53877548D01*
X126710592Y-53877548D01*
X126690549Y-53881536D01*
X126690547Y-53881536D01*
X126643397Y-53901067D01*
X126576719Y-53928685D01*
X126576717Y-53928686D01*
X126474266Y-53997141D01*
X126474263Y-53997144D01*
X125443020Y-55028389D01*
X125216269Y-55255140D01*
X125216267Y-55255142D01*
X125172704Y-55298704D01*
X125129142Y-55342266D01*
X125114386Y-55364349D01*
X125099730Y-55386285D01*
X125060690Y-55444710D01*
X125060685Y-55444719D01*
X125013540Y-55558538D01*
X125013535Y-55558554D01*
X124995836Y-55647538D01*
X124995836Y-55647539D01*
X124989500Y-55679391D01*
X124989500Y-57308888D01*
X124969815Y-57375927D01*
X124917011Y-57421682D01*
X124847853Y-57431626D01*
X124802380Y-57415621D01*
X124755194Y-57387716D01*
X124597494Y-57341900D01*
X124597497Y-57341900D01*
X124595000Y-57341703D01*
X124595000Y-60386295D01*
X124595001Y-60386295D01*
X124597486Y-60386100D01*
X124755198Y-60340281D01*
X124896550Y-60256686D01*
X124902717Y-60251903D01*
X124904630Y-60254369D01*
X124953222Y-60227802D01*
X125022917Y-60232749D01*
X125055762Y-60253853D01*
X125056969Y-60252298D01*
X125063132Y-60257078D01*
X125063135Y-60257081D01*
X125204602Y-60340744D01*
X125246224Y-60352836D01*
X125362426Y-60386597D01*
X125362429Y-60386597D01*
X125362431Y-60386598D01*
X125399306Y-60389500D01*
X125399314Y-60389500D01*
X125830686Y-60389500D01*
X125830694Y-60389500D01*
X125867569Y-60386598D01*
X125867571Y-60386597D01*
X125867573Y-60386597D01*
X125909191Y-60374505D01*
X126025398Y-60340744D01*
X126166865Y-60257081D01*
X126166870Y-60257075D01*
X126173031Y-60252298D01*
X126174933Y-60254750D01*
X126223579Y-60228155D01*
X126293274Y-60233104D01*
X126325695Y-60253940D01*
X126326969Y-60252298D01*
X126333132Y-60257078D01*
X126333135Y-60257081D01*
X126474602Y-60340744D01*
X126516224Y-60352836D01*
X126632426Y-60386597D01*
X126632429Y-60386597D01*
X126632431Y-60386598D01*
X126669306Y-60389500D01*
X126669314Y-60389500D01*
X127100686Y-60389500D01*
X127100694Y-60389500D01*
X127137569Y-60386598D01*
X127137571Y-60386597D01*
X127137573Y-60386597D01*
X127179191Y-60374505D01*
X127295398Y-60340744D01*
X127436865Y-60257081D01*
X127436870Y-60257075D01*
X127443031Y-60252298D01*
X127444933Y-60254750D01*
X127493579Y-60228155D01*
X127563274Y-60233104D01*
X127595695Y-60253940D01*
X127596969Y-60252298D01*
X127603132Y-60257078D01*
X127603135Y-60257081D01*
X127744602Y-60340744D01*
X127786224Y-60352836D01*
X127902426Y-60386597D01*
X127902429Y-60386597D01*
X127902431Y-60386598D01*
X127939306Y-60389500D01*
X127939314Y-60389500D01*
X128370686Y-60389500D01*
X128370694Y-60389500D01*
X128407569Y-60386598D01*
X128407571Y-60386597D01*
X128407573Y-60386597D01*
X128449191Y-60374505D01*
X128565398Y-60340744D01*
X128706865Y-60257081D01*
X128706870Y-60257075D01*
X128713031Y-60252298D01*
X128714933Y-60254750D01*
X128763579Y-60228155D01*
X128833274Y-60233104D01*
X128865695Y-60253940D01*
X128866969Y-60252298D01*
X128873132Y-60257078D01*
X128873135Y-60257081D01*
X129014602Y-60340744D01*
X129056224Y-60352836D01*
X129172426Y-60386597D01*
X129172429Y-60386597D01*
X129172431Y-60386598D01*
X129209306Y-60389500D01*
X129209314Y-60389500D01*
X129640686Y-60389500D01*
X129640694Y-60389500D01*
X129677569Y-60386598D01*
X129677571Y-60386597D01*
X129677573Y-60386597D01*
X129719191Y-60374505D01*
X129835398Y-60340744D01*
X129976865Y-60257081D01*
X129976870Y-60257075D01*
X129983031Y-60252298D01*
X129984933Y-60254750D01*
X130033579Y-60228155D01*
X130103274Y-60233104D01*
X130135695Y-60253940D01*
X130136969Y-60252298D01*
X130143132Y-60257078D01*
X130143135Y-60257081D01*
X130284602Y-60340744D01*
X130326224Y-60352836D01*
X130442426Y-60386597D01*
X130442429Y-60386597D01*
X130442431Y-60386598D01*
X130479306Y-60389500D01*
X130479314Y-60389500D01*
X130910686Y-60389500D01*
X130910694Y-60389500D01*
X130947569Y-60386598D01*
X130947571Y-60386597D01*
X130947573Y-60386597D01*
X130989191Y-60374505D01*
X131105398Y-60340744D01*
X131246865Y-60257081D01*
X131246870Y-60257075D01*
X131253031Y-60252298D01*
X131254933Y-60254750D01*
X131303579Y-60228155D01*
X131373274Y-60233104D01*
X131405695Y-60253940D01*
X131406969Y-60252298D01*
X131413132Y-60257078D01*
X131413135Y-60257081D01*
X131554602Y-60340744D01*
X131596224Y-60352836D01*
X131712426Y-60386597D01*
X131712429Y-60386597D01*
X131712431Y-60386598D01*
X131749306Y-60389500D01*
X131749314Y-60389500D01*
X132180686Y-60389500D01*
X132180694Y-60389500D01*
X132217569Y-60386598D01*
X132217571Y-60386597D01*
X132217573Y-60386597D01*
X132259191Y-60374505D01*
X132375398Y-60340744D01*
X132516865Y-60257081D01*
X132516870Y-60257075D01*
X132523031Y-60252298D01*
X132524933Y-60254750D01*
X132573579Y-60228155D01*
X132643274Y-60233104D01*
X132675695Y-60253940D01*
X132676969Y-60252298D01*
X132683132Y-60257078D01*
X132683135Y-60257081D01*
X132824602Y-60340744D01*
X132866224Y-60352836D01*
X132982426Y-60386597D01*
X132982429Y-60386597D01*
X132982431Y-60386598D01*
X133019306Y-60389500D01*
X133019314Y-60389500D01*
X133450686Y-60389500D01*
X133450694Y-60389500D01*
X133487569Y-60386598D01*
X133487571Y-60386597D01*
X133487573Y-60386597D01*
X133529191Y-60374505D01*
X133645398Y-60340744D01*
X133786865Y-60257081D01*
X133786870Y-60257075D01*
X133793031Y-60252298D01*
X133794933Y-60254750D01*
X133843579Y-60228155D01*
X133913274Y-60233104D01*
X133945695Y-60253940D01*
X133946969Y-60252298D01*
X133953132Y-60257078D01*
X133953135Y-60257081D01*
X134094602Y-60340744D01*
X134136224Y-60352836D01*
X134252426Y-60386597D01*
X134252429Y-60386597D01*
X134252431Y-60386598D01*
X134289306Y-60389500D01*
X134289314Y-60389500D01*
X134720686Y-60389500D01*
X134720694Y-60389500D01*
X134757569Y-60386598D01*
X134865905Y-60355123D01*
X134935774Y-60355322D01*
X134994444Y-60393264D01*
X135023288Y-60456902D01*
X135024500Y-60474199D01*
X135024500Y-66554320D01*
X135004815Y-66621359D01*
X134952011Y-66667114D01*
X134882853Y-66677058D01*
X134865906Y-66673397D01*
X134757492Y-66641900D01*
X134755000Y-66641703D01*
X134755000Y-68040000D01*
X134735315Y-68107039D01*
X134682511Y-68152794D01*
X134631000Y-68164000D01*
X134379000Y-68164000D01*
X134311961Y-68144315D01*
X134266206Y-68091511D01*
X134255000Y-68040000D01*
X134255000Y-66641703D01*
X134252503Y-66641900D01*
X134094806Y-66687716D01*
X134094803Y-66687717D01*
X133953449Y-66771313D01*
X133947283Y-66776097D01*
X133945389Y-66773655D01*
X133896580Y-66800239D01*
X133826894Y-66795179D01*
X133794227Y-66774159D01*
X133793031Y-66775702D01*
X133786862Y-66770917D01*
X133676081Y-66705402D01*
X133645398Y-66687256D01*
X133645397Y-66687255D01*
X133645396Y-66687255D01*
X133645393Y-66687254D01*
X133487573Y-66641402D01*
X133487567Y-66641401D01*
X133450701Y-66638500D01*
X133450694Y-66638500D01*
X133019306Y-66638500D01*
X133019298Y-66638500D01*
X132982432Y-66641401D01*
X132982426Y-66641402D01*
X132824606Y-66687254D01*
X132824603Y-66687255D01*
X132683137Y-66770917D01*
X132676969Y-66775702D01*
X132675072Y-66773256D01*
X132626358Y-66799857D01*
X132556666Y-66794873D01*
X132524296Y-66774069D01*
X132523031Y-66775702D01*
X132516862Y-66770917D01*
X132406081Y-66705402D01*
X132375398Y-66687256D01*
X132375397Y-66687255D01*
X132375396Y-66687255D01*
X132375393Y-66687254D01*
X132217573Y-66641402D01*
X132217567Y-66641401D01*
X132180701Y-66638500D01*
X132180694Y-66638500D01*
X131749306Y-66638500D01*
X131749298Y-66638500D01*
X131712432Y-66641401D01*
X131712426Y-66641402D01*
X131554606Y-66687254D01*
X131554603Y-66687255D01*
X131413137Y-66770917D01*
X131406969Y-66775702D01*
X131405072Y-66773256D01*
X131356358Y-66799857D01*
X131286666Y-66794873D01*
X131254296Y-66774069D01*
X131253031Y-66775702D01*
X131246862Y-66770917D01*
X131136081Y-66705402D01*
X131105398Y-66687256D01*
X131105397Y-66687255D01*
X131105396Y-66687255D01*
X131105393Y-66687254D01*
X130947573Y-66641402D01*
X130947567Y-66641401D01*
X130910701Y-66638500D01*
X130910694Y-66638500D01*
X130479306Y-66638500D01*
X130479298Y-66638500D01*
X130442432Y-66641401D01*
X130442426Y-66641402D01*
X130284606Y-66687254D01*
X130284603Y-66687255D01*
X130143137Y-66770917D01*
X130136969Y-66775702D01*
X130135072Y-66773256D01*
X130086358Y-66799857D01*
X130016666Y-66794873D01*
X129984296Y-66774069D01*
X129983031Y-66775702D01*
X129976862Y-66770917D01*
X129866081Y-66705402D01*
X129835398Y-66687256D01*
X129835397Y-66687255D01*
X129835396Y-66687255D01*
X129835393Y-66687254D01*
X129677573Y-66641402D01*
X129677567Y-66641401D01*
X129640701Y-66638500D01*
X129640694Y-66638500D01*
X129209306Y-66638500D01*
X129209298Y-66638500D01*
X129172432Y-66641401D01*
X129172426Y-66641402D01*
X129014606Y-66687254D01*
X129014603Y-66687255D01*
X128873137Y-66770917D01*
X128866969Y-66775702D01*
X128865072Y-66773256D01*
X128816358Y-66799857D01*
X128746666Y-66794873D01*
X128714296Y-66774069D01*
X128713031Y-66775702D01*
X128706862Y-66770917D01*
X128596081Y-66705402D01*
X128565398Y-66687256D01*
X128565397Y-66687255D01*
X128565396Y-66687255D01*
X128565393Y-66687254D01*
X128407573Y-66641402D01*
X128407567Y-66641401D01*
X128370701Y-66638500D01*
X128370694Y-66638500D01*
X127939306Y-66638500D01*
X127939298Y-66638500D01*
X127902432Y-66641401D01*
X127902426Y-66641402D01*
X127744606Y-66687254D01*
X127744603Y-66687255D01*
X127603137Y-66770917D01*
X127596969Y-66775702D01*
X127595072Y-66773256D01*
X127546358Y-66799857D01*
X127476666Y-66794873D01*
X127444296Y-66774069D01*
X127443031Y-66775702D01*
X127436862Y-66770917D01*
X127326081Y-66705402D01*
X127295398Y-66687256D01*
X127295397Y-66687255D01*
X127295396Y-66687255D01*
X127295393Y-66687254D01*
X127137573Y-66641402D01*
X127137567Y-66641401D01*
X127100701Y-66638500D01*
X127100694Y-66638500D01*
X126669306Y-66638500D01*
X126669298Y-66638500D01*
X126632432Y-66641401D01*
X126632426Y-66641402D01*
X126474606Y-66687254D01*
X126474603Y-66687255D01*
X126333137Y-66770917D01*
X126326969Y-66775702D01*
X126325072Y-66773256D01*
X126276358Y-66799857D01*
X126206666Y-66794873D01*
X126174296Y-66774069D01*
X126173031Y-66775702D01*
X126166862Y-66770917D01*
X126056081Y-66705402D01*
X126025398Y-66687256D01*
X126025397Y-66687255D01*
X126025396Y-66687255D01*
X126025393Y-66687254D01*
X125867573Y-66641402D01*
X125867567Y-66641401D01*
X125830701Y-66638500D01*
X125830694Y-66638500D01*
X125399306Y-66638500D01*
X125399298Y-66638500D01*
X125362432Y-66641401D01*
X125362426Y-66641402D01*
X125204606Y-66687254D01*
X125204603Y-66687255D01*
X125063137Y-66770917D01*
X125056969Y-66775702D01*
X125055072Y-66773256D01*
X125006358Y-66799857D01*
X124936666Y-66794873D01*
X124904296Y-66774069D01*
X124903031Y-66775702D01*
X124896862Y-66770917D01*
X124786081Y-66705402D01*
X124755398Y-66687256D01*
X124755397Y-66687255D01*
X124755396Y-66687255D01*
X124755393Y-66687254D01*
X124597573Y-66641402D01*
X124597567Y-66641401D01*
X124560701Y-66638500D01*
X124560694Y-66638500D01*
X124129306Y-66638500D01*
X124129298Y-66638500D01*
X124092432Y-66641401D01*
X124092426Y-66641402D01*
X123934606Y-66687254D01*
X123934603Y-66687255D01*
X123793137Y-66770917D01*
X123793129Y-66770923D01*
X123676923Y-66887129D01*
X123676917Y-66887137D01*
X123593255Y-67028603D01*
X123593254Y-67028606D01*
X123547402Y-67186426D01*
X123547401Y-67186432D01*
X123544500Y-67223298D01*
X123544500Y-68028547D01*
X123524815Y-68095586D01*
X123508181Y-68116228D01*
X115595227Y-76029181D01*
X115533904Y-76062666D01*
X115507546Y-76065500D01*
X115148998Y-76065500D01*
X115148980Y-76065501D01*
X115046203Y-76076000D01*
X115046200Y-76076001D01*
X114879668Y-76131185D01*
X114879663Y-76131187D01*
X114730342Y-76223289D01*
X114606289Y-76347342D01*
X114514187Y-76496663D01*
X114514185Y-76496668D01*
X114495127Y-76554181D01*
X114459001Y-76663203D01*
X114459001Y-76663204D01*
X114459000Y-76663204D01*
X114448500Y-76765983D01*
X112260500Y-76765983D01*
X112260500Y-59804649D01*
X123545000Y-59804649D01*
X123547899Y-59841489D01*
X123547900Y-59841495D01*
X123593716Y-59999193D01*
X123593717Y-59999196D01*
X123677314Y-60140552D01*
X123677321Y-60140561D01*
X123793438Y-60256678D01*
X123793447Y-60256685D01*
X123934801Y-60340281D01*
X124092514Y-60386100D01*
X124092511Y-60386100D01*
X124094998Y-60386295D01*
X124095000Y-60386295D01*
X124095000Y-59114000D01*
X123545000Y-59114000D01*
X123545000Y-59804649D01*
X112260500Y-59804649D01*
X112260500Y-57923350D01*
X123545000Y-57923350D01*
X123545000Y-58614000D01*
X124095000Y-58614000D01*
X124095000Y-57341703D01*
X124092503Y-57341900D01*
X123934806Y-57387716D01*
X123934803Y-57387717D01*
X123793447Y-57471314D01*
X123793438Y-57471321D01*
X123677321Y-57587438D01*
X123677314Y-57587447D01*
X123593717Y-57728803D01*
X123593716Y-57728806D01*
X123547900Y-57886504D01*
X123547899Y-57886510D01*
X123545000Y-57923350D01*
X112260500Y-57923350D01*
X112260500Y-46136500D01*
X112280185Y-46069461D01*
X112332989Y-46023706D01*
X112384500Y-46012500D01*
X177175500Y-46012500D01*
X177242539Y-46032185D01*
G37*
%TD.AperFunction*%
%TD*%
M02*
