M48
; DRILL file {KiCad 9.0.5} date 2026-05-29T00:56:37+0530
; FORMAT={-:-/ absolute / metric / decimal}
; #@! TF.CreationDate,2026-05-29T00:56:37+05:30
; #@! TF.GenerationSoftware,Kicad,Pcbnew,9.0.5
; #@! TF.FileFunction,Plated,1,2,PTH
FMAT,2
METRIC
; #@! TA.AperFunction,Plated,PTH,ViaDrill
T1C0.300
; #@! TA.AperFunction,Plated,PTH,ComponentDrill
T2C1.000
; #@! TA.AperFunction,Plated,PTH,ComponentDrill
T3C3.200
%
G90
G05
T1
X126.885Y-57.201
X129.134Y-50.546
X129.413Y-57.132
X132.192Y-57.16
X135.147Y-69.831
X135.213Y-57.337
X138.684Y-70.485
X139.192Y-50.8
X143.002Y-92.202
X144.52Y-96.774
X159.639Y-56.769
X162.052Y-56.896
X164.782Y-56.959
X169.291Y-70.485
T2
X127.762Y-49.5
X127.762Y-52.04
X130.302Y-49.5
X130.302Y-52.04
X132.842Y-49.5
X132.842Y-52.04
X135.382Y-49.5
X135.382Y-52.04
X137.922Y-49.5
X137.922Y-52.04
X139.94Y-99.419
X139.94Y-104.499
X140.462Y-49.5
X140.462Y-52.04
X141.085Y-101.959
X142.23Y-99.419
X142.23Y-104.499
X143.375Y-101.959
X144.52Y-99.419
X144.52Y-104.499
X145.665Y-101.959
X146.81Y-99.419
X146.81Y-104.499
X147.955Y-101.959
X149.1Y-99.419
X149.1Y-104.499
X150.245Y-101.959
X150.62Y-49.5
X150.62Y-52.04
X153.16Y-49.5
X153.16Y-52.04
X155.7Y-49.5
X155.7Y-52.04
X158.24Y-49.5
X158.24Y-52.04
X160.78Y-49.5
X160.78Y-52.04
X163.32Y-49.5
X163.32Y-52.04
T3
X132.285Y-101.959
X157.285Y-101.959
M30
