%TF.GenerationSoftware,KiCad,Pcbnew,9.0.5*%
%TF.CreationDate,2026-05-29T00:56:19+05:30*%
%TF.ProjectId,adapter,61646170-7465-4722-9e6b-696361645f70,rev?*%
%TF.SameCoordinates,Original*%
%TF.FileFunction,Soldermask,Bot*%
%TF.FilePolarity,Negative*%
%FSLAX46Y46*%
G04 Gerber Fmt 4.6, Leading zero omitted, Abs format (unit mm)*
G04 Created by KiCad (PCBNEW 9.0.5) date 2026-05-29 00:56:19*
%MOMM*%
%LPD*%
G01*
G04 APERTURE LIST*
%ADD10C,4.000000*%
%ADD11R,1.600000X1.600000*%
%ADD12C,1.600000*%
%ADD13R,1.700000X1.700000*%
%ADD14C,1.700000*%
G04 APERTURE END LIST*
D10*
%TO.C,J2*%
X132285000Y-101958669D03*
X157285000Y-101958669D03*
D11*
X149100000Y-99418669D03*
D12*
X146810000Y-99418669D03*
X144520000Y-99418669D03*
X142230000Y-99418669D03*
X139940000Y-99418669D03*
X150245000Y-101958669D03*
X147955000Y-101958669D03*
X145665000Y-101958669D03*
X143375000Y-101958669D03*
X141085000Y-101958669D03*
X149100000Y-104498669D03*
X146810000Y-104498669D03*
X144520000Y-104498669D03*
X142230000Y-104498669D03*
X139940000Y-104498669D03*
%TD*%
D13*
%TO.C,PMOD-B1*%
X127762000Y-52040000D03*
D14*
X127762000Y-49500000D03*
X130302000Y-52040000D03*
X130302000Y-49500000D03*
X132842000Y-52040000D03*
X132842000Y-49500000D03*
X135382000Y-52040000D03*
X135382000Y-49500000D03*
X137922000Y-52040000D03*
X137922000Y-49500000D03*
X140462000Y-52040000D03*
X140462000Y-49500000D03*
%TD*%
D13*
%TO.C,PMOD-A1*%
X150620000Y-52040000D03*
D14*
X150620000Y-49500000D03*
X153160000Y-52040000D03*
X153160000Y-49500000D03*
X155700000Y-52040000D03*
X155700000Y-49500000D03*
X158240000Y-52040000D03*
X158240000Y-49500000D03*
X160780000Y-52040000D03*
X160780000Y-49500000D03*
X163320000Y-52040000D03*
X163320000Y-49500000D03*
%TD*%
M02*
