%TF.GenerationSoftware,KiCad,Pcbnew,9.0.5*%
%TF.CreationDate,2026-05-29T00:56:19+05:30*%
%TF.ProjectId,adapter,61646170-7465-4722-9e6b-696361645f70,rev?*%
%TF.SameCoordinates,Original*%
%TF.FileFunction,Soldermask,Top*%
%TF.FilePolarity,Negative*%
%FSLAX46Y46*%
G04 Gerber Fmt 4.6, Leading zero omitted, Abs format (unit mm)*
G04 Created by KiCad (PCBNEW 9.0.5) date 2026-05-29 00:56:19*
%MOMM*%
%LPD*%
G01*
G04 APERTURE LIST*
G04 Aperture macros list*
%AMRoundRect*
0 Rectangle with rounded corners*
0 $1 Rounding radius*
0 $2 $3 $4 $5 $6 $7 $8 $9 X,Y pos of 4 corners*
0 Add a 4 corners polygon primitive as box body*
4,1,4,$2,$3,$4,$5,$6,$7,$8,$9,$2,$3,0*
0 Add four circle primitives for the rounded corners*
1,1,$1+$1,$2,$3*
1,1,$1+$1,$4,$5*
1,1,$1+$1,$6,$7*
1,1,$1+$1,$8,$9*
0 Add four rect primitives between the rounded corners*
20,1,$1+$1,$2,$3,$4,$5,0*
20,1,$1+$1,$4,$5,$6,$7,0*
20,1,$1+$1,$6,$7,$8,$9,0*
20,1,$1+$1,$8,$9,$2,$3,0*%
G04 Aperture macros list end*
%ADD10RoundRect,0.250000X-0.625000X0.400000X-0.625000X-0.400000X0.625000X-0.400000X0.625000X0.400000X0*%
%ADD11RoundRect,0.250000X-0.412500X-0.650000X0.412500X-0.650000X0.412500X0.650000X-0.412500X0.650000X0*%
%ADD12RoundRect,0.250000X0.625000X-0.400000X0.625000X0.400000X-0.625000X0.400000X-0.625000X-0.400000X0*%
%ADD13RoundRect,0.150000X-0.150000X0.875000X-0.150000X-0.875000X0.150000X-0.875000X0.150000X0.875000X0*%
%ADD14C,4.000000*%
%ADD15R,1.600000X1.600000*%
%ADD16C,1.600000*%
%ADD17R,1.700000X1.700000*%
%ADD18C,1.700000*%
G04 APERTURE END LIST*
D10*
%TO.C,R17*%
X135128000Y-84328000D03*
X135128000Y-87428000D03*
%TD*%
D11*
%TO.C,C1*%
X138684000Y-68326000D03*
X141809000Y-68326000D03*
%TD*%
D12*
%TO.C,R24*%
X151384000Y-80316000D03*
X151384000Y-77216000D03*
%TD*%
D10*
%TO.C,R7*%
X126492000Y-84328000D03*
X126492000Y-87428000D03*
%TD*%
D12*
%TO.C,R20*%
X141514286Y-80316000D03*
X141514286Y-77216000D03*
%TD*%
%TO.C,R15*%
X132950857Y-80316000D03*
X132950857Y-77216000D03*
%TD*%
D13*
%TO.C,U2*%
X166370000Y-58928000D03*
X165100000Y-58928000D03*
X163830000Y-58928000D03*
X162560000Y-58928000D03*
X161290000Y-58928000D03*
X160020000Y-58928000D03*
X158750000Y-58928000D03*
X157480000Y-58928000D03*
X156210000Y-58928000D03*
X154940000Y-58928000D03*
X154940000Y-68228000D03*
X156210000Y-68228000D03*
X157480000Y-68228000D03*
X158750000Y-68228000D03*
X160020000Y-68228000D03*
X161290000Y-68228000D03*
X162560000Y-68228000D03*
X163830000Y-68228000D03*
X165100000Y-68228000D03*
X166370000Y-68228000D03*
%TD*%
D12*
%TO.C,R25*%
X155956000Y-94540000D03*
X155956000Y-91440000D03*
%TD*%
%TO.C,R32*%
X160020000Y-94540000D03*
X160020000Y-91440000D03*
%TD*%
D10*
%TO.C,R14*%
X172974000Y-84328000D03*
X172974000Y-87428000D03*
%TD*%
D12*
%TO.C,R8*%
X120396000Y-94540000D03*
X120396000Y-91440000D03*
%TD*%
%TO.C,R22*%
X145796000Y-80316000D03*
X145796000Y-77216000D03*
%TD*%
%TO.C,R9*%
X124460000Y-94540000D03*
X124460000Y-91440000D03*
%TD*%
D10*
%TO.C,R6*%
X122428000Y-84328000D03*
X122428000Y-87428000D03*
%TD*%
D14*
%TO.C,J2*%
X132285000Y-101958669D03*
X157285000Y-101958669D03*
D15*
X149100000Y-99418669D03*
D16*
X146810000Y-99418669D03*
X144520000Y-99418669D03*
X142230000Y-99418669D03*
X139940000Y-99418669D03*
X150245000Y-101958669D03*
X147955000Y-101958669D03*
X145665000Y-101958669D03*
X143375000Y-101958669D03*
X141085000Y-101958669D03*
X149100000Y-104498669D03*
X146810000Y-104498669D03*
X144520000Y-104498669D03*
X142230000Y-104498669D03*
X139940000Y-104498669D03*
%TD*%
D12*
%TO.C,R29*%
X159512000Y-80316000D03*
X159512000Y-77216000D03*
%TD*%
D13*
%TO.C,U1*%
X135775000Y-58864000D03*
X134505000Y-58864000D03*
X133235000Y-58864000D03*
X131965000Y-58864000D03*
X130695000Y-58864000D03*
X129425000Y-58864000D03*
X128155000Y-58864000D03*
X126885000Y-58864000D03*
X125615000Y-58864000D03*
X124345000Y-58864000D03*
X124345000Y-68164000D03*
X125615000Y-68164000D03*
X126885000Y-68164000D03*
X128155000Y-68164000D03*
X129425000Y-68164000D03*
X130695000Y-68164000D03*
X131965000Y-68164000D03*
X133235000Y-68164000D03*
X134505000Y-68164000D03*
X135775000Y-68164000D03*
%TD*%
D12*
%TO.C,R23*%
X141224000Y-94540000D03*
X141224000Y-91440000D03*
%TD*%
D10*
%TO.C,R5*%
X118364000Y-84328000D03*
X118364000Y-87428000D03*
%TD*%
%TO.C,R26*%
X153670000Y-84328000D03*
X153670000Y-87428000D03*
%TD*%
D12*
%TO.C,R31*%
X163576000Y-80316000D03*
X163576000Y-77216000D03*
%TD*%
%TO.C,R3*%
X124387429Y-80316000D03*
X124387429Y-77216000D03*
%TD*%
D10*
%TO.C,R13*%
X169164000Y-84328000D03*
X169164000Y-87428000D03*
%TD*%
D12*
%TO.C,R1*%
X115824000Y-80316000D03*
X115824000Y-77216000D03*
%TD*%
D10*
%TO.C,R19*%
X139192000Y-84328000D03*
X139192000Y-87428000D03*
%TD*%
D12*
%TO.C,R18*%
X137232571Y-80316000D03*
X137232571Y-77216000D03*
%TD*%
%TO.C,R16*%
X137160000Y-94540000D03*
X137160000Y-91440000D03*
%TD*%
D17*
%TO.C,PMOD-B1*%
X127762000Y-52040000D03*
D18*
X127762000Y-49500000D03*
X130302000Y-52040000D03*
X130302000Y-49500000D03*
X132842000Y-52040000D03*
X132842000Y-49500000D03*
X135382000Y-52040000D03*
X135382000Y-49500000D03*
X137922000Y-52040000D03*
X137922000Y-49500000D03*
X140462000Y-52040000D03*
X140462000Y-49500000D03*
%TD*%
D12*
%TO.C,R4*%
X128669143Y-80316000D03*
X128669143Y-77216000D03*
%TD*%
D10*
%TO.C,R30*%
X162052000Y-84328000D03*
X162052000Y-87428000D03*
%TD*%
%TO.C,R21*%
X143256000Y-84328000D03*
X143256000Y-87428000D03*
%TD*%
D12*
%TO.C,R2*%
X120105714Y-80316000D03*
X120105714Y-77216000D03*
%TD*%
D11*
%TO.C,C2*%
X169291000Y-68453000D03*
X172416000Y-68453000D03*
%TD*%
D17*
%TO.C,PMOD-A1*%
X150620000Y-52040000D03*
D18*
X150620000Y-49500000D03*
X153160000Y-52040000D03*
X153160000Y-49500000D03*
X155700000Y-52040000D03*
X155700000Y-49500000D03*
X158240000Y-52040000D03*
X158240000Y-49500000D03*
X160780000Y-52040000D03*
X160780000Y-49500000D03*
X163320000Y-52040000D03*
X163320000Y-49500000D03*
%TD*%
D10*
%TO.C,R28*%
X157988000Y-84328000D03*
X157988000Y-87428000D03*
%TD*%
D12*
%TO.C,R27*%
X155448000Y-80316000D03*
X155448000Y-77216000D03*
%TD*%
M02*
