%TF.GenerationSoftware,KiCad,Pcbnew,9.0.5*%
%TF.CreationDate,2026-05-29T00:56:18+05:30*%
%TF.ProjectId,adapter,61646170-7465-4722-9e6b-696361645f70,rev?*%
%TF.SameCoordinates,Original*%
%TF.FileFunction,Copper,L2,Bot*%
%TF.FilePolarity,Positive*%
%FSLAX46Y46*%
G04 Gerber Fmt 4.6, Leading zero omitted, Abs format (unit mm)*
G04 Created by KiCad (PCBNEW 9.0.5) date 2026-05-29 00:56:18*
%MOMM*%
%LPD*%
G01*
G04 APERTURE LIST*
%TA.AperFunction,ComponentPad*%
%ADD10C,4.000000*%
%TD*%
%TA.AperFunction,ComponentPad*%
%ADD11R,1.600000X1.600000*%
%TD*%
%TA.AperFunction,ComponentPad*%
%ADD12C,1.600000*%
%TD*%
%TA.AperFunction,ComponentPad*%
%ADD13R,1.700000X1.700000*%
%TD*%
%TA.AperFunction,ComponentPad*%
%ADD14C,1.700000*%
%TD*%
%TA.AperFunction,ViaPad*%
%ADD15C,0.600000*%
%TD*%
%TA.AperFunction,Conductor*%
%ADD16C,0.500000*%
%TD*%
%TA.AperFunction,Conductor*%
%ADD17C,0.250000*%
%TD*%
G04 APERTURE END LIST*
D10*
%TO.P,J2,0*%
%TO.N,GND*%
X132285000Y-101958669D03*
X157285000Y-101958669D03*
D11*
%TO.P,J2,1*%
%TO.N,AnalogR*%
X149100000Y-99418669D03*
D12*
%TO.P,J2,2*%
%TO.N,AnalogG*%
X146810000Y-99418669D03*
%TO.P,J2,3*%
%TO.N,AnalogB*%
X144520000Y-99418669D03*
%TO.P,J2,4*%
%TO.N,unconnected-(J2-Pad4)*%
X142230000Y-99418669D03*
%TO.P,J2,5*%
%TO.N,GND*%
X139940000Y-99418669D03*
%TO.P,J2,6*%
X150245000Y-101958669D03*
%TO.P,J2,7*%
X147955000Y-101958669D03*
%TO.P,J2,8*%
X145665000Y-101958669D03*
%TO.P,J2,9*%
%TO.N,unconnected-(J2-Pad9)*%
X143375000Y-101958669D03*
%TO.P,J2,10*%
%TO.N,GND*%
X141085000Y-101958669D03*
%TO.P,J2,11*%
%TO.N,unconnected-(J2-Pad11)*%
X149100000Y-104498669D03*
%TO.P,J2,12*%
%TO.N,unconnected-(J2-Pad12)*%
X146810000Y-104498669D03*
%TO.P,J2,13*%
%TO.N,Net-(J2-Pad13)*%
X144520000Y-104498669D03*
%TO.P,J2,14*%
%TO.N,Net-(J2-Pad14)*%
X142230000Y-104498669D03*
%TO.P,J2,15*%
%TO.N,unconnected-(J2-Pad15)*%
X139940000Y-104498669D03*
%TD*%
D13*
%TO.P,PMOD-B1,1,Pin_1*%
%TO.N,VCC33*%
X127762000Y-52040000D03*
D14*
%TO.P,PMOD-B1,2,Pin_2*%
X127762000Y-49500000D03*
%TO.P,PMOD-B1,3,Pin_3*%
%TO.N,GND*%
X130302000Y-52040000D03*
%TO.P,PMOD-B1,4,Pin_4*%
X130302000Y-49500000D03*
%TO.P,PMOD-B1,5,Pin_5*%
%TO.N,R0*%
X132842000Y-52040000D03*
%TO.P,PMOD-B1,6,Pin_6*%
%TO.N,R1*%
X132842000Y-49500000D03*
%TO.P,PMOD-B1,7,Pin_7*%
%TO.N,R2*%
X135382000Y-52040000D03*
%TO.P,PMOD-B1,8,Pin_8*%
%TO.N,R3*%
X135382000Y-49500000D03*
%TO.P,PMOD-B1,9,Pin_9*%
%TO.N,G0*%
X137922000Y-52040000D03*
%TO.P,PMOD-B1,10,Pin_10*%
%TO.N,G1*%
X137922000Y-49500000D03*
%TO.P,PMOD-B1,11,Pin_11*%
%TO.N,G2*%
X140462000Y-52040000D03*
%TO.P,PMOD-B1,12,Pin_12*%
%TO.N,G3*%
X140462000Y-49500000D03*
%TD*%
D13*
%TO.P,PMOD-A1,1,Pin_1*%
%TO.N,VCC33*%
X150620000Y-52040000D03*
D14*
%TO.P,PMOD-A1,2,Pin_2*%
X150620000Y-49500000D03*
%TO.P,PMOD-A1,3,Pin_3*%
%TO.N,GND*%
X153160000Y-52040000D03*
%TO.P,PMOD-A1,4,Pin_4*%
X153160000Y-49500000D03*
%TO.P,PMOD-A1,5,Pin_5*%
%TO.N,B0*%
X155700000Y-52040000D03*
%TO.P,PMOD-A1,6,Pin_6*%
%TO.N,B1*%
X155700000Y-49500000D03*
%TO.P,PMOD-A1,7,Pin_7*%
%TO.N,B2*%
X158240000Y-52040000D03*
%TO.P,PMOD-A1,8,Pin_8*%
%TO.N,B3*%
X158240000Y-49500000D03*
%TO.P,PMOD-A1,9,Pin_9*%
%TO.N,HSync*%
X160780000Y-52040000D03*
%TO.P,PMOD-A1,10,Pin_10*%
%TO.N,VSync*%
X160780000Y-49500000D03*
%TO.P,PMOD-A1,11,Pin_11*%
%TO.N,unconnected-(PMOD-A1-Pin_11-Pad11)*%
X163320000Y-52040000D03*
%TO.P,PMOD-A1,12,Pin_12*%
%TO.N,unconnected-(PMOD-A1-Pin_12-Pad12)*%
X163320000Y-49500000D03*
%TD*%
D15*
%TO.N,VCC33*%
X169291000Y-70485000D03*
X138684000Y-70485000D03*
%TO.N,GND*%
X135147001Y-69830999D03*
X129133600Y-50546000D03*
%TO.N,AnalogB*%
X144520000Y-96774000D03*
%TO.N,AnalogG*%
X143002000Y-92202000D03*
%TO.N,G1*%
X132191742Y-57160142D03*
%TO.N,G3*%
X139192000Y-50800000D03*
X135213481Y-57337081D03*
%TO.N,R3*%
X129413000Y-57132116D03*
%TO.N,R1*%
X126885000Y-57200800D03*
%TO.N,B1*%
X159639000Y-56769000D03*
%TO.N,B3*%
X162052000Y-56896000D03*
%TO.N,VSync*%
X164782500Y-56959500D03*
%TD*%
D16*
%TO.N,VCC33*%
X150620000Y-49500000D02*
X150620000Y-47750000D01*
X127762000Y-47498000D02*
X127762000Y-49500000D01*
X138684000Y-70485000D02*
X169291000Y-70485000D01*
X150622000Y-47498000D02*
X127762000Y-47498000D01*
X150620000Y-49500000D02*
X150620000Y-52040000D01*
X150620000Y-47750000D02*
X150622000Y-47748000D01*
X150622000Y-47748000D02*
X150622000Y-47498000D01*
D17*
%TO.N,GND*%
X142392400Y-100736400D02*
X144442731Y-100736400D01*
D16*
X130302000Y-49500000D02*
X130302000Y-52040000D01*
X153160000Y-49500000D02*
X153160000Y-52040000D01*
D17*
X139940000Y-100813669D02*
X141085000Y-101958669D01*
X150245000Y-101958669D02*
X147955000Y-101958669D01*
X139940000Y-99418669D02*
X139940000Y-100813669D01*
X141170131Y-101958669D02*
X142392400Y-100736400D01*
X141085000Y-101958669D02*
X141170131Y-101958669D01*
X147955000Y-101958669D02*
X145665000Y-101958669D01*
X144442731Y-100736400D02*
X145665000Y-101958669D01*
%TO.N,AnalogB*%
X144520000Y-96774000D02*
X144520000Y-99418669D01*
%TO.N,AnalogG*%
X143002000Y-92202000D02*
X144526000Y-92202000D01*
X146810000Y-94486000D02*
X146810000Y-99418669D01*
X144526000Y-92202000D02*
X146810000Y-94486000D01*
%TO.N,G1*%
X136652000Y-52699884D02*
X136652000Y-50770000D01*
X132191742Y-57160142D02*
X136652000Y-52699884D01*
X136652000Y-50770000D02*
X137922000Y-49500000D01*
%TO.N,G3*%
X139192000Y-53358562D02*
X139192000Y-50800000D01*
X135213481Y-57337081D02*
X139192000Y-53358562D01*
%TO.N,R3*%
X134112000Y-50770000D02*
X135382000Y-49500000D01*
X129413000Y-57132116D02*
X134112000Y-52433116D01*
X134112000Y-52433116D02*
X134112000Y-50770000D01*
%TO.N,R1*%
X126885000Y-57200800D02*
X126885000Y-56112000D01*
X129931000Y-54473000D02*
X131572000Y-52832000D01*
X131572000Y-52832000D02*
X131572000Y-50770000D01*
X128524000Y-54473000D02*
X129931000Y-54473000D01*
X126885000Y-56112000D02*
X128524000Y-54473000D01*
X131572000Y-50770000D02*
X132842000Y-49500000D01*
%TO.N,B1*%
X159639000Y-56769000D02*
X157064000Y-54194000D01*
X157064000Y-50864000D02*
X155700000Y-49500000D01*
X157064000Y-54194000D02*
X157064000Y-50864000D01*
%TO.N,B3*%
X162052000Y-56896000D02*
X159512000Y-54356000D01*
X159512000Y-54356000D02*
X159512000Y-50772000D01*
X159512000Y-50772000D02*
X158240000Y-49500000D01*
%TO.N,VSync*%
X164782500Y-56959500D02*
X162052000Y-54229000D01*
X162052000Y-50772000D02*
X160780000Y-49500000D01*
X162052000Y-54229000D02*
X162052000Y-50772000D01*
%TD*%
%TA.AperFunction,Conductor*%
%TO.N,GND*%
G36*
X145199075Y-102151662D02*
G01*
X145264901Y-102265676D01*
X145357993Y-102358768D01*
X145472007Y-102424594D01*
X145535590Y-102441631D01*
X144939076Y-103038143D01*
X144943486Y-103094179D01*
X144929121Y-103162556D01*
X144880069Y-103212313D01*
X144811904Y-103227651D01*
X144800470Y-103226380D01*
X144660803Y-103204259D01*
X144622352Y-103198169D01*
X144417648Y-103198169D01*
X144242197Y-103225957D01*
X144172904Y-103217002D01*
X144119452Y-103172006D01*
X144098813Y-103105254D01*
X144117538Y-103037941D01*
X144149913Y-103003167D01*
X144222219Y-102950635D01*
X144366966Y-102805888D01*
X144421330Y-102731061D01*
X144476657Y-102688397D01*
X144531376Y-102680329D01*
X144585525Y-102684590D01*
X145182037Y-102088078D01*
X145199075Y-102151662D01*
G37*
%TD.AperFunction*%
%TA.AperFunction,Conductor*%
G36*
X147489075Y-102151662D02*
G01*
X147554901Y-102265676D01*
X147647993Y-102358768D01*
X147762007Y-102424594D01*
X147825590Y-102441631D01*
X147229076Y-103038143D01*
X147233486Y-103094179D01*
X147219121Y-103162556D01*
X147170069Y-103212313D01*
X147101904Y-103227651D01*
X147090470Y-103226380D01*
X146950803Y-103204259D01*
X146912352Y-103198169D01*
X146707648Y-103198169D01*
X146529526Y-103226380D01*
X146460233Y-103217425D01*
X146406781Y-103172429D01*
X146386142Y-103105677D01*
X146386511Y-103094177D01*
X146390921Y-103038142D01*
X145794409Y-102441631D01*
X145857993Y-102424594D01*
X145972007Y-102358768D01*
X146065099Y-102265676D01*
X146130925Y-102151662D01*
X146147962Y-102088079D01*
X146744473Y-102684590D01*
X146800268Y-102680199D01*
X146819728Y-102680199D01*
X146875525Y-102684590D01*
X147472037Y-102088078D01*
X147489075Y-102151662D01*
G37*
%TD.AperFunction*%
%TA.AperFunction,Conductor*%
G36*
X149779075Y-102151662D02*
G01*
X149844901Y-102265676D01*
X149937993Y-102358768D01*
X150052007Y-102424594D01*
X150115590Y-102441631D01*
X149519076Y-103038143D01*
X149523486Y-103094179D01*
X149509121Y-103162556D01*
X149460069Y-103212313D01*
X149391904Y-103227651D01*
X149380470Y-103226380D01*
X149240803Y-103204259D01*
X149202352Y-103198169D01*
X148997648Y-103198169D01*
X148819526Y-103226380D01*
X148750233Y-103217425D01*
X148696781Y-103172429D01*
X148676142Y-103105677D01*
X148676511Y-103094177D01*
X148680921Y-103038142D01*
X148084409Y-102441631D01*
X148147993Y-102424594D01*
X148262007Y-102358768D01*
X148355099Y-102265676D01*
X148420925Y-102151662D01*
X148437962Y-102088079D01*
X149034473Y-102684590D01*
X149090268Y-102680199D01*
X149109728Y-102680199D01*
X149165525Y-102684590D01*
X149762037Y-102088078D01*
X149779075Y-102151662D01*
G37*
%TD.AperFunction*%
%TA.AperFunction,Conductor*%
G36*
X142164473Y-102684590D02*
G01*
X142218622Y-102680329D01*
X142286999Y-102694693D01*
X142328669Y-102731062D01*
X142383028Y-102805881D01*
X142383032Y-102805886D01*
X142527784Y-102950638D01*
X142600083Y-103003165D01*
X142642750Y-103058495D01*
X142648729Y-103128108D01*
X142616124Y-103189903D01*
X142555286Y-103224261D01*
X142507801Y-103225957D01*
X142360174Y-103202575D01*
X142332352Y-103198169D01*
X142127648Y-103198169D01*
X141949526Y-103226380D01*
X141880233Y-103217425D01*
X141826781Y-103172429D01*
X141806142Y-103105677D01*
X141806511Y-103094177D01*
X141810921Y-103038142D01*
X141214409Y-102441631D01*
X141277993Y-102424594D01*
X141392007Y-102358768D01*
X141485099Y-102265676D01*
X141550925Y-102151662D01*
X141567962Y-102088078D01*
X142164473Y-102684590D01*
G37*
%TD.AperFunction*%
%TA.AperFunction,Conductor*%
G36*
X144869764Y-100699911D02*
G01*
X144923216Y-100744907D01*
X144943856Y-100811659D01*
X144943487Y-100823159D01*
X144939077Y-100879192D01*
X145535591Y-101475706D01*
X145472007Y-101492744D01*
X145357993Y-101558570D01*
X145264901Y-101651662D01*
X145199075Y-101765676D01*
X145182037Y-101829259D01*
X144585524Y-101232746D01*
X144531377Y-101237008D01*
X144463000Y-101222644D01*
X144421330Y-101186275D01*
X144366971Y-101111455D01*
X144222219Y-100966703D01*
X144152898Y-100916339D01*
X144149914Y-100914170D01*
X144107249Y-100858842D01*
X144101270Y-100789229D01*
X144133875Y-100727433D01*
X144194713Y-100693076D01*
X144242198Y-100691380D01*
X144417648Y-100719169D01*
X144417649Y-100719169D01*
X144622351Y-100719169D01*
X144622352Y-100719169D01*
X144800471Y-100690957D01*
X144869764Y-100699911D01*
G37*
%TD.AperFunction*%
%TA.AperFunction,Conductor*%
G36*
X146529525Y-100690956D02*
G01*
X146707648Y-100719169D01*
X146707649Y-100719169D01*
X146912351Y-100719169D01*
X146912352Y-100719169D01*
X147090471Y-100690957D01*
X147159764Y-100699911D01*
X147213216Y-100744907D01*
X147233856Y-100811659D01*
X147233487Y-100823159D01*
X147229077Y-100879192D01*
X147825591Y-101475706D01*
X147762007Y-101492744D01*
X147647993Y-101558570D01*
X147554901Y-101651662D01*
X147489075Y-101765676D01*
X147472037Y-101829259D01*
X146875524Y-101232746D01*
X146819733Y-101237137D01*
X146800276Y-101237137D01*
X146744474Y-101232745D01*
X146147962Y-101829258D01*
X146130925Y-101765676D01*
X146065099Y-101651662D01*
X145972007Y-101558570D01*
X145857993Y-101492744D01*
X145794408Y-101475706D01*
X146390921Y-100879193D01*
X146386512Y-100823159D01*
X146400876Y-100754782D01*
X146449928Y-100705025D01*
X146518093Y-100689686D01*
X146529525Y-100690956D01*
G37*
%TD.AperFunction*%
%TA.AperFunction,Conductor*%
G36*
X149464568Y-100738853D02*
G01*
X149510323Y-100791657D01*
X149521147Y-100852898D01*
X149519077Y-100879193D01*
X150115591Y-101475706D01*
X150052007Y-101492744D01*
X149937993Y-101558570D01*
X149844901Y-101651662D01*
X149779075Y-101765676D01*
X149762037Y-101829259D01*
X149165524Y-101232746D01*
X149109733Y-101237137D01*
X149090276Y-101237137D01*
X149034474Y-101232745D01*
X148437962Y-101829258D01*
X148420925Y-101765676D01*
X148355099Y-101651662D01*
X148262007Y-101558570D01*
X148147993Y-101492744D01*
X148084408Y-101475706D01*
X148680922Y-100879193D01*
X148678853Y-100852896D01*
X148693218Y-100784519D01*
X148742269Y-100734762D01*
X148802468Y-100719168D01*
X149397530Y-100719168D01*
X149464568Y-100738853D01*
G37*
%TD.AperFunction*%
%TA.AperFunction,Conductor*%
G36*
X141949525Y-100690956D02*
G01*
X142127648Y-100719169D01*
X142127649Y-100719169D01*
X142332351Y-100719169D01*
X142332352Y-100719169D01*
X142507801Y-100691380D01*
X142577094Y-100700334D01*
X142630546Y-100745331D01*
X142651186Y-100812082D01*
X142632461Y-100879396D01*
X142600084Y-100914171D01*
X142527787Y-100966697D01*
X142527782Y-100966701D01*
X142383032Y-101111451D01*
X142383028Y-101111456D01*
X142328670Y-101186274D01*
X142273340Y-101228940D01*
X142218624Y-101237007D01*
X142164474Y-101232745D01*
X141567962Y-101829258D01*
X141550925Y-101765676D01*
X141485099Y-101651662D01*
X141392007Y-101558570D01*
X141277993Y-101492744D01*
X141214408Y-101475706D01*
X141810921Y-100879193D01*
X141806512Y-100823159D01*
X141820876Y-100754782D01*
X141869928Y-100705025D01*
X141938093Y-100689686D01*
X141949525Y-100690956D01*
G37*
%TD.AperFunction*%
%TA.AperFunction,Conductor*%
G36*
X141019473Y-100144590D02*
G01*
X141073622Y-100140329D01*
X141141999Y-100154693D01*
X141183669Y-100191062D01*
X141238028Y-100265881D01*
X141238032Y-100265886D01*
X141382782Y-100410636D01*
X141382787Y-100410640D01*
X141455973Y-100463813D01*
X141498639Y-100519143D01*
X141504618Y-100588756D01*
X141472012Y-100650551D01*
X141411174Y-100684908D01*
X141363690Y-100686604D01*
X141187317Y-100658669D01*
X140982683Y-100658669D01*
X140804487Y-100686892D01*
X140735193Y-100677937D01*
X140681741Y-100632941D01*
X140661102Y-100566189D01*
X140661471Y-100554689D01*
X140665921Y-100498142D01*
X140069409Y-99901631D01*
X140132993Y-99884594D01*
X140247007Y-99818768D01*
X140340099Y-99725676D01*
X140405925Y-99611662D01*
X140422962Y-99548078D01*
X141019473Y-100144590D01*
G37*
%TD.AperFunction*%
%TA.AperFunction,Conductor*%
G36*
X143461420Y-100177291D02*
G01*
X143475319Y-100193331D01*
X143528034Y-100265888D01*
X143672784Y-100410638D01*
X143745083Y-100463165D01*
X143787750Y-100518495D01*
X143793729Y-100588108D01*
X143761124Y-100649903D01*
X143700286Y-100684261D01*
X143652801Y-100685957D01*
X143504475Y-100662465D01*
X143477352Y-100658169D01*
X143272648Y-100658169D01*
X143097197Y-100685957D01*
X143027904Y-100677002D01*
X142974452Y-100632006D01*
X142953813Y-100565254D01*
X142972538Y-100497941D01*
X143004913Y-100463167D01*
X143077219Y-100410635D01*
X143221966Y-100265888D01*
X143274681Y-100193330D01*
X143330011Y-100150665D01*
X143399624Y-100144686D01*
X143461420Y-100177291D01*
G37*
%TD.AperFunction*%
%TA.AperFunction,Conductor*%
G36*
X129836075Y-49692993D02*
G01*
X129901901Y-49807007D01*
X129994993Y-49900099D01*
X130109007Y-49965925D01*
X130172590Y-49982962D01*
X129540282Y-50615269D01*
X129540282Y-50615270D01*
X129594452Y-50654626D01*
X129604048Y-50659516D01*
X129654844Y-50707491D01*
X129671638Y-50775312D01*
X129649100Y-50841447D01*
X129604051Y-50880483D01*
X129594440Y-50885380D01*
X129540282Y-50924727D01*
X129540282Y-50924728D01*
X130172591Y-51557037D01*
X130109007Y-51574075D01*
X129994993Y-51639901D01*
X129901901Y-51732993D01*
X129836075Y-51847007D01*
X129819037Y-51910591D01*
X129148818Y-51240372D01*
X129115333Y-51179049D01*
X129112499Y-51152691D01*
X129112499Y-51142129D01*
X129112498Y-51142123D01*
X129112497Y-51142116D01*
X129106091Y-51082517D01*
X129055796Y-50947669D01*
X129055795Y-50947668D01*
X129055793Y-50947664D01*
X128969547Y-50832455D01*
X128969544Y-50832452D01*
X128854335Y-50746206D01*
X128854328Y-50746202D01*
X128722917Y-50697189D01*
X128666983Y-50655318D01*
X128642566Y-50589853D01*
X128657418Y-50521580D01*
X128678563Y-50493332D01*
X128792104Y-50379792D01*
X128917051Y-50207816D01*
X128921793Y-50198508D01*
X128969763Y-50147711D01*
X129037583Y-50130911D01*
X129103719Y-50153445D01*
X129142763Y-50198500D01*
X129147373Y-50207547D01*
X129186728Y-50261716D01*
X129819037Y-49629408D01*
X129836075Y-49692993D01*
G37*
%TD.AperFunction*%
%TA.AperFunction,Conductor*%
G36*
X152694075Y-49692993D02*
G01*
X152759901Y-49807007D01*
X152852993Y-49900099D01*
X152967007Y-49965925D01*
X153030590Y-49982962D01*
X152398282Y-50615269D01*
X152398282Y-50615270D01*
X152452452Y-50654626D01*
X152462048Y-50659516D01*
X152512844Y-50707491D01*
X152529638Y-50775312D01*
X152507100Y-50841447D01*
X152462051Y-50880483D01*
X152452440Y-50885380D01*
X152398282Y-50924727D01*
X152398282Y-50924728D01*
X153030591Y-51557037D01*
X152967007Y-51574075D01*
X152852993Y-51639901D01*
X152759901Y-51732993D01*
X152694075Y-51847007D01*
X152677037Y-51910591D01*
X152006818Y-51240372D01*
X151973333Y-51179049D01*
X151970499Y-51152691D01*
X151970499Y-51142129D01*
X151970498Y-51142123D01*
X151970497Y-51142116D01*
X151964091Y-51082517D01*
X151913796Y-50947669D01*
X151913795Y-50947668D01*
X151913793Y-50947664D01*
X151827547Y-50832455D01*
X151827544Y-50832452D01*
X151712335Y-50746206D01*
X151712328Y-50746202D01*
X151580917Y-50697189D01*
X151580916Y-50697189D01*
X151556970Y-50679263D01*
X151524983Y-50655318D01*
X151500566Y-50589853D01*
X151515418Y-50521580D01*
X151536566Y-50493329D01*
X151650104Y-50379792D01*
X151775051Y-50207816D01*
X151779793Y-50198508D01*
X151827763Y-50147711D01*
X151895583Y-50130911D01*
X151961719Y-50153445D01*
X152000763Y-50198500D01*
X152005373Y-50207547D01*
X152044728Y-50261716D01*
X152677037Y-49629408D01*
X152694075Y-49692993D01*
G37*
%TD.AperFunction*%
%TA.AperFunction,Conductor*%
G36*
X154275270Y-50261717D02*
G01*
X154275270Y-50261716D01*
X154314622Y-50207555D01*
X154319232Y-50198507D01*
X154367205Y-50147709D01*
X154435025Y-50130912D01*
X154501161Y-50153447D01*
X154540204Y-50198504D01*
X154544949Y-50207817D01*
X154669890Y-50379786D01*
X154820213Y-50530109D01*
X154992182Y-50655050D01*
X155000946Y-50659516D01*
X155051742Y-50707491D01*
X155068536Y-50775312D01*
X155045998Y-50841447D01*
X155000946Y-50880484D01*
X154992182Y-50884949D01*
X154820213Y-51009890D01*
X154669890Y-51160213D01*
X154544949Y-51332182D01*
X154540202Y-51341499D01*
X154492227Y-51392293D01*
X154424405Y-51409087D01*
X154358271Y-51386548D01*
X154319234Y-51341495D01*
X154314626Y-51332452D01*
X154275270Y-51278282D01*
X154275269Y-51278282D01*
X153642962Y-51910590D01*
X153625925Y-51847007D01*
X153560099Y-51732993D01*
X153467007Y-51639901D01*
X153352993Y-51574075D01*
X153289409Y-51557037D01*
X153921716Y-50924728D01*
X153867550Y-50885375D01*
X153857954Y-50880486D01*
X153807157Y-50832512D01*
X153790361Y-50764692D01*
X153812897Y-50698556D01*
X153857954Y-50659514D01*
X153867554Y-50654622D01*
X153921716Y-50615270D01*
X153921717Y-50615270D01*
X153289408Y-49982962D01*
X153352993Y-49965925D01*
X153467007Y-49900099D01*
X153560099Y-49807007D01*
X153625925Y-49692993D01*
X153642962Y-49629408D01*
X154275270Y-50261717D01*
G37*
%TD.AperFunction*%
%TA.AperFunction,Conductor*%
G36*
X129483900Y-48268185D02*
G01*
X129529655Y-48320989D01*
X129540479Y-48382229D01*
X129540282Y-48384728D01*
X130172591Y-49017037D01*
X130109007Y-49034075D01*
X129994993Y-49099901D01*
X129901901Y-49192993D01*
X129836075Y-49307007D01*
X129819037Y-49370591D01*
X129186728Y-48738282D01*
X129186727Y-48738282D01*
X129147380Y-48792440D01*
X129147376Y-48792446D01*
X129142760Y-48801505D01*
X129094781Y-48852297D01*
X129026959Y-48869087D01*
X128960826Y-48846543D01*
X128921794Y-48801493D01*
X128917051Y-48792184D01*
X128917049Y-48792181D01*
X128917048Y-48792179D01*
X128792109Y-48620213D01*
X128641793Y-48469897D01*
X128638154Y-48466789D01*
X128599962Y-48408282D01*
X128599464Y-48338414D01*
X128636819Y-48279368D01*
X128700166Y-48249891D01*
X128718687Y-48248500D01*
X129416861Y-48248500D01*
X129483900Y-48268185D01*
G37*
%TD.AperFunction*%
%TA.AperFunction,Conductor*%
G36*
X131952351Y-48268185D02*
G01*
X131998106Y-48320989D01*
X132008050Y-48390147D01*
X131979025Y-48453703D01*
X131965851Y-48466784D01*
X131962208Y-48469895D01*
X131811890Y-48620213D01*
X131686949Y-48792182D01*
X131682202Y-48801499D01*
X131634227Y-48852293D01*
X131566405Y-48869087D01*
X131500271Y-48846548D01*
X131461234Y-48801495D01*
X131456626Y-48792452D01*
X131417270Y-48738282D01*
X131417269Y-48738282D01*
X130784962Y-49370590D01*
X130767925Y-49307007D01*
X130702099Y-49192993D01*
X130609007Y-49099901D01*
X130494993Y-49034075D01*
X130431409Y-49017037D01*
X131063716Y-48384728D01*
X131063520Y-48382229D01*
X131077884Y-48313852D01*
X131126935Y-48264095D01*
X131187138Y-48248500D01*
X131885312Y-48248500D01*
X131952351Y-48268185D01*
G37*
%TD.AperFunction*%
%TA.AperFunction,Conductor*%
G36*
X177242539Y-46032185D02*
G01*
X177288294Y-46084989D01*
X177299500Y-46136500D01*
X177299500Y-111897500D01*
X177279815Y-111964539D01*
X177227011Y-112010294D01*
X177175500Y-112021500D01*
X112384500Y-112021500D01*
X112317461Y-112001815D01*
X112271706Y-111949011D01*
X112260500Y-111897500D01*
X112260500Y-101818267D01*
X129785000Y-101818267D01*
X129785000Y-102099070D01*
X129816437Y-102378081D01*
X129816439Y-102378093D01*
X129878921Y-102651847D01*
X129878922Y-102651849D01*
X129971662Y-102916886D01*
X130093492Y-103169869D01*
X130242884Y-103407625D01*
X130349187Y-103540926D01*
X130990747Y-102899366D01*
X131064588Y-103000999D01*
X131242670Y-103179081D01*
X131344300Y-103252920D01*
X130702741Y-103894479D01*
X130702741Y-103894480D01*
X130836043Y-104000784D01*
X131073799Y-104150176D01*
X131326782Y-104272006D01*
X131591819Y-104364746D01*
X131591821Y-104364747D01*
X131865575Y-104427229D01*
X131865587Y-104427231D01*
X132144598Y-104458668D01*
X132144600Y-104458669D01*
X132425400Y-104458669D01*
X132425401Y-104458668D01*
X132704412Y-104427231D01*
X132704424Y-104427229D01*
X132839860Y-104396317D01*
X138639500Y-104396317D01*
X138639500Y-104601020D01*
X138671522Y-104803203D01*
X138734781Y-104997892D01*
X138827715Y-105180282D01*
X138948028Y-105345882D01*
X139092786Y-105490640D01*
X139247749Y-105603225D01*
X139258390Y-105610956D01*
X139374607Y-105670172D01*
X139440776Y-105703887D01*
X139440778Y-105703887D01*
X139440781Y-105703889D01*
X139545137Y-105737796D01*
X139635465Y-105767146D01*
X139736557Y-105783157D01*
X139837648Y-105799169D01*
X139837649Y-105799169D01*
X140042351Y-105799169D01*
X140042352Y-105799169D01*
X140244534Y-105767146D01*
X140439219Y-105703889D01*
X140621610Y-105610956D01*
X140714590Y-105543401D01*
X140787213Y-105490640D01*
X140787215Y-105490637D01*
X140787219Y-105490635D01*
X140931966Y-105345888D01*
X140984681Y-105273330D01*
X141040011Y-105230665D01*
X141109624Y-105224686D01*
X141171420Y-105257291D01*
X141185319Y-105273331D01*
X141238034Y-105345888D01*
X141382786Y-105490640D01*
X141537749Y-105603225D01*
X141548390Y-105610956D01*
X141664607Y-105670172D01*
X141730776Y-105703887D01*
X141730778Y-105703887D01*
X141730781Y-105703889D01*
X141835137Y-105737796D01*
X141925465Y-105767146D01*
X142026557Y-105783157D01*
X142127648Y-105799169D01*
X142127649Y-105799169D01*
X142332351Y-105799169D01*
X142332352Y-105799169D01*
X142534534Y-105767146D01*
X142729219Y-105703889D01*
X142911610Y-105610956D01*
X143004590Y-105543401D01*
X143077213Y-105490640D01*
X143077215Y-105490637D01*
X143077219Y-105490635D01*
X143221966Y-105345888D01*
X143274681Y-105273330D01*
X143330011Y-105230665D01*
X143399624Y-105224686D01*
X143461420Y-105257291D01*
X143475319Y-105273331D01*
X143528034Y-105345888D01*
X143672786Y-105490640D01*
X143827749Y-105603225D01*
X143838390Y-105610956D01*
X143954607Y-105670172D01*
X144020776Y-105703887D01*
X144020778Y-105703887D01*
X144020781Y-105703889D01*
X144125137Y-105737796D01*
X144215465Y-105767146D01*
X144316557Y-105783157D01*
X144417648Y-105799169D01*
X144417649Y-105799169D01*
X144622351Y-105799169D01*
X144622352Y-105799169D01*
X144824534Y-105767146D01*
X145019219Y-105703889D01*
X145201610Y-105610956D01*
X145294590Y-105543401D01*
X145367213Y-105490640D01*
X145367215Y-105490637D01*
X145367219Y-105490635D01*
X145511966Y-105345888D01*
X145564681Y-105273330D01*
X145620011Y-105230665D01*
X145689624Y-105224686D01*
X145751420Y-105257291D01*
X145765319Y-105273331D01*
X145818034Y-105345888D01*
X145962786Y-105490640D01*
X146117749Y-105603225D01*
X146128390Y-105610956D01*
X146244607Y-105670172D01*
X146310776Y-105703887D01*
X146310778Y-105703887D01*
X146310781Y-105703889D01*
X146415137Y-105737796D01*
X146505465Y-105767146D01*
X146606557Y-105783157D01*
X146707648Y-105799169D01*
X146707649Y-105799169D01*
X146912351Y-105799169D01*
X146912352Y-105799169D01*
X147114534Y-105767146D01*
X147309219Y-105703889D01*
X147491610Y-105610956D01*
X147584590Y-105543401D01*
X147657213Y-105490640D01*
X147657215Y-105490637D01*
X147657219Y-105490635D01*
X147801966Y-105345888D01*
X147854681Y-105273330D01*
X147910011Y-105230665D01*
X147979624Y-105224686D01*
X148041420Y-105257291D01*
X148055319Y-105273331D01*
X148108034Y-105345888D01*
X148252786Y-105490640D01*
X148407749Y-105603225D01*
X148418390Y-105610956D01*
X148534607Y-105670172D01*
X148600776Y-105703887D01*
X148600778Y-105703887D01*
X148600781Y-105703889D01*
X148705137Y-105737796D01*
X148795465Y-105767146D01*
X148896557Y-105783157D01*
X148997648Y-105799169D01*
X148997649Y-105799169D01*
X149202351Y-105799169D01*
X149202352Y-105799169D01*
X149404534Y-105767146D01*
X149599219Y-105703889D01*
X149781610Y-105610956D01*
X149874590Y-105543401D01*
X149947213Y-105490640D01*
X149947215Y-105490637D01*
X149947219Y-105490635D01*
X150091966Y-105345888D01*
X150091968Y-105345884D01*
X150091971Y-105345882D01*
X150156335Y-105257291D01*
X150212287Y-105180279D01*
X150305220Y-104997888D01*
X150368477Y-104803203D01*
X150400500Y-104601021D01*
X150400500Y-104396317D01*
X150395500Y-104364746D01*
X150368477Y-104194134D01*
X150339127Y-104103806D01*
X150305220Y-103999450D01*
X150305218Y-103999447D01*
X150305218Y-103999445D01*
X150255734Y-103902328D01*
X150245000Y-103881261D01*
X150212287Y-103817059D01*
X150144681Y-103724006D01*
X150091971Y-103651455D01*
X149947217Y-103506701D01*
X149947212Y-103506697D01*
X149874026Y-103453524D01*
X149831360Y-103398194D01*
X149825381Y-103328581D01*
X149857987Y-103266786D01*
X149918826Y-103232428D01*
X149966310Y-103230733D01*
X150142684Y-103258669D01*
X150347317Y-103258669D01*
X150549417Y-103226659D01*
X150744031Y-103163424D01*
X150926349Y-103070528D01*
X150970921Y-103038143D01*
X150374409Y-102441631D01*
X150437993Y-102424594D01*
X150552007Y-102358768D01*
X150645099Y-102265676D01*
X150710925Y-102151662D01*
X150727962Y-102088078D01*
X151324474Y-102684590D01*
X151356859Y-102640018D01*
X151449755Y-102457700D01*
X151512990Y-102263086D01*
X151545000Y-102060986D01*
X151545000Y-101856351D01*
X151541490Y-101834191D01*
X151538968Y-101818267D01*
X154785000Y-101818267D01*
X154785000Y-102099070D01*
X154816437Y-102378081D01*
X154816439Y-102378093D01*
X154878921Y-102651847D01*
X154878922Y-102651849D01*
X154971662Y-102916886D01*
X155093492Y-103169869D01*
X155242884Y-103407625D01*
X155349187Y-103540926D01*
X155990747Y-102899366D01*
X156064588Y-103000999D01*
X156242670Y-103179081D01*
X156344300Y-103252920D01*
X155702741Y-103894479D01*
X155702741Y-103894480D01*
X155836043Y-104000784D01*
X156073799Y-104150176D01*
X156326782Y-104272006D01*
X156591819Y-104364746D01*
X156591821Y-104364747D01*
X156865575Y-104427229D01*
X156865587Y-104427231D01*
X157144598Y-104458668D01*
X157144600Y-104458669D01*
X157425400Y-104458669D01*
X157425401Y-104458668D01*
X157704412Y-104427231D01*
X157704424Y-104427229D01*
X157978178Y-104364747D01*
X157978180Y-104364746D01*
X158243217Y-104272006D01*
X158496200Y-104150176D01*
X158733956Y-104000785D01*
X158867257Y-103894479D01*
X158225698Y-103252920D01*
X158327330Y-103179081D01*
X158505412Y-103000999D01*
X158579251Y-102899367D01*
X159220810Y-103540926D01*
X159327116Y-103407625D01*
X159476507Y-103169869D01*
X159598337Y-102916886D01*
X159691077Y-102651849D01*
X159691078Y-102651847D01*
X159753560Y-102378093D01*
X159753562Y-102378081D01*
X159784999Y-102099070D01*
X159785000Y-102099068D01*
X159785000Y-101818269D01*
X159784999Y-101818267D01*
X159753562Y-101539256D01*
X159753560Y-101539244D01*
X159691078Y-101265490D01*
X159691077Y-101265488D01*
X159598337Y-101000451D01*
X159476507Y-100747468D01*
X159327115Y-100509712D01*
X159220810Y-100376410D01*
X158579251Y-101017969D01*
X158505412Y-100916339D01*
X158327330Y-100738257D01*
X158225697Y-100664416D01*
X158867257Y-100022856D01*
X158733956Y-99916553D01*
X158496200Y-99767161D01*
X158243217Y-99645331D01*
X157978180Y-99552591D01*
X157978178Y-99552590D01*
X157704424Y-99490108D01*
X157704412Y-99490106D01*
X157425401Y-99458669D01*
X157144598Y-99458669D01*
X156865587Y-99490106D01*
X156865575Y-99490108D01*
X156591821Y-99552590D01*
X156591819Y-99552591D01*
X156326782Y-99645331D01*
X156073799Y-99767161D01*
X155836043Y-99916553D01*
X155702741Y-100022856D01*
X156344301Y-100664416D01*
X156242670Y-100738257D01*
X156064588Y-100916339D01*
X155990747Y-101017970D01*
X155349187Y-100376410D01*
X155242884Y-100509712D01*
X155093492Y-100747468D01*
X154971662Y-101000451D01*
X154878922Y-101265488D01*
X154878921Y-101265490D01*
X154816439Y-101539244D01*
X154816437Y-101539256D01*
X154785000Y-101818267D01*
X151538968Y-101818267D01*
X151512990Y-101654251D01*
X151449755Y-101459637D01*
X151356859Y-101277319D01*
X151324474Y-101232746D01*
X151324474Y-101232745D01*
X150727962Y-101829258D01*
X150710925Y-101765676D01*
X150645099Y-101651662D01*
X150552007Y-101558570D01*
X150437993Y-101492744D01*
X150374408Y-101475706D01*
X150970922Y-100879193D01*
X150970921Y-100879192D01*
X150926359Y-100846816D01*
X150926350Y-100846810D01*
X150744031Y-100753913D01*
X150549418Y-100690679D01*
X150414978Y-100669385D01*
X150351844Y-100639455D01*
X150314913Y-100580144D01*
X150315911Y-100510281D01*
X150335111Y-100472601D01*
X150343796Y-100461000D01*
X150394091Y-100326152D01*
X150400500Y-100266542D01*
X150400499Y-99418669D01*
X150400499Y-98570798D01*
X150400498Y-98570792D01*
X150400322Y-98569159D01*
X150394091Y-98511186D01*
X150373084Y-98454864D01*
X150343797Y-98376340D01*
X150343793Y-98376333D01*
X150257547Y-98261124D01*
X150257544Y-98261121D01*
X150142335Y-98174875D01*
X150142328Y-98174871D01*
X150007482Y-98124577D01*
X150007483Y-98124577D01*
X149947883Y-98118170D01*
X149947881Y-98118169D01*
X149947873Y-98118169D01*
X149947864Y-98118169D01*
X148252129Y-98118169D01*
X148252123Y-98118170D01*
X148192516Y-98124577D01*
X148057671Y-98174871D01*
X148057664Y-98174875D01*
X147942455Y-98261121D01*
X147942452Y-98261124D01*
X147856206Y-98376333D01*
X147856200Y-98376344D01*
X147855819Y-98377367D01*
X147855165Y-98378239D01*
X147851953Y-98384123D01*
X147851106Y-98383660D01*
X147840417Y-98397938D01*
X147828378Y-98420637D01*
X147819824Y-98425443D01*
X147813944Y-98433298D01*
X147789867Y-98442276D01*
X147767466Y-98454864D01*
X147757671Y-98454282D01*
X147748478Y-98457711D01*
X147723370Y-98452247D01*
X147697719Y-98450725D01*
X147686528Y-98444229D01*
X147680206Y-98442854D01*
X147666539Y-98434187D01*
X147659743Y-98429227D01*
X147657219Y-98426703D01*
X147491610Y-98306382D01*
X147490991Y-98306067D01*
X147486399Y-98302715D01*
X147468046Y-98278808D01*
X147447831Y-98256461D01*
X147446532Y-98250786D01*
X147443852Y-98247294D01*
X147442765Y-98234316D01*
X147435500Y-98202554D01*
X147435500Y-94424396D01*
X147435500Y-94424394D01*
X147411463Y-94303548D01*
X147411461Y-94303543D01*
X147393505Y-94260193D01*
X147393501Y-94260185D01*
X147391932Y-94256397D01*
X147364312Y-94189715D01*
X147347256Y-94164190D01*
X147295858Y-94087267D01*
X147295856Y-94087264D01*
X147205637Y-93997045D01*
X147205606Y-93997016D01*
X145019150Y-91810560D01*
X145011860Y-91803270D01*
X145011858Y-91803267D01*
X144924733Y-91716142D01*
X144873509Y-91681915D01*
X144822286Y-91647688D01*
X144822283Y-91647686D01*
X144822280Y-91647685D01*
X144748603Y-91617168D01*
X144748601Y-91617167D01*
X144741792Y-91614347D01*
X144708452Y-91600537D01*
X144648029Y-91588518D01*
X144643306Y-91587578D01*
X144643304Y-91587578D01*
X144587610Y-91576500D01*
X144587607Y-91576500D01*
X144587606Y-91576500D01*
X143544350Y-91576500D01*
X143477311Y-91556815D01*
X143475459Y-91555602D01*
X143381184Y-91492609D01*
X143381172Y-91492602D01*
X143235501Y-91432264D01*
X143235489Y-91432261D01*
X143080845Y-91401500D01*
X143080842Y-91401500D01*
X142923158Y-91401500D01*
X142923155Y-91401500D01*
X142768510Y-91432261D01*
X142768498Y-91432264D01*
X142622827Y-91492602D01*
X142622814Y-91492609D01*
X142491711Y-91580210D01*
X142491707Y-91580213D01*
X142380213Y-91691707D01*
X142380210Y-91691711D01*
X142292609Y-91822814D01*
X142292602Y-91822827D01*
X142232264Y-91968498D01*
X142232261Y-91968510D01*
X142201500Y-92123153D01*
X142201500Y-92280846D01*
X142232261Y-92435489D01*
X142232264Y-92435501D01*
X142292602Y-92581172D01*
X142292609Y-92581185D01*
X142380210Y-92712288D01*
X142380213Y-92712292D01*
X142491707Y-92823786D01*
X142491711Y-92823789D01*
X142622814Y-92911390D01*
X142622827Y-92911397D01*
X142768498Y-92971735D01*
X142768503Y-92971737D01*
X142923153Y-93002499D01*
X142923156Y-93002500D01*
X142923158Y-93002500D01*
X143080844Y-93002500D01*
X143080845Y-93002499D01*
X143235497Y-92971737D01*
X143381179Y-92911394D01*
X143475459Y-92848398D01*
X143542136Y-92827520D01*
X143544350Y-92827500D01*
X144215548Y-92827500D01*
X144282587Y-92847185D01*
X144303229Y-92863819D01*
X146148181Y-94708771D01*
X146181666Y-94770094D01*
X146184500Y-94796452D01*
X146184500Y-98202554D01*
X146164815Y-98269593D01*
X146131428Y-98302275D01*
X146132331Y-98303518D01*
X145962786Y-98426697D01*
X145818032Y-98571451D01*
X145818028Y-98571456D01*
X145765318Y-98644006D01*
X145709988Y-98686672D01*
X145640375Y-98692651D01*
X145578580Y-98660045D01*
X145564682Y-98644006D01*
X145511971Y-98571456D01*
X145511967Y-98571451D01*
X145367213Y-98426697D01*
X145197669Y-98303518D01*
X145198884Y-98301845D01*
X145157831Y-98256461D01*
X145145500Y-98202554D01*
X145145500Y-97316350D01*
X145165185Y-97249311D01*
X145166398Y-97247459D01*
X145166809Y-97246843D01*
X145229394Y-97153179D01*
X145289737Y-97007497D01*
X145320500Y-96852842D01*
X145320500Y-96695158D01*
X145320500Y-96695155D01*
X145320499Y-96695153D01*
X145289738Y-96540510D01*
X145289737Y-96540503D01*
X145289735Y-96540498D01*
X145229397Y-96394827D01*
X145229390Y-96394814D01*
X145141789Y-96263711D01*
X145141786Y-96263707D01*
X145030292Y-96152213D01*
X145030288Y-96152210D01*
X144899185Y-96064609D01*
X144899172Y-96064602D01*
X144753501Y-96004264D01*
X144753489Y-96004261D01*
X144598845Y-95973500D01*
X144598842Y-95973500D01*
X144441158Y-95973500D01*
X144441155Y-95973500D01*
X144286510Y-96004261D01*
X144286498Y-96004264D01*
X144140827Y-96064602D01*
X144140814Y-96064609D01*
X144009711Y-96152210D01*
X144009707Y-96152213D01*
X143898213Y-96263707D01*
X143898210Y-96263711D01*
X143810609Y-96394814D01*
X143810602Y-96394827D01*
X143750264Y-96540498D01*
X143750261Y-96540510D01*
X143719500Y-96695153D01*
X143719500Y-96852846D01*
X143750261Y-97007489D01*
X143750264Y-97007501D01*
X143810602Y-97153172D01*
X143810609Y-97153184D01*
X143873602Y-97247459D01*
X143894480Y-97314136D01*
X143894500Y-97316350D01*
X143894500Y-98202554D01*
X143874815Y-98269593D01*
X143841428Y-98302275D01*
X143842331Y-98303518D01*
X143672786Y-98426697D01*
X143528032Y-98571451D01*
X143528028Y-98571456D01*
X143475318Y-98644006D01*
X143419988Y-98686672D01*
X143350375Y-98692651D01*
X143288580Y-98660045D01*
X143274682Y-98644006D01*
X143221971Y-98571456D01*
X143221967Y-98571451D01*
X143077213Y-98426697D01*
X142911613Y-98306384D01*
X142911612Y-98306383D01*
X142911610Y-98306382D01*
X142839408Y-98269593D01*
X142729223Y-98213450D01*
X142534534Y-98150191D01*
X142359995Y-98122547D01*
X142332352Y-98118169D01*
X142127648Y-98118169D01*
X142103329Y-98122020D01*
X141925465Y-98150191D01*
X141730776Y-98213450D01*
X141548386Y-98306384D01*
X141382786Y-98426697D01*
X141238032Y-98571451D01*
X141238028Y-98571456D01*
X141183670Y-98646274D01*
X141128340Y-98688940D01*
X141073624Y-98697007D01*
X141019474Y-98692745D01*
X140422962Y-99289258D01*
X140405925Y-99225676D01*
X140340099Y-99111662D01*
X140247007Y-99018570D01*
X140132993Y-98952744D01*
X140069408Y-98935706D01*
X140665922Y-98339193D01*
X140665921Y-98339192D01*
X140621359Y-98306816D01*
X140621350Y-98306810D01*
X140439031Y-98213913D01*
X140244417Y-98150678D01*
X140042317Y-98118669D01*
X139837683Y-98118669D01*
X139635582Y-98150678D01*
X139440968Y-98213913D01*
X139258644Y-98306812D01*
X139214077Y-98339192D01*
X139214077Y-98339193D01*
X139810591Y-98935706D01*
X139747007Y-98952744D01*
X139632993Y-99018570D01*
X139539901Y-99111662D01*
X139474075Y-99225676D01*
X139457037Y-99289259D01*
X138860524Y-98692746D01*
X138860523Y-98692746D01*
X138828143Y-98737313D01*
X138735244Y-98919637D01*
X138672009Y-99114251D01*
X138640000Y-99316351D01*
X138640000Y-99520986D01*
X138672009Y-99723086D01*
X138735244Y-99917700D01*
X138828141Y-100100019D01*
X138828147Y-100100028D01*
X138860523Y-100144590D01*
X138860524Y-100144591D01*
X139457037Y-99548078D01*
X139474075Y-99611662D01*
X139539901Y-99725676D01*
X139632993Y-99818768D01*
X139747007Y-99884594D01*
X139810590Y-99901631D01*
X139214076Y-100498143D01*
X139258650Y-100530528D01*
X139440968Y-100623424D01*
X139635582Y-100686659D01*
X139837683Y-100718669D01*
X140042317Y-100718669D01*
X140220512Y-100690445D01*
X140289805Y-100699399D01*
X140343257Y-100744395D01*
X140363897Y-100811147D01*
X140363528Y-100822648D01*
X140359077Y-100879193D01*
X140955591Y-101475706D01*
X140892007Y-101492744D01*
X140777993Y-101558570D01*
X140684901Y-101651662D01*
X140619075Y-101765676D01*
X140602037Y-101829259D01*
X140005524Y-101232746D01*
X140005523Y-101232746D01*
X139973143Y-101277313D01*
X139880244Y-101459637D01*
X139817009Y-101654251D01*
X139785000Y-101856351D01*
X139785000Y-102060986D01*
X139817009Y-102263086D01*
X139880244Y-102457700D01*
X139973141Y-102640019D01*
X139973147Y-102640028D01*
X140005523Y-102684590D01*
X140005524Y-102684591D01*
X140602037Y-102088078D01*
X140619075Y-102151662D01*
X140684901Y-102265676D01*
X140777993Y-102358768D01*
X140892007Y-102424594D01*
X140955590Y-102441631D01*
X140359076Y-103038143D01*
X140363486Y-103094179D01*
X140349121Y-103162556D01*
X140300069Y-103212313D01*
X140231904Y-103227651D01*
X140220470Y-103226380D01*
X140080803Y-103204259D01*
X140042352Y-103198169D01*
X139837648Y-103198169D01*
X139813329Y-103202020D01*
X139635465Y-103230191D01*
X139440776Y-103293450D01*
X139258386Y-103386384D01*
X139092786Y-103506697D01*
X138948028Y-103651455D01*
X138827715Y-103817055D01*
X138734781Y-103999445D01*
X138671522Y-104194134D01*
X138639500Y-104396317D01*
X132839860Y-104396317D01*
X132978178Y-104364747D01*
X132978180Y-104364746D01*
X133236369Y-104274403D01*
X133236372Y-104274402D01*
X133243208Y-104272010D01*
X133243215Y-104272007D01*
X133496200Y-104150176D01*
X133733956Y-104000785D01*
X133867257Y-103894479D01*
X133225698Y-103252920D01*
X133327330Y-103179081D01*
X133505412Y-103000999D01*
X133579251Y-102899367D01*
X134220810Y-103540926D01*
X134327116Y-103407625D01*
X134476507Y-103169869D01*
X134598337Y-102916886D01*
X134691077Y-102651849D01*
X134691078Y-102651847D01*
X134753560Y-102378093D01*
X134753562Y-102378081D01*
X134784999Y-102099070D01*
X134785000Y-102099068D01*
X134785000Y-101818269D01*
X134784999Y-101818267D01*
X134753562Y-101539256D01*
X134753560Y-101539244D01*
X134691078Y-101265490D01*
X134691077Y-101265488D01*
X134598337Y-101000451D01*
X134476507Y-100747468D01*
X134327115Y-100509712D01*
X134220810Y-100376410D01*
X133579251Y-101017969D01*
X133505412Y-100916339D01*
X133327330Y-100738257D01*
X133225697Y-100664416D01*
X133867257Y-100022856D01*
X133733956Y-99916553D01*
X133496200Y-99767161D01*
X133243217Y-99645331D01*
X132978180Y-99552591D01*
X132978178Y-99552590D01*
X132704424Y-99490108D01*
X132704412Y-99490106D01*
X132425401Y-99458669D01*
X132144598Y-99458669D01*
X131865587Y-99490106D01*
X131865575Y-99490108D01*
X131591821Y-99552590D01*
X131591819Y-99552591D01*
X131326782Y-99645331D01*
X131073799Y-99767161D01*
X130836043Y-99916553D01*
X130702741Y-100022856D01*
X131344301Y-100664416D01*
X131242670Y-100738257D01*
X131064588Y-100916339D01*
X130990747Y-101017970D01*
X130349187Y-100376410D01*
X130242884Y-100509712D01*
X130093492Y-100747468D01*
X129971662Y-101000451D01*
X129878922Y-101265488D01*
X129878921Y-101265490D01*
X129816439Y-101539244D01*
X129816437Y-101539256D01*
X129785000Y-101818267D01*
X112260500Y-101818267D01*
X112260500Y-70406153D01*
X137883500Y-70406153D01*
X137883500Y-70563846D01*
X137914261Y-70718489D01*
X137914264Y-70718501D01*
X137974602Y-70864172D01*
X137974609Y-70864185D01*
X138062210Y-70995288D01*
X138062213Y-70995292D01*
X138173707Y-71106786D01*
X138173711Y-71106789D01*
X138304814Y-71194390D01*
X138304827Y-71194397D01*
X138404060Y-71235500D01*
X138450503Y-71254737D01*
X138605153Y-71285499D01*
X138605156Y-71285500D01*
X138605158Y-71285500D01*
X138762844Y-71285500D01*
X138762845Y-71285499D01*
X138839152Y-71270320D01*
X138917488Y-71254739D01*
X138917489Y-71254738D01*
X138917497Y-71254737D01*
X138941155Y-71244937D01*
X138988604Y-71235500D01*
X168986396Y-71235500D01*
X169033844Y-71244937D01*
X169057503Y-71254737D01*
X169057508Y-71254738D01*
X169057511Y-71254739D01*
X169212153Y-71285499D01*
X169212156Y-71285500D01*
X169212158Y-71285500D01*
X169369844Y-71285500D01*
X169369845Y-71285499D01*
X169524497Y-71254737D01*
X169670179Y-71194394D01*
X169801289Y-71106789D01*
X169912789Y-70995289D01*
X170000394Y-70864179D01*
X170060737Y-70718497D01*
X170091500Y-70563842D01*
X170091500Y-70406158D01*
X170091500Y-70406155D01*
X170091499Y-70406153D01*
X170060738Y-70251510D01*
X170060737Y-70251503D01*
X170060735Y-70251498D01*
X170000397Y-70105827D01*
X170000390Y-70105814D01*
X169912789Y-69974711D01*
X169912786Y-69974707D01*
X169801292Y-69863213D01*
X169801288Y-69863210D01*
X169670185Y-69775609D01*
X169670172Y-69775602D01*
X169524501Y-69715264D01*
X169524489Y-69715261D01*
X169369845Y-69684500D01*
X169369842Y-69684500D01*
X169212158Y-69684500D01*
X169212155Y-69684500D01*
X169057511Y-69715260D01*
X169057506Y-69715262D01*
X169057504Y-69715262D01*
X169057503Y-69715263D01*
X169033844Y-69725062D01*
X168986396Y-69734500D01*
X138988604Y-69734500D01*
X138941155Y-69725062D01*
X138917497Y-69715263D01*
X138917493Y-69715262D01*
X138917488Y-69715260D01*
X138762845Y-69684500D01*
X138762842Y-69684500D01*
X138605158Y-69684500D01*
X138605155Y-69684500D01*
X138450510Y-69715261D01*
X138450498Y-69715264D01*
X138304827Y-69775602D01*
X138304814Y-69775609D01*
X138173711Y-69863210D01*
X138173707Y-69863213D01*
X138062213Y-69974707D01*
X138062210Y-69974711D01*
X137974609Y-70105814D01*
X137974602Y-70105827D01*
X137914264Y-70251498D01*
X137914261Y-70251510D01*
X137883500Y-70406153D01*
X112260500Y-70406153D01*
X112260500Y-57121953D01*
X126084500Y-57121953D01*
X126084500Y-57279646D01*
X126115261Y-57434289D01*
X126115264Y-57434301D01*
X126175602Y-57579972D01*
X126175609Y-57579985D01*
X126263210Y-57711088D01*
X126263213Y-57711092D01*
X126374707Y-57822586D01*
X126374711Y-57822589D01*
X126505814Y-57910190D01*
X126505827Y-57910197D01*
X126627614Y-57960642D01*
X126651503Y-57970537D01*
X126806153Y-58001299D01*
X126806156Y-58001300D01*
X126806158Y-58001300D01*
X126963844Y-58001300D01*
X126963845Y-58001299D01*
X127118497Y-57970537D01*
X127264179Y-57910194D01*
X127395289Y-57822589D01*
X127506789Y-57711089D01*
X127594394Y-57579979D01*
X127654737Y-57434297D01*
X127685500Y-57279642D01*
X127685500Y-57121958D01*
X127685500Y-57121955D01*
X127685499Y-57121953D01*
X127677509Y-57081785D01*
X127654737Y-56967303D01*
X127654735Y-56967298D01*
X127594397Y-56821628D01*
X127594396Y-56821627D01*
X127594394Y-56821621D01*
X127531397Y-56727339D01*
X127525747Y-56709294D01*
X127515523Y-56693385D01*
X127511071Y-56662423D01*
X127510520Y-56660663D01*
X127510500Y-56658450D01*
X127510500Y-56422452D01*
X127530185Y-56355413D01*
X127546819Y-56334771D01*
X128746771Y-55134819D01*
X128808094Y-55101334D01*
X128834452Y-55098500D01*
X129992607Y-55098500D01*
X130053029Y-55086481D01*
X130113452Y-55074463D01*
X130146792Y-55060652D01*
X130227286Y-55027312D01*
X130278509Y-54993084D01*
X130329733Y-54958858D01*
X130416858Y-54871733D01*
X130416858Y-54871731D01*
X130427066Y-54861524D01*
X130427067Y-54861521D01*
X132043555Y-53245036D01*
X132065248Y-53233190D01*
X132084607Y-53217818D01*
X132095378Y-53216738D01*
X132104878Y-53211551D01*
X132129530Y-53213314D01*
X132154128Y-53210848D01*
X132169816Y-53216195D01*
X132174570Y-53216535D01*
X132187525Y-53222229D01*
X132195500Y-53226293D01*
X132201584Y-53229393D01*
X132252378Y-53277370D01*
X132269171Y-53345191D01*
X132246631Y-53411325D01*
X132232966Y-53427557D01*
X129354203Y-56306321D01*
X129292880Y-56339806D01*
X129290714Y-56340257D01*
X129179508Y-56362377D01*
X129179498Y-56362380D01*
X129033827Y-56422718D01*
X129033814Y-56422725D01*
X128902711Y-56510326D01*
X128902707Y-56510329D01*
X128791213Y-56621823D01*
X128791210Y-56621827D01*
X128703609Y-56752930D01*
X128703602Y-56752943D01*
X128643264Y-56898614D01*
X128643261Y-56898626D01*
X128612500Y-57053269D01*
X128612500Y-57210962D01*
X128643261Y-57365605D01*
X128643264Y-57365617D01*
X128703602Y-57511288D01*
X128703609Y-57511301D01*
X128791210Y-57642404D01*
X128791213Y-57642408D01*
X128902707Y-57753902D01*
X128902711Y-57753905D01*
X129033814Y-57841506D01*
X129033827Y-57841513D01*
X129179498Y-57901851D01*
X129179503Y-57901853D01*
X129320388Y-57929877D01*
X129334153Y-57932615D01*
X129334156Y-57932616D01*
X129334158Y-57932616D01*
X129491844Y-57932616D01*
X129491845Y-57932615D01*
X129646497Y-57901853D01*
X129792179Y-57841510D01*
X129923289Y-57753905D01*
X130034789Y-57642405D01*
X130122394Y-57511295D01*
X130182737Y-57365613D01*
X130204858Y-57254398D01*
X130237240Y-57192491D01*
X130238735Y-57190969D01*
X134344726Y-53084979D01*
X134406047Y-53051496D01*
X134475739Y-53056480D01*
X134505290Y-53072344D01*
X134638851Y-53169380D01*
X134674184Y-53195051D01*
X134863588Y-53291557D01*
X134906738Y-53305577D01*
X134964414Y-53345014D01*
X134991613Y-53409372D01*
X134979699Y-53478219D01*
X134956102Y-53511189D01*
X132132945Y-56334347D01*
X132071622Y-56367832D01*
X132069456Y-56368283D01*
X131958250Y-56390403D01*
X131958240Y-56390406D01*
X131812569Y-56450744D01*
X131812556Y-56450751D01*
X131681453Y-56538352D01*
X131681449Y-56538355D01*
X131569955Y-56649849D01*
X131569952Y-56649853D01*
X131482351Y-56780956D01*
X131482344Y-56780969D01*
X131422006Y-56926640D01*
X131422003Y-56926652D01*
X131391242Y-57081295D01*
X131391242Y-57238988D01*
X131422003Y-57393631D01*
X131422006Y-57393643D01*
X131482344Y-57539314D01*
X131482351Y-57539327D01*
X131569952Y-57670430D01*
X131569955Y-57670434D01*
X131681449Y-57781928D01*
X131681453Y-57781931D01*
X131812556Y-57869532D01*
X131812569Y-57869539D01*
X131910728Y-57910197D01*
X131958245Y-57929879D01*
X132103977Y-57958867D01*
X132112895Y-57960641D01*
X132112898Y-57960642D01*
X132112900Y-57960642D01*
X132270586Y-57960642D01*
X132270587Y-57960641D01*
X132425239Y-57929879D01*
X132570921Y-57869536D01*
X132702031Y-57781931D01*
X132813531Y-57670431D01*
X132901136Y-57539321D01*
X132901378Y-57538738D01*
X132912745Y-57511295D01*
X132961479Y-57393639D01*
X132983600Y-57282424D01*
X133015982Y-57220517D01*
X133017477Y-57218995D01*
X137039237Y-53197236D01*
X137100558Y-53163753D01*
X137170250Y-53168737D01*
X137199804Y-53184603D01*
X137213593Y-53194622D01*
X137214184Y-53195051D01*
X137403588Y-53291557D01*
X137605757Y-53357246D01*
X137815713Y-53390500D01*
X137815714Y-53390500D01*
X137976108Y-53390500D01*
X138043147Y-53410185D01*
X138088902Y-53462989D01*
X138098846Y-53532147D01*
X138069821Y-53595703D01*
X138063789Y-53602181D01*
X135154684Y-56511286D01*
X135093361Y-56544771D01*
X135091195Y-56545222D01*
X134979989Y-56567342D01*
X134979979Y-56567345D01*
X134834308Y-56627683D01*
X134834295Y-56627690D01*
X134703192Y-56715291D01*
X134703188Y-56715294D01*
X134591694Y-56826788D01*
X134591691Y-56826792D01*
X134504090Y-56957895D01*
X134504083Y-56957908D01*
X134443745Y-57103579D01*
X134443742Y-57103591D01*
X134412981Y-57258234D01*
X134412981Y-57415927D01*
X134443742Y-57570570D01*
X134443745Y-57570582D01*
X134504083Y-57716253D01*
X134504090Y-57716266D01*
X134591691Y-57847369D01*
X134591694Y-57847373D01*
X134703188Y-57958867D01*
X134703192Y-57958870D01*
X134834295Y-58046471D01*
X134834308Y-58046478D01*
X134979979Y-58106816D01*
X134979984Y-58106818D01*
X135134634Y-58137580D01*
X135134637Y-58137581D01*
X135134639Y-58137581D01*
X135292325Y-58137581D01*
X135292326Y-58137580D01*
X135446978Y-58106818D01*
X135592660Y-58046475D01*
X135723770Y-57958870D01*
X135835270Y-57847370D01*
X135922875Y-57716260D01*
X135983218Y-57570578D01*
X136005339Y-57459363D01*
X136037721Y-57397456D01*
X136039215Y-57395935D01*
X139677858Y-53757295D01*
X139746312Y-53654847D01*
X139793463Y-53541013D01*
X139808983Y-53462989D01*
X139817501Y-53420170D01*
X139818098Y-53414108D01*
X139819558Y-53414251D01*
X139837186Y-53354220D01*
X139889990Y-53308465D01*
X139959148Y-53298521D01*
X139979803Y-53303324D01*
X140145757Y-53357246D01*
X140355713Y-53390500D01*
X140355714Y-53390500D01*
X140568286Y-53390500D01*
X140568287Y-53390500D01*
X140778243Y-53357246D01*
X140980412Y-53291557D01*
X141169816Y-53195051D01*
X141256138Y-53132335D01*
X141341786Y-53070109D01*
X141341788Y-53070106D01*
X141341792Y-53070104D01*
X141492104Y-52919792D01*
X141492106Y-52919788D01*
X141492109Y-52919786D01*
X141617048Y-52747820D01*
X141617050Y-52747817D01*
X141617051Y-52747816D01*
X141713557Y-52558412D01*
X141779246Y-52356243D01*
X141812500Y-52146287D01*
X141812500Y-51933713D01*
X141779246Y-51723757D01*
X141713557Y-51521588D01*
X141617051Y-51332184D01*
X141617049Y-51332181D01*
X141617048Y-51332179D01*
X141492109Y-51160213D01*
X141341786Y-51009890D01*
X141169820Y-50884951D01*
X141169115Y-50884591D01*
X141161054Y-50880485D01*
X141110259Y-50832512D01*
X141093463Y-50764692D01*
X141115999Y-50698556D01*
X141161054Y-50659515D01*
X141169816Y-50655051D01*
X141262727Y-50587548D01*
X141341786Y-50530109D01*
X141341788Y-50530106D01*
X141341792Y-50530104D01*
X141492104Y-50379792D01*
X141492106Y-50379788D01*
X141492109Y-50379786D01*
X141617048Y-50207820D01*
X141617047Y-50207820D01*
X141617051Y-50207816D01*
X141713557Y-50018412D01*
X141779246Y-49816243D01*
X141812500Y-49606287D01*
X141812500Y-49393713D01*
X141779246Y-49183757D01*
X141713557Y-48981588D01*
X141617051Y-48792184D01*
X141617049Y-48792181D01*
X141617048Y-48792179D01*
X141492109Y-48620213D01*
X141341791Y-48469895D01*
X141338149Y-48466784D01*
X141299960Y-48408274D01*
X141299467Y-48338406D01*
X141336826Y-48279362D01*
X141400175Y-48249890D01*
X141418688Y-48248500D01*
X149663313Y-48248500D01*
X149730352Y-48268185D01*
X149776107Y-48320989D01*
X149786051Y-48390147D01*
X149757026Y-48453703D01*
X149743846Y-48466789D01*
X149740206Y-48469897D01*
X149589890Y-48620213D01*
X149464951Y-48792179D01*
X149368444Y-48981585D01*
X149302753Y-49183760D01*
X149269500Y-49393713D01*
X149269500Y-49606286D01*
X149302753Y-49816239D01*
X149368444Y-50018414D01*
X149464951Y-50207820D01*
X149589890Y-50379786D01*
X149703430Y-50493326D01*
X149736915Y-50554649D01*
X149731931Y-50624341D01*
X149690059Y-50680274D01*
X149659083Y-50697189D01*
X149527669Y-50746203D01*
X149527664Y-50746206D01*
X149412455Y-50832452D01*
X149412452Y-50832455D01*
X149326206Y-50947664D01*
X149326202Y-50947671D01*
X149275908Y-51082517D01*
X149269501Y-51142116D01*
X149269501Y-51142123D01*
X149269500Y-51142135D01*
X149269500Y-52937870D01*
X149269501Y-52937876D01*
X149275908Y-52997483D01*
X149326202Y-53132328D01*
X149326206Y-53132335D01*
X149412452Y-53247544D01*
X149412455Y-53247547D01*
X149527664Y-53333793D01*
X149527671Y-53333797D01*
X149662517Y-53384091D01*
X149662516Y-53384091D01*
X149668767Y-53384763D01*
X149722127Y-53390500D01*
X151517872Y-53390499D01*
X151577483Y-53384091D01*
X151712331Y-53333796D01*
X151827546Y-53247546D01*
X151913796Y-53132331D01*
X151964091Y-52997483D01*
X151970500Y-52937873D01*
X151970499Y-52913979D01*
X151973330Y-52900963D01*
X151983940Y-52881525D01*
X151990179Y-52860275D01*
X152006803Y-52839643D01*
X152006808Y-52839636D01*
X152006811Y-52839634D01*
X152006818Y-52839626D01*
X152677037Y-52169408D01*
X152694075Y-52232993D01*
X152759901Y-52347007D01*
X152852993Y-52440099D01*
X152967007Y-52505925D01*
X153030590Y-52522962D01*
X152398282Y-53155269D01*
X152398282Y-53155270D01*
X152452449Y-53194624D01*
X152641782Y-53291095D01*
X152843870Y-53356757D01*
X153053754Y-53390000D01*
X153266246Y-53390000D01*
X153476127Y-53356757D01*
X153476130Y-53356757D01*
X153678217Y-53291095D01*
X153867554Y-53194622D01*
X153921716Y-53155270D01*
X153921717Y-53155270D01*
X153289408Y-52522962D01*
X153352993Y-52505925D01*
X153467007Y-52440099D01*
X153560099Y-52347007D01*
X153625925Y-52232993D01*
X153642962Y-52169408D01*
X154275270Y-52801717D01*
X154275270Y-52801716D01*
X154314622Y-52747555D01*
X154319232Y-52738507D01*
X154367205Y-52687709D01*
X154435025Y-52670912D01*
X154501161Y-52693447D01*
X154540204Y-52738504D01*
X154544949Y-52747817D01*
X154669890Y-52919786D01*
X154820213Y-53070109D01*
X154992179Y-53195048D01*
X154992181Y-53195049D01*
X154992184Y-53195051D01*
X155181588Y-53291557D01*
X155383757Y-53357246D01*
X155593713Y-53390500D01*
X155593714Y-53390500D01*
X155806286Y-53390500D01*
X155806287Y-53390500D01*
X156016243Y-53357246D01*
X156218412Y-53291557D01*
X156258204Y-53271282D01*
X156326873Y-53258385D01*
X156391614Y-53284661D01*
X156431871Y-53341767D01*
X156438500Y-53381766D01*
X156438500Y-54255611D01*
X156462535Y-54376444D01*
X156462540Y-54376461D01*
X156509685Y-54490280D01*
X156509686Y-54490283D01*
X156509688Y-54490286D01*
X156543915Y-54541509D01*
X156578142Y-54592733D01*
X156665267Y-54679858D01*
X156665270Y-54679860D01*
X156672554Y-54687144D01*
X158813205Y-56827795D01*
X158846690Y-56889118D01*
X158847141Y-56891285D01*
X158869261Y-57002489D01*
X158869264Y-57002501D01*
X158929602Y-57148172D01*
X158929609Y-57148185D01*
X159017210Y-57279288D01*
X159017213Y-57279292D01*
X159128707Y-57390786D01*
X159128711Y-57390789D01*
X159259814Y-57478390D01*
X159259827Y-57478397D01*
X159405498Y-57538735D01*
X159405503Y-57538737D01*
X159560153Y-57569499D01*
X159560156Y-57569500D01*
X159560158Y-57569500D01*
X159717844Y-57569500D01*
X159717845Y-57569499D01*
X159872497Y-57538737D01*
X160018179Y-57478394D01*
X160149289Y-57390789D01*
X160260789Y-57279289D01*
X160348394Y-57148179D01*
X160408737Y-57002497D01*
X160439500Y-56847842D01*
X160439500Y-56690158D01*
X160439500Y-56690155D01*
X160439499Y-56690153D01*
X160427074Y-56627690D01*
X160408737Y-56535503D01*
X160398309Y-56510327D01*
X160365746Y-56431711D01*
X160358277Y-56362242D01*
X160389553Y-56299763D01*
X160449642Y-56264111D01*
X160519467Y-56266605D01*
X160567986Y-56296576D01*
X160899092Y-56627683D01*
X161226205Y-56954796D01*
X161259690Y-57016119D01*
X161260141Y-57018286D01*
X161282261Y-57129489D01*
X161282264Y-57129501D01*
X161342602Y-57275172D01*
X161342609Y-57275185D01*
X161430210Y-57406288D01*
X161430213Y-57406292D01*
X161541707Y-57517786D01*
X161541711Y-57517789D01*
X161672814Y-57605390D01*
X161672827Y-57605397D01*
X161762174Y-57642405D01*
X161818503Y-57665737D01*
X161973153Y-57696499D01*
X161973156Y-57696500D01*
X161973158Y-57696500D01*
X162130844Y-57696500D01*
X162130845Y-57696499D01*
X162285497Y-57665737D01*
X162431179Y-57605394D01*
X162562289Y-57517789D01*
X162673789Y-57406289D01*
X162761394Y-57275179D01*
X162821737Y-57129497D01*
X162852500Y-56974842D01*
X162852500Y-56817158D01*
X162852500Y-56817155D01*
X162852499Y-56817153D01*
X162821737Y-56662503D01*
X162787699Y-56580327D01*
X162761397Y-56516827D01*
X162761390Y-56516814D01*
X162673789Y-56385711D01*
X162673786Y-56385707D01*
X162562292Y-56274213D01*
X162562288Y-56274210D01*
X162431185Y-56186609D01*
X162431172Y-56186602D01*
X162285501Y-56126264D01*
X162285489Y-56126261D01*
X162174286Y-56104141D01*
X162112375Y-56071756D01*
X162110796Y-56070205D01*
X160173819Y-54133228D01*
X160140334Y-54071905D01*
X160137500Y-54045547D01*
X160137500Y-53421909D01*
X160157185Y-53354870D01*
X160209989Y-53309115D01*
X160279147Y-53299171D01*
X160299807Y-53303975D01*
X160463757Y-53357246D01*
X160673713Y-53390500D01*
X160673714Y-53390500D01*
X160886286Y-53390500D01*
X160886287Y-53390500D01*
X161096243Y-53357246D01*
X161264185Y-53302677D01*
X161334022Y-53300683D01*
X161393855Y-53336763D01*
X161424684Y-53399464D01*
X161426500Y-53420609D01*
X161426500Y-54290606D01*
X161443575Y-54376451D01*
X161450526Y-54411398D01*
X161450537Y-54411453D01*
X161497685Y-54525281D01*
X161497686Y-54525283D01*
X161497687Y-54525285D01*
X161497688Y-54525286D01*
X161506481Y-54538445D01*
X161506484Y-54538453D01*
X161506486Y-54538452D01*
X161566141Y-54627732D01*
X161566144Y-54627736D01*
X161657586Y-54719178D01*
X161657608Y-54719198D01*
X163956705Y-57018295D01*
X163990190Y-57079618D01*
X163990641Y-57081785D01*
X164012761Y-57192989D01*
X164012764Y-57193001D01*
X164073102Y-57338672D01*
X164073109Y-57338685D01*
X164160710Y-57469788D01*
X164160713Y-57469792D01*
X164272207Y-57581286D01*
X164272211Y-57581289D01*
X164403314Y-57668890D01*
X164403327Y-57668897D01*
X164517688Y-57716266D01*
X164549003Y-57729237D01*
X164673017Y-57753905D01*
X164703653Y-57759999D01*
X164703656Y-57760000D01*
X164703658Y-57760000D01*
X164861344Y-57760000D01*
X164861345Y-57759999D01*
X165015997Y-57729237D01*
X165157961Y-57670434D01*
X165161672Y-57668897D01*
X165161672Y-57668896D01*
X165161679Y-57668894D01*
X165292789Y-57581289D01*
X165404289Y-57469789D01*
X165491894Y-57338679D01*
X165552237Y-57192997D01*
X165583000Y-57038342D01*
X165583000Y-56880658D01*
X165583000Y-56880655D01*
X165582999Y-56880653D01*
X165552237Y-56726003D01*
X165537390Y-56690158D01*
X165491897Y-56580327D01*
X165491890Y-56580314D01*
X165404289Y-56449211D01*
X165404286Y-56449207D01*
X165292792Y-56337713D01*
X165292788Y-56337710D01*
X165161685Y-56250109D01*
X165161672Y-56250102D01*
X165016001Y-56189764D01*
X165015989Y-56189761D01*
X164904785Y-56167641D01*
X164842874Y-56135256D01*
X164841295Y-56133705D01*
X162713819Y-54006229D01*
X162680334Y-53944906D01*
X162677500Y-53918548D01*
X162677500Y-53421909D01*
X162697185Y-53354870D01*
X162749989Y-53309115D01*
X162819147Y-53299171D01*
X162839807Y-53303975D01*
X163003757Y-53357246D01*
X163213713Y-53390500D01*
X163213714Y-53390500D01*
X163426286Y-53390500D01*
X163426287Y-53390500D01*
X163636243Y-53357246D01*
X163838412Y-53291557D01*
X164027816Y-53195051D01*
X164114138Y-53132335D01*
X164199786Y-53070109D01*
X164199788Y-53070106D01*
X164199792Y-53070104D01*
X164350104Y-52919792D01*
X164350106Y-52919788D01*
X164350109Y-52919786D01*
X164475048Y-52747820D01*
X164475050Y-52747817D01*
X164475051Y-52747816D01*
X164571557Y-52558412D01*
X164637246Y-52356243D01*
X164670500Y-52146287D01*
X164670500Y-51933713D01*
X164637246Y-51723757D01*
X164571557Y-51521588D01*
X164475051Y-51332184D01*
X164475049Y-51332181D01*
X164475048Y-51332179D01*
X164350109Y-51160213D01*
X164199786Y-51009890D01*
X164027820Y-50884951D01*
X164027115Y-50884591D01*
X164019054Y-50880485D01*
X163968259Y-50832512D01*
X163951463Y-50764692D01*
X163973999Y-50698556D01*
X164019054Y-50659515D01*
X164027816Y-50655051D01*
X164120727Y-50587548D01*
X164199786Y-50530109D01*
X164199788Y-50530106D01*
X164199792Y-50530104D01*
X164350104Y-50379792D01*
X164350106Y-50379788D01*
X164350109Y-50379786D01*
X164475048Y-50207820D01*
X164475047Y-50207820D01*
X164475051Y-50207816D01*
X164571557Y-50018412D01*
X164637246Y-49816243D01*
X164670500Y-49606287D01*
X164670500Y-49393713D01*
X164637246Y-49183757D01*
X164571557Y-48981588D01*
X164475051Y-48792184D01*
X164475049Y-48792181D01*
X164475048Y-48792179D01*
X164350109Y-48620213D01*
X164199786Y-48469890D01*
X164027820Y-48344951D01*
X163838414Y-48248444D01*
X163838413Y-48248443D01*
X163838412Y-48248443D01*
X163636243Y-48182754D01*
X163636241Y-48182753D01*
X163636240Y-48182753D01*
X163474957Y-48157208D01*
X163426287Y-48149500D01*
X163213713Y-48149500D01*
X163165042Y-48157208D01*
X163003760Y-48182753D01*
X162801585Y-48248444D01*
X162612179Y-48344951D01*
X162440213Y-48469890D01*
X162289890Y-48620213D01*
X162164949Y-48792182D01*
X162160484Y-48800946D01*
X162112509Y-48851742D01*
X162044688Y-48868536D01*
X161978553Y-48845998D01*
X161939516Y-48800946D01*
X161935050Y-48792182D01*
X161810109Y-48620213D01*
X161659786Y-48469890D01*
X161487820Y-48344951D01*
X161298414Y-48248444D01*
X161298413Y-48248443D01*
X161298412Y-48248443D01*
X161096243Y-48182754D01*
X161096241Y-48182753D01*
X161096240Y-48182753D01*
X160934957Y-48157208D01*
X160886287Y-48149500D01*
X160673713Y-48149500D01*
X160625042Y-48157208D01*
X160463760Y-48182753D01*
X160261585Y-48248444D01*
X160072179Y-48344951D01*
X159900213Y-48469890D01*
X159749890Y-48620213D01*
X159624949Y-48792182D01*
X159620484Y-48800946D01*
X159572509Y-48851742D01*
X159504688Y-48868536D01*
X159438553Y-48845998D01*
X159399516Y-48800946D01*
X159395050Y-48792182D01*
X159270109Y-48620213D01*
X159119786Y-48469890D01*
X158947820Y-48344951D01*
X158758414Y-48248444D01*
X158758413Y-48248443D01*
X158758412Y-48248443D01*
X158556243Y-48182754D01*
X158556241Y-48182753D01*
X158556240Y-48182753D01*
X158394957Y-48157208D01*
X158346287Y-48149500D01*
X158133713Y-48149500D01*
X158085042Y-48157208D01*
X157923760Y-48182753D01*
X157721585Y-48248444D01*
X157532179Y-48344951D01*
X157360213Y-48469890D01*
X157209890Y-48620213D01*
X157084949Y-48792182D01*
X157080484Y-48800946D01*
X157032509Y-48851742D01*
X156964688Y-48868536D01*
X156898553Y-48845998D01*
X156859516Y-48800946D01*
X156855050Y-48792182D01*
X156730109Y-48620213D01*
X156579786Y-48469890D01*
X156407820Y-48344951D01*
X156218414Y-48248444D01*
X156218413Y-48248443D01*
X156218412Y-48248443D01*
X156016243Y-48182754D01*
X156016241Y-48182753D01*
X156016240Y-48182753D01*
X155854957Y-48157208D01*
X155806287Y-48149500D01*
X155593713Y-48149500D01*
X155545042Y-48157208D01*
X155383760Y-48182753D01*
X155181585Y-48248444D01*
X154992179Y-48344951D01*
X154820213Y-48469890D01*
X154669890Y-48620213D01*
X154544949Y-48792182D01*
X154540202Y-48801499D01*
X154492227Y-48852293D01*
X154424405Y-48869087D01*
X154358271Y-48846548D01*
X154319234Y-48801495D01*
X154314626Y-48792452D01*
X154275270Y-48738282D01*
X154275269Y-48738282D01*
X153642962Y-49370590D01*
X153625925Y-49307007D01*
X153560099Y-49192993D01*
X153467007Y-49099901D01*
X153352993Y-49034075D01*
X153289409Y-49017037D01*
X153921716Y-48384728D01*
X153867550Y-48345375D01*
X153678217Y-48248904D01*
X153476129Y-48183242D01*
X153266246Y-48150000D01*
X153053754Y-48150000D01*
X152843872Y-48183242D01*
X152843869Y-48183242D01*
X152641782Y-48248904D01*
X152452439Y-48345380D01*
X152398282Y-48384727D01*
X152398282Y-48384728D01*
X153030591Y-49017037D01*
X152967007Y-49034075D01*
X152852993Y-49099901D01*
X152759901Y-49192993D01*
X152694075Y-49307007D01*
X152677037Y-49370591D01*
X152044728Y-48738282D01*
X152044727Y-48738282D01*
X152005380Y-48792440D01*
X152005376Y-48792446D01*
X152000760Y-48801505D01*
X151952781Y-48852297D01*
X151884959Y-48869087D01*
X151818826Y-48846543D01*
X151779794Y-48801493D01*
X151775051Y-48792184D01*
X151775049Y-48792181D01*
X151775048Y-48792179D01*
X151650109Y-48620213D01*
X151553498Y-48523602D01*
X151499792Y-48469896D01*
X151418226Y-48410635D01*
X151415017Y-48407955D01*
X151397826Y-48382248D01*
X151378949Y-48357767D01*
X151377969Y-48352553D01*
X151376179Y-48349875D01*
X151376040Y-48342280D01*
X151370500Y-48312779D01*
X151370500Y-47844187D01*
X151372094Y-47828003D01*
X151371903Y-47827985D01*
X151372500Y-47821922D01*
X151372500Y-47424079D01*
X151343659Y-47279092D01*
X151343658Y-47279091D01*
X151343658Y-47279087D01*
X151343656Y-47279082D01*
X151287087Y-47142511D01*
X151287080Y-47142498D01*
X151204951Y-47019584D01*
X151204948Y-47019580D01*
X151100419Y-46915051D01*
X151100415Y-46915048D01*
X150977501Y-46832919D01*
X150977488Y-46832912D01*
X150840917Y-46776343D01*
X150840907Y-46776340D01*
X150695920Y-46747500D01*
X150695918Y-46747500D01*
X127835918Y-46747500D01*
X127688082Y-46747500D01*
X127688080Y-46747500D01*
X127543092Y-46776340D01*
X127543082Y-46776343D01*
X127406511Y-46832912D01*
X127406498Y-46832919D01*
X127283584Y-46915048D01*
X127283580Y-46915051D01*
X127179051Y-47019580D01*
X127179048Y-47019584D01*
X127096919Y-47142498D01*
X127096912Y-47142511D01*
X127040343Y-47279082D01*
X127040340Y-47279092D01*
X127011500Y-47424079D01*
X127011500Y-48312779D01*
X126991815Y-48379818D01*
X126960385Y-48413097D01*
X126882211Y-48469893D01*
X126882205Y-48469898D01*
X126731890Y-48620213D01*
X126606951Y-48792179D01*
X126510444Y-48981585D01*
X126444753Y-49183760D01*
X126411500Y-49393713D01*
X126411500Y-49606286D01*
X126444753Y-49816239D01*
X126510444Y-50018414D01*
X126606951Y-50207820D01*
X126731890Y-50379786D01*
X126845430Y-50493326D01*
X126878915Y-50554649D01*
X126873931Y-50624341D01*
X126832059Y-50680274D01*
X126801083Y-50697189D01*
X126669669Y-50746203D01*
X126669664Y-50746206D01*
X126554455Y-50832452D01*
X126554452Y-50832455D01*
X126468206Y-50947664D01*
X126468202Y-50947671D01*
X126417908Y-51082517D01*
X126411501Y-51142116D01*
X126411501Y-51142123D01*
X126411500Y-51142135D01*
X126411500Y-52937870D01*
X126411501Y-52937876D01*
X126417908Y-52997483D01*
X126468202Y-53132328D01*
X126468206Y-53132335D01*
X126554452Y-53247544D01*
X126554455Y-53247547D01*
X126669664Y-53333793D01*
X126669671Y-53333797D01*
X126804517Y-53384091D01*
X126804516Y-53384091D01*
X126810767Y-53384763D01*
X126864127Y-53390500D01*
X128659872Y-53390499D01*
X128719483Y-53384091D01*
X128854331Y-53333796D01*
X128969546Y-53247546D01*
X129055796Y-53132331D01*
X129106091Y-52997483D01*
X129112500Y-52937873D01*
X129112499Y-52927312D01*
X129132179Y-52860275D01*
X129148818Y-52839626D01*
X129819037Y-52169408D01*
X129836075Y-52232993D01*
X129901901Y-52347007D01*
X129994993Y-52440099D01*
X130109007Y-52505925D01*
X130172589Y-52522962D01*
X129540282Y-53155269D01*
X129540282Y-53155270D01*
X129594449Y-53194624D01*
X129783782Y-53291095D01*
X129926852Y-53337581D01*
X129984527Y-53377018D01*
X130011726Y-53441377D01*
X129999812Y-53510223D01*
X129976216Y-53543193D01*
X129864563Y-53654847D01*
X129708227Y-53811182D01*
X129646907Y-53844666D01*
X129620548Y-53847500D01*
X128462389Y-53847500D01*
X128401971Y-53859518D01*
X128364259Y-53867019D01*
X128341550Y-53871536D01*
X128341548Y-53871537D01*
X128308207Y-53885347D01*
X128227719Y-53918684D01*
X128227705Y-53918692D01*
X128125272Y-53987138D01*
X128125264Y-53987144D01*
X126399144Y-55713264D01*
X126399138Y-55713272D01*
X126330692Y-55815705D01*
X126330684Y-55815719D01*
X126297347Y-55896207D01*
X126295223Y-55901335D01*
X126283537Y-55929545D01*
X126283535Y-55929553D01*
X126259500Y-56050389D01*
X126259500Y-56658450D01*
X126239815Y-56725489D01*
X126238602Y-56727341D01*
X126175609Y-56821615D01*
X126175602Y-56821628D01*
X126115264Y-56967298D01*
X126115261Y-56967310D01*
X126084500Y-57121953D01*
X112260500Y-57121953D01*
X112260500Y-46136500D01*
X112280185Y-46069461D01*
X112332989Y-46023706D01*
X112384500Y-46012500D01*
X177175500Y-46012500D01*
X177242539Y-46032185D01*
G37*
%TD.AperFunction*%
%TD*%
M02*
